<?xml version="1.0" encoding="UTF-8"?> <svg xmlns="http://www.w3.org/2000/svg" width="1440" height="500" viewBox="0 0 1440 500" fill="none"><path fill-rule="evenodd" clip-rule="evenodd" d="M1440 0H0V500H1440V0ZM205.121 245.396V149.01H174.955V188.714H144.359V149.01H114.193V252H144.359V211.84H174.955V252H225.614C228.168 252 230.606 251.316 232.649 249.711L232.656 249.705L232.663 249.7C234.35 248.362 235.719 246.712 236.508 244.703L236.543 244.614L241.261 230.681H271.642L276.384 244.686L276.453 244.844C277.322 246.832 278.623 248.522 280.335 249.853L280.372 249.882L280.409 249.91C282.458 251.428 284.914 252 287.419 252H439.873V149.01H409.707V227.636H388.89V149.01H358.724V227.636H337.907V149.01H307.741V245.291L270.471 149.01H242.432L205.121 245.396ZM255.972 187.177C256.138 186.755 256.305 186.316 256.475 185.861C256.629 186.27 256.781 186.665 256.932 187.048L263.914 207.686H249.049L255.972 187.177ZM161.663 350.017L161.661 350.019C161.169 350.532 160.315 351.113 158.861 351.62C157.565 352.072 155.662 352.375 153.007 352.375H144.229V336.644H153.007C155.681 336.644 157.614 336.928 158.94 337.36L158.98 337.373L159.021 337.385C160.422 337.809 161.214 338.339 161.661 338.804L161.717 338.863L161.776 338.92C162.325 339.447 162.69 340.06 162.896 340.839C163.188 341.941 163.35 343.2 163.35 344.64C163.35 345.814 163.199 346.905 162.912 347.925C162.715 348.629 162.333 349.32 161.663 350.017ZM182.213 367.624L182.225 367.613L182.238 367.603C185.768 364.52 188.472 360.818 190.318 356.531C192.209 352.197 193.125 347.475 193.125 342.423C193.125 338.399 192.378 334.537 190.873 330.872C189.305 327.009 186.81 323.686 183.484 320.911C180.111 318.053 175.864 315.902 170.893 314.353C165.827 312.762 159.835 312.019 153.007 312.019H144.229V298.505H189.474V274.01H114.193V377H153.007C159.041 377 164.561 376.217 169.516 374.582C174.412 372.966 178.673 370.665 182.213 367.624ZM262.803 375H292.97V272.01H221.104L221.014 275.919C220.798 285.347 220.431 293.669 219.915 300.891C219.397 308.134 218.775 314.437 218.05 319.808L218.048 319.822L218.046 319.835C217.363 325.177 216.581 329.657 215.711 333.301L215.706 333.322L215.701 333.343C214.859 337.049 213.976 340.04 213.072 342.361L213.061 342.388L213.05 342.416C212.167 344.785 211.309 346.389 210.546 347.396L210.522 347.427L210.499 347.459C209.639 348.642 208.888 349.357 208.29 349.764C207.569 350.254 207.039 350.436 206.687 350.495C205.839 350.636 205.06 350.701 204.346 350.701H194.87V368.066C194.87 369.615 195.374 371.09 196.383 372.318C197.325 373.464 198.546 374.202 199.737 374.69C202.156 375.722 205.578 376.043 209.431 376.043C212.856 376.043 216.154 375.663 219.312 374.886C222.796 374.04 225.996 372.41 228.894 370.071L228.911 370.057L228.927 370.044C231.873 367.614 234.444 364.35 236.701 360.402C239.006 356.367 240.983 351.248 242.687 345.151C244.401 339.016 245.844 331.658 247.034 323.111L247.034 323.108C248.097 315.433 248.944 306.518 249.58 296.374H262.803V375ZM389.897 360.905L389.904 360.898L389.911 360.891C394.597 356.111 398.207 350.51 400.743 344.127C403.337 337.708 404.615 330.809 404.615 323.473C404.615 316.176 403.336 309.3 400.743 302.883C398.206 296.497 394.591 290.911 389.897 286.17C385.191 281.416 379.538 277.716 372.997 275.05C366.413 272.306 359.171 270.967 351.328 270.967C343.486 270.967 336.229 272.283 329.609 274.979C323.064 277.643 317.391 281.342 312.642 286.091L312.635 286.098L312.628 286.105C307.936 290.844 304.303 296.425 301.722 302.806L301.717 302.817L301.713 302.829C299.165 309.246 297.91 316.141 297.91 323.473C297.91 330.805 299.165 337.699 301.713 344.116L301.717 344.128L301.722 344.14C304.301 350.517 307.931 356.114 312.614 360.891L312.628 360.906L312.642 360.92C317.391 365.669 323.064 369.367 329.609 372.032C336.229 374.727 343.486 376.043 351.328 376.043C359.167 376.043 366.404 374.728 372.985 372.03C379.531 369.364 385.188 365.663 389.897 360.905ZM372.425 312.05L372.429 312.063C373.493 315.332 374.058 319.12 374.058 323.473C374.058 327.868 373.493 331.702 372.427 335.018C371.358 338.3 369.85 340.974 367.954 343.121L367.941 343.135L367.929 343.15C366.091 345.27 363.826 346.91 361.075 348.072C358.335 349.186 355.109 349.788 351.328 349.788C347.503 349.788 344.23 349.186 341.442 348.068C338.694 346.907 336.403 345.264 334.518 343.135C332.66 340.987 331.17 338.308 330.098 335.018C329.032 331.702 328.467 327.868 328.467 323.473C328.467 319.12 329.032 315.332 330.096 312.063L330.1 312.05C331.175 308.712 332.666 306.017 334.518 303.875C336.408 301.741 338.705 300.096 341.461 298.934C344.242 297.779 347.508 297.157 351.328 297.157C355.103 297.157 358.321 297.779 361.054 298.93C363.815 300.092 366.086 301.735 367.929 303.861L367.941 303.875L367.954 303.889C369.844 306.029 371.353 308.72 372.425 312.05ZM439.75 296.374H477.433V272.01H409.583V375H439.75V296.374Z" fill="white"></path></svg> 