<?xml version="1.0" encoding="utf-8"?>
<!-- Generator: Adobe Illustrator 24.0.1, SVG Export Plug-In . SVG Version: 6.00 Build 0)  -->
<svg version="1.1" id="Слой_1" xmlns="http://www.w3.org/2000/svg" xmlns:xlink="http://www.w3.org/1999/xlink" x="0px" y="0px"
	 viewBox="0 0 2401 749" style="enable-background:new 0 0 2401 749;" xml:space="preserve">
<style type="text/css">
	.st0{fill-rule:evenodd;clip-rule:evenodd;fill:#FFFFFF;}
</style>
<path class="st0" d="M1374.4,60h0.6v8.8h-0.6V60z M1376.4,65.8c0-1.8,1.4-3.1,3.2-3.1c1.7,0,3.1,1.4,3.1,3.1c0,1.8-1.4,3.1-3.1,3.1
	C1377.8,68.9,1376.4,67.6,1376.4,65.8z M1382.1,65.8c0-1.4-1.1-2.6-2.5-2.6c-1.4,0-2.5,1.1-2.5,2.6s1.1,2.6,2.5,2.6
	C1381,68.3,1382.1,67.2,1382.1,65.8z M1383.8,65.8c0-1.8,1.3-3.1,3.2-3.1c1.2,0,2.2,0.6,2.6,1.5l-0.5,0.3c-0.3-0.8-1.2-1.2-2.1-1.2
	c-1.5,0-2.5,1.1-2.5,2.6s1.1,2.6,2.5,2.6c1,0,1.8-0.5,2.2-1.2l0.5,0.3c-0.5,0.9-1.5,1.5-2.7,1.5
	C1385.1,68.9,1383.8,67.6,1383.8,65.8z M1396.7,62.8v6h-0.6v-1.4c-0.5,0.9-1.4,1.5-2.6,1.5c-1.7,0-3.1-1.4-3.1-3.1
	c0-1.8,1.4-3.1,3.1-3.1c1.2,0,2.1,0.6,2.6,1.5v-1.4H1396.7z M1396.1,65.8c0-1.4-1.1-2.6-2.5-2.6c-1.4,0-2.5,1.1-2.5,2.6
	s1.1,2.6,2.5,2.6C1395,68.3,1396.1,67.2,1396.1,65.8z M1398.6,60h0.6v8.8h-0.6V60z M1386.4,74.6c0,1.8-1.4,3.1-3.1,3.1
	c-1.2,0-2.1-0.6-2.6-1.5V80h-0.6v-8.4h0.6V73c0.5-0.9,1.4-1.5,2.6-1.5C1385,71.5,1386.4,72.9,1386.4,74.6z M1385.8,74.6
	c0-1.4-1.1-2.6-2.5-2.6c-1.4,0-2.5,1.1-2.5,2.6s1.1,2.6,2.5,2.6C1384.7,77.2,1385.8,76.1,1385.8,74.6z M1390.4,71.6v0.6
	c-1,0-2,0.6-2,2.2v3.3h-0.6v-6h0.6v1.2C1388.8,71.9,1389.6,71.6,1390.4,71.6z M1390.9,74.6c0-1.8,1.4-3.1,3.2-3.1
	c1.7,0,3.1,1.4,3.1,3.1c0,1.8-1.4,3.1-3.1,3.1C1392.3,77.8,1390.9,76.4,1390.9,74.6z M1396.6,74.6c0-1.4-1.1-2.6-2.5-2.6
	c-1.4,0-2.5,1.1-2.5,2.6s1.1,2.6,2.5,2.6C1395.5,77.2,1396.6,76.1,1396.6,74.6z M1407.2,73.8v3.8h-0.6v-3.8c0-1.1-0.7-1.8-1.6-1.8
	c-1,0-1.8,0.7-1.8,2.2v3.3h-0.6v-3.8c0-1.1-0.6-1.8-1.5-1.8c-1,0-1.9,0.7-1.9,2.2v3.3h-0.6v-6h0.6v1c0.4-0.8,1.2-1.2,1.9-1.2
	c0.9,0,1.6,0.4,1.9,1.2c0.4-0.8,1.2-1.2,2-1.2C1406.3,71.5,1407.2,72.3,1407.2,73.8z M1408.5,74.6c0-1.8,1.4-3.1,3.2-3.1
	c1.7,0,3.1,1.4,3.1,3.1c0,1.8-1.4,3.1-3.1,3.1C1409.9,77.8,1408.5,76.4,1408.5,74.6z M1414.2,74.6c0-1.4-1.1-2.6-2.5-2.6
	c-1.4,0-2.5,1.1-2.5,2.6s1.1,2.6,2.5,2.6C1413.1,77.2,1414.2,76.1,1414.2,74.6z M1417.4,72.2v3.9c0,1.1,0.6,1.1,1.8,1v0.5
	c-1.6,0.2-2.4-0.1-2.4-1.5v-3.9h-1.3v-0.6h1.3v-1.5l0.6-0.2v1.7h1.8v0.6H1417.4z M1420.5,69.7c0-0.3,0.2-0.5,0.5-0.5
	c0.3,0,0.5,0.2,0.5,0.5c0,0.3-0.2,0.5-0.5,0.5C1420.7,70.2,1420.5,70,1420.5,69.7z M1420.6,71.6h0.6v6h-0.6V71.6z M1422.7,74.6
	c0-1.8,1.4-3.1,3.2-3.1c1.7,0,3.1,1.4,3.1,3.1c0,1.8-1.4,3.1-3.1,3.1C1424.1,77.8,1422.7,76.4,1422.7,74.6z M1428.4,74.6
	c0-1.4-1.1-2.6-2.5-2.6c-1.4,0-2.5,1.1-2.5,2.6s1.1,2.6,2.5,2.6C1427.3,77.2,1428.4,76.1,1428.4,74.6z M1435.5,73.9v3.7h-0.6v-3.7
	c0-1.1-0.6-1.8-1.8-1.8c-1.2,0-2.1,0.8-2.1,2.4v3.2h-0.6v-6h0.6v1.1c0.5-0.9,1.2-1.3,2.1-1.3C1434.6,71.5,1435.5,72.5,1435.5,73.9z
	 M212.7,42.6h19.9V333h-19.9V42.6z M280.4,233.6c0-58.9,46.5-103.8,104.6-103.8c57.7,0,104.2,44.9,104.2,103.8
	c0,58.9-46.5,103.8-104.2,103.8C326.9,337.4,280.4,292.4,280.4,233.6z M468.9,233.6c0-47.3-36.6-84.7-83.9-84.7
	c-47.3,0-84.3,37.4-84.3,84.7s37,84.7,84.3,84.7C432.3,318.3,468.9,280.9,468.9,233.6z M523.5,233.6c0-58.9,44.6-103.8,104.6-103.8
	c39,0,72.4,19.9,86.7,50.9l-16.3,9.5c-11.5-25.1-38.6-41.4-70.4-41.4c-48.1,0-84.3,37.4-84.3,84.7s36.2,84.7,84.3,84.7
	c32.2,0,58.5-16.7,71.6-41.4l16.7,9.9c-15.9,30.6-49.3,50.5-88.3,50.5C568.1,337.4,523.5,292.4,523.5,233.6z M953.7,134.1V333h-20.3
	v-45c-16.7,29.8-47.3,49.3-85.5,49.3c-56.5,0-103-44.9-103-103.8c0-58.9,46.5-103.8,103-103.8c38.2,0,68.8,19.5,85.5,49.3v-44.9
	H953.7z M933.4,233.6c0-47.3-36.6-84.7-83.9-84.7c-47.3,0-84.3,37.4-84.3,84.7s37,84.7,84.3,84.7
	C896.8,318.3,933.4,280.9,933.4,233.6z M1015.1,42.6h19.9V333h-19.9V42.6z M610.3,527.4c0,58.9-46.2,103.8-103,103.8
	c-38.6,0-69.2-19.9-85.5-50.5v125.7h-19.9V427.9h19.9v46.1c16.3-30.6,46.9-50.5,85.5-50.5C564.1,423.6,610.3,468.5,610.3,527.4z
	 M590.4,527.4c0-47.3-37-84.7-84.3-84.7c-47.3,0-84.3,37.4-84.3,84.7s37,84.7,84.3,84.7C553.4,612.1,590.4,574.7,590.4,527.4z
	 M744.9,425.2v19.1c-34.2,0-66.4,21.1-66.4,72v110.6h-19.9V427.9h19.9v39C691.9,435.5,717.8,425.2,744.9,425.2z M759.6,527.4
	c0-58.9,46.5-103.8,104.6-103.8c57.7,0,104.2,44.9,104.2,103.8c0,58.9-46.5,103.8-104.2,103.8C806.2,631.2,759.6,586.3,759.6,527.4z
	 M948.2,527.4c0-47.3-36.6-84.7-83.9-84.7c-47.3,0-84.3,37.4-84.3,84.7s37,84.7,84.3,84.7C911.6,612.1,948.2,574.7,948.2,527.4z
	 M1301.1,500.7v126.1h-19.9V500.7c0-37.8-21.9-58.1-52.9-58.1c-33.4,0-59.7,22.3-59.7,73.2v111h-19.9V500.7
	c0-37.8-20.3-58.1-50.9-58.1c-32.6,0-61.6,22.3-61.6,73.2v111h-19.9V427.9h19.9v34.2c14.7-27.5,38.6-38.6,64-38.6
	c29.1,0,51.7,14.3,62.1,40.6c14.3-27.8,39.8-40.6,66.4-40.6C1270.9,423.6,1301.1,451,1301.1,500.7z M1343.9,527.4
	c0-58.9,46.5-103.8,104.6-103.8c57.7,0,104.2,44.9,104.2,103.8c0,58.9-46.5,103.8-104.2,103.8
	C1390.4,631.2,1343.9,586.3,1343.9,527.4z M1532.4,527.4c0-47.3-36.6-84.7-83.9-84.7c-47.3,0-84.3,37.4-84.3,84.7s37,84.7,84.3,84.7
	C1495.9,612.1,1532.4,574.7,1532.4,527.4z M1639.2,447.4v129.3c0,35,18.7,35.8,59.3,32.2v17.9c-52.1,8-79.6-4.8-79.6-50.1V447.4
	h-43.8v-19.5h43.8v-49.7l20.3-6v55.7h59.3v19.5H1639.2z M1740.3,363.9c0-8.4,7.2-15.5,15.9-15.5c8.7,0,15.9,7.2,15.9,15.5
	c0,8.8-7.2,15.9-15.9,15.9C1747.4,379.8,1740.3,372.7,1740.3,363.9z M1746.3,427.9h19.9v198.9h-19.9V427.9z M1813.9,527.4
	c0-58.9,46.5-103.8,104.6-103.8c57.7,0,104.2,44.9,104.2,103.8c0,58.9-46.5,103.8-104.2,103.8
	C1860.5,631.2,1813.9,586.3,1813.9,527.4z M2002.5,527.4c0-47.3-36.6-84.7-83.9-84.7c-47.3,0-84.3,37.4-84.3,84.7s37,84.7,84.3,84.7
	C1965.9,612.1,2002.5,574.7,2002.5,527.4z M2238.9,503.1v123.7h-20.3V503.1c0-36.6-21.1-60.5-58.5-60.5c-39,0-69.6,25.5-69.6,79.2
	v105h-19.9V427.9h19.9v37.8c15.1-29.4,40.6-42.2,71.2-42.2C2209.1,423.6,2238.9,455,2238.9,503.1z"/>
</svg>
