<?xml version="1.0" encoding="UTF-8"?> <svg xmlns="http://www.w3.org/2000/svg" width="85" height="56" viewBox="0 0 85 56" fill="none"><path d="M34.3853 52.5141V52.5359C33.6295 53.8672 32.3867 54.8386 30.9294 55.2368C29.4722 55.635 27.9196 55.4275 26.6121 54.66C22.8947 52.4814 24.3831 47.2419 18.8923 44.7692C15.3316 43.1752 12.604 44.5985 9.73043 45.1323C5.10141 46.0183 0.586325 43.0409 0.0522066 38.1463C-0.410696 33.9198 2.24565 29.795 6.39397 28.9635C8.88653 28.4479 11.6034 28.8619 14.6514 27.2788C18.1375 25.4633 19.665 22.9434 20.4021 20.1439C21.6484 15.3946 20.6158 9.85006 22.9481 5.61997C26.4377 -0.705201 36.2761 -2.08497 41.3325 3.51037C47.0902 9.87911 44.1811 20.7938 36.1764 23.1503C32.7403 24.1634 28.9907 23.5752 25.5439 24.2396C22.6597 24.777 19.9891 26.1749 17.8882 30.0855C15.5274 34.4826 15.8336 39.428 19.9677 42.616C24.8246 46.3632 28.5848 42.3619 32.3272 44.5659C33.6328 45.3366 34.5854 46.604 34.9759 48.0899C35.3664 49.5759 35.163 51.1591 34.4103 52.4923L34.3853 52.5141Z" fill="url(#paint0_linear)"></path><path d="M50.5153 24.6498H48.2605C48.2104 24.6503 48.1614 24.6642 48.1185 24.6899C48.0533 24.7287 47.9992 24.7834 47.9616 24.8489C47.9239 24.9144 47.904 24.9884 47.9036 25.0637V30.5941C47.8993 30.6822 47.9243 30.7694 47.9749 30.842C48.0254 30.9146 48.0987 30.9688 48.1834 30.996C48.4516 31.0381 48.7235 31.0516 48.9945 31.0362H50.5113C51.0046 31.0656 51.4949 30.9416 51.9137 30.6815C52.3325 30.4214 52.6588 30.0381 52.8472 29.5853C53.1196 29.0081 53.2582 28.3777 53.2527 27.7405C53.285 26.9695 53.0567 26.2099 52.6039 25.5822C52.3598 25.2736 52.0446 25.0274 51.6847 24.8645C51.3249 24.7016 50.9308 24.6265 50.5356 24.6457L50.5153 24.6498ZM50.345 30.3007H48.7796V25.3933H50.3369C50.6269 25.369 50.9184 25.4165 51.1853 25.5316C51.4522 25.6466 51.686 25.8256 51.8658 26.0524C52.2186 26.6016 52.3862 27.2476 52.3443 27.8972C52.3433 28.1211 52.3216 28.3445 52.2794 28.5644C52.2255 28.9167 52.097 29.2536 51.9023 29.5531C51.713 29.8558 51.4278 30.0876 51.0912 30.2123C50.8487 30.2804 50.5969 30.3102 50.345 30.3007ZM59.4049 36.7957C58.9173 36.5532 58.3766 36.4344 57.8314 36.45C57.4267 36.437 57.0241 36.5115 56.6515 36.6684C56.2789 36.8252 55.9453 37.0607 55.6739 37.3583C55.0605 38.0638 54.7453 38.9765 54.7938 39.9065C54.7434 40.8378 55.0671 41.7511 55.6941 42.4466C56.2343 42.9336 56.9431 43.1956 57.6732 43.1781C58.1784 43.198 58.6802 43.0872 59.1291 42.8566C59.4139 42.6872 59.6699 42.4742 59.8875 42.2255V42.6556C59.8875 42.7718 59.934 42.8832 60.0169 42.9654C60.0998 43.0475 60.2123 43.0937 60.3295 43.0937C60.5728 43.0937 60.6621 42.8968 60.6621 42.6556V40.0512C60.6621 39.6493 60.4147 39.6131 60.1065 39.593C59.7983 39.5729 59.3968 39.593 59.2224 39.593H58.1234C58.0222 39.593 57.9253 39.6328 57.8538 39.7037C57.7823 39.7745 57.7421 39.8706 57.7421 39.9708C57.7421 40.071 57.7823 40.1671 57.8538 40.2379C57.9253 40.3088 58.0222 40.3486 58.1234 40.3486H59.8753C59.9103 40.6255 59.8828 40.9066 59.7948 41.1717C59.7069 41.4368 59.5606 41.6793 59.3666 41.8815C59.1726 42.0838 58.9357 42.2408 58.673 42.3413C58.4103 42.4418 58.1284 42.4833 57.8476 42.4627C57.5339 42.4893 57.2185 42.4369 56.9306 42.3104C56.6428 42.1839 56.3918 41.9875 56.2011 41.7392C55.8454 41.1875 55.6698 40.5405 55.6982 39.8864C55.6463 39.1722 55.8646 38.4644 56.3106 37.9009C56.4996 37.6903 56.7322 37.5223 56.9925 37.4086C57.2528 37.2949 57.5347 37.238 57.8192 37.2418C58.2575 37.2229 58.6918 37.3319 59.0683 37.5553C59.2719 37.6876 59.4369 37.8705 59.5468 38.0858C59.8023 38.5721 59.8469 38.5762 60.1146 38.5802H60.2281C60.3863 38.5802 60.6337 38.5802 60.4633 38.0818C60.3819 37.8085 60.2464 37.554 60.0646 37.3332C59.8829 37.1124 59.6586 36.9297 59.4049 36.7957ZM78.3601 49.3354C77.8349 48.8807 77.15 48.6497 76.454 48.6924C76.0277 48.6725 75.6026 48.7515 75.2125 48.9232C74.8225 49.0948 74.4783 49.3544 74.2073 49.6811C73.6843 50.3384 73.4167 51.1598 73.453 51.9961C73.453 53.234 73.7855 54.1544 74.4587 54.7493C74.9789 55.205 75.6545 55.4478 76.3486 55.4285C76.736 55.4462 77.1228 55.3803 77.482 55.2353C77.8412 55.0902 78.1644 54.8695 78.429 54.5885C78.7581 54.2546 78.9882 53.8375 79.0941 53.3827C79.1995 52.9004 79.1995 52.9045 78.8305 52.8924H78.7129C78.3479 52.9165 78.3763 52.8562 78.2141 53.3345C78.1482 53.5413 78.0526 53.7376 77.9302 53.9173C77.7691 54.1554 77.5484 54.3481 77.2896 54.4763C77.0308 54.6045 76.7429 54.6639 76.454 54.6488C76.1536 54.6686 75.8529 54.6148 75.5785 54.4921C75.304 54.3695 75.0643 54.1817 74.8805 53.9454C74.513 53.412 74.3321 52.7738 74.3654 52.1288C74.3096 51.4036 74.5167 50.6824 74.9494 50.0951C75.1412 49.8803 75.3783 49.7099 75.6439 49.596C75.9095 49.4821 76.1972 49.4275 76.4864 49.4359C76.9217 49.4109 77.352 49.5375 77.7031 49.7936C77.8729 49.9463 78.0108 50.1307 78.1086 50.3362C78.3276 50.7783 78.3033 50.7984 78.6156 50.7743H78.7818C79.0495 50.8024 79.1874 50.7221 78.9968 50.2478C78.859 49.8988 78.6409 49.5864 78.3601 49.3354ZM44.931 24.6498C45.0475 24.6508 45.1589 24.6974 45.2409 24.7795C45.3229 24.8615 45.369 24.9723 45.3689 25.0878V30.6021C45.369 30.7176 45.3229 30.8285 45.2409 30.9105C45.1589 30.9925 45.0475 31.0392 44.931 31.0402C44.8144 31.0392 44.703 30.9925 44.621 30.9105C44.539 30.8285 44.493 30.7176 44.493 30.6021V25.0878C44.493 24.9723 44.539 24.8615 44.621 24.7795C44.703 24.6974 44.8144 24.6508 44.931 24.6498ZM56.1727 25.5179V27.4109H59.267C59.3842 27.4109 59.4967 27.4571 59.5796 27.5392C59.6625 27.6214 59.709 27.7328 59.709 27.849C59.709 27.9652 59.6625 28.0766 59.5796 28.1588C59.4967 28.2409 59.3842 28.2871 59.267 28.2871H56.1727V30.1962H59.6239C59.6819 30.1962 59.7394 30.2075 59.793 30.2295C59.8467 30.2516 59.8954 30.2838 59.9364 30.3245C59.9775 30.3652 60.01 30.4135 60.0323 30.4666C60.0545 30.5198 60.0659 30.5768 60.0659 30.6343C60.0659 30.7505 60.0193 30.8619 59.9364 30.9441C59.8535 31.0262 59.7411 31.0724 59.6239 31.0724H55.7104C55.5931 31.0724 55.4807 31.0262 55.3978 30.9441C55.3149 30.8619 55.2683 30.7505 55.2683 30.6343V25.0798C55.2694 24.9643 55.3164 24.8539 55.3992 24.7726C55.482 24.6913 55.5938 24.6457 55.7104 24.6457H59.5306C59.6478 24.6457 59.7603 24.6919 59.8432 24.774C59.9261 24.8562 59.9726 24.9676 59.9726 25.0838C59.9726 25.2 59.9261 25.3114 59.8432 25.3936C59.7603 25.4758 59.6478 25.5219 59.5306 25.5219L56.1727 25.5179ZM64.2268 24.6377C64.3165 24.6401 64.4033 24.6694 64.4757 24.7218C64.5481 24.7742 64.6028 24.8472 64.6324 24.9311L66.6074 30.5057C66.645 30.615 66.6375 30.7345 66.5866 30.8384C66.5357 30.9422 66.4455 31.022 66.3356 31.0603C66.2254 31.0976 66.1047 31.0902 65.9999 31.0398C65.8951 30.9893 65.8146 30.8999 65.776 30.791L65.2204 29.2236H62.6614L62.1017 30.8031C62.0631 30.912 61.9826 31.0014 61.8778 31.0518C61.773 31.1022 61.6524 31.1096 61.5421 31.0724C61.4322 31.0341 61.342 30.9543 61.2911 30.8504C61.2402 30.7466 61.2328 30.627 61.2704 30.5177L63.2454 24.9432C63.275 24.8593 63.3296 24.7863 63.402 24.7338C63.4745 24.6814 63.5613 24.6521 63.6509 24.6498H64.2268V24.6377ZM64.9203 28.3514L63.947 25.6103L62.9737 28.3514H64.9203ZM47.1331 36.5746H44.8701C44.82 36.5752 44.771 36.5891 44.7282 36.6148C44.6629 36.6535 44.6089 36.7083 44.5712 36.7737C44.5336 36.8392 44.5136 36.9132 44.5132 36.9886V42.5471C44.5089 42.6352 44.5339 42.7223 44.5845 42.795C44.6351 42.8676 44.7084 42.9217 44.7931 42.949C45.0612 42.9911 45.3331 43.0045 45.6042 42.9892H47.1209C47.6143 43.0186 48.1046 42.8946 48.5233 42.6345C48.9421 42.3744 49.2685 41.9911 49.4568 41.5383C49.7292 40.961 49.8677 40.3307 49.8624 39.6935C49.8947 38.9225 49.6663 38.1629 49.2135 37.5352C48.9695 37.2265 48.6543 36.9804 48.2944 36.8175C47.9345 36.6545 47.5404 36.5795 47.1452 36.5987L47.1331 36.5746ZM46.9627 42.2014H45.3973V37.2981H46.9546C47.2446 37.2738 47.5362 37.3213 47.8031 37.4363C48.0699 37.5514 48.3038 37.7304 48.4835 37.9572C48.8363 38.5063 49.0039 39.1523 48.9621 39.802C48.9611 40.0259 48.9394 40.2492 48.8972 40.4692C48.8433 40.8214 48.7148 41.1584 48.52 41.4579C48.3322 41.7618 48.0464 41.994 47.7089 42.117C47.466 42.1824 47.2142 42.2096 46.9627 42.1974V42.2014ZM52.3119 36.6148C52.4291 36.6148 52.5416 36.661 52.6245 36.7431C52.7074 36.8253 52.7539 36.9367 52.7539 37.0529V42.5672C52.7539 42.6834 52.7074 42.7948 52.6245 42.877C52.5416 42.9591 52.4291 43.0053 52.3119 43.0053C52.1946 43.0053 52.0822 42.9591 51.9993 42.877C51.9164 42.7948 51.8698 42.6834 51.8698 42.5672V37.0529C51.8698 36.9367 51.9164 36.8253 51.9993 36.7431C52.0822 36.661 52.1946 36.6148 52.3119 36.6148ZM63.5212 36.5746C63.6384 36.5746 63.7508 36.6208 63.8337 36.7029C63.9166 36.7851 63.9632 36.8965 63.9632 37.0127V42.527C63.9632 42.6432 63.9166 42.7546 63.8337 42.8368C63.7508 42.9189 63.6384 42.9651 63.5212 42.9651C63.4039 42.9651 63.2915 42.9189 63.2086 42.8368C63.1257 42.7546 63.0791 42.6432 63.0791 42.527V37.0288C63.0769 36.9699 63.0868 36.9112 63.108 36.8562C63.1292 36.8012 63.1614 36.7509 63.2027 36.7086C63.244 36.6662 63.2934 36.6324 63.3482 36.6094C63.4029 36.5864 63.4617 36.5746 63.5212 36.5746ZM73.6679 36.5746C73.7576 36.577 73.8444 36.6063 73.9168 36.6587C73.9892 36.7111 74.0439 36.7841 74.0734 36.868L76.0485 42.4426C76.086 42.5519 76.0786 42.6714 76.0277 42.7753C75.9768 42.8792 75.8866 42.9589 75.7767 42.9972C75.6665 43.0345 75.5458 43.0271 75.441 42.9767C75.3362 42.9262 75.2557 42.8369 75.2171 42.7279L74.6615 41.1605H72.1025L71.5266 42.736C71.488 42.8449 71.4075 42.9343 71.3027 42.9847C71.1979 43.0351 71.0772 43.0425 70.967 43.0053C70.8571 42.967 70.7669 42.8872 70.716 42.7833C70.6651 42.6795 70.6577 42.5599 70.6953 42.4506L72.6703 36.876C72.6998 36.7921 72.7545 36.7191 72.8269 36.6667C72.8994 36.6143 72.9862 36.585 73.0758 36.5826H73.6436L73.6679 36.5746ZM74.3614 40.2883L73.3881 37.5472L72.4148 40.2883H74.3614ZM47.3277 48.825C47.4174 48.8274 47.5042 48.8567 47.5766 48.9091C47.6491 48.9615 47.7037 49.0345 47.7333 49.1184L49.7083 54.693C49.7459 54.8023 49.7384 54.9218 49.6875 55.0257C49.6367 55.1296 49.5465 55.2093 49.4366 55.2476C49.3263 55.2849 49.2057 55.2775 49.1009 55.2271C48.9961 55.1767 48.9156 55.0873 48.8769 54.9784L48.3213 53.4109H45.7623L45.2027 54.9904C45.164 55.0993 45.0835 55.1887 44.9787 55.2391C44.8739 55.2896 44.7533 55.297 44.643 55.2597C44.5331 55.2214 44.4429 55.1416 44.392 55.0378C44.3412 54.9339 44.3337 54.8143 44.3713 54.705L46.3463 49.1305C46.3759 49.0466 46.4305 48.9736 46.503 48.9212C46.5754 48.8688 46.6622 48.8394 46.7519 48.8371H47.3196L47.3277 48.825ZM48.0212 52.5387L47.0479 49.7977L46.0746 52.5387H48.0212ZM60.4268 49.7213V51.6143H63.5212C63.5792 51.6143 63.6367 51.6256 63.6903 51.6477C63.744 51.6697 63.7927 51.7019 63.8337 51.7426C63.8748 51.7833 63.9073 51.8316 63.9296 51.8848C63.9518 51.9379 63.9632 51.9949 63.9632 52.0524C63.9632 52.1686 63.9166 52.28 63.8337 52.3622C63.7508 52.4443 63.6384 52.4905 63.5212 52.4905H60.4268V54.3996H63.878C63.9953 54.3996 64.1077 54.4457 64.1906 54.5279C64.2735 54.6101 64.3201 54.7215 64.3201 54.8377C64.3201 54.9539 64.2735 55.0653 64.1906 55.1475C64.1077 55.2296 63.9953 55.2758 63.878 55.2758H59.9848C59.8676 55.2758 59.7551 55.2296 59.6722 55.1475C59.5893 55.0653 59.5428 54.9539 59.5428 54.8377V49.2832C59.5438 49.1677 59.5909 49.0573 59.6737 48.976C59.7564 48.8947 59.8683 48.8491 59.9848 48.8491H63.8213C63.9357 48.8522 64.0444 48.8992 64.1246 48.9802C64.2048 49.0611 64.2501 49.1698 64.2511 49.2832C64.2511 49.3994 64.2046 49.5108 64.1217 49.593C64.0388 49.6751 63.9263 49.7213 63.8091 49.7213H60.4268ZM68.2539 37.4829V42.6033C68.2539 42.6609 68.2424 42.7178 68.2202 42.771C68.198 42.8242 68.1654 42.8724 68.1244 42.9131C68.0833 42.9538 68.0346 42.9861 67.981 43.0081C67.9274 43.0301 67.8699 43.0414 67.8118 43.0414C67.7538 43.0414 67.6963 43.0301 67.6427 43.0081C67.589 42.9861 67.5403 42.9538 67.4993 42.9131C67.4582 42.8724 67.4256 42.8242 67.4034 42.771C67.3812 42.7178 67.3698 42.6609 67.3698 42.6033V37.4829H65.63C65.5128 37.4829 65.4003 37.4368 65.3174 37.3546C65.2345 37.2725 65.1879 37.161 65.1879 37.0449C65.1879 36.9287 65.2345 36.8172 65.3174 36.7351C65.4003 36.6529 65.5128 36.6068 65.63 36.6068H69.9896C70.1068 36.6068 70.2193 36.6529 70.3022 36.7351C70.3851 36.8172 70.4316 36.9287 70.4316 37.0449C70.4316 37.161 70.3851 37.2725 70.3022 37.3546C70.2193 37.4368 70.1068 37.4829 69.9896 37.4829H68.2539ZM81.8113 42.6033C81.8113 42.6609 81.7998 42.7178 81.7776 42.771C81.7554 42.8242 81.7228 42.8724 81.6818 42.9131C81.6407 42.9538 81.592 42.9861 81.5384 43.0081C81.4847 43.0301 81.4273 43.0414 81.3692 43.0414H78.1248C77.9987 43.0169 77.8846 42.9507 77.8014 42.8536C77.7181 42.7565 77.6706 42.6343 77.6666 42.5069V36.9765C77.6666 36.8603 77.7132 36.7489 77.796 36.6667C77.8789 36.5846 77.9914 36.5384 78.1086 36.5384C78.2252 36.5395 78.3366 36.5861 78.4186 36.6682C78.5006 36.7502 78.5466 36.861 78.5466 36.9765V42.1612H81.3854C81.5005 42.1654 81.6095 42.214 81.689 42.2965C81.7685 42.3791 81.8124 42.4892 81.8113 42.6033ZM55.8726 49.034C55.3851 48.7914 54.8444 48.6726 54.2991 48.6884C53.8944 48.6753 53.4918 48.7498 53.1192 48.9067C52.7466 49.0636 52.413 49.299 52.1416 49.5967C51.5227 50.3056 51.2058 51.2249 51.2575 52.1609C51.2071 53.0923 51.5308 54.0055 52.1578 54.701C52.698 55.1881 53.4068 55.45 54.1368 55.4325C54.6421 55.4524 55.1438 55.3416 55.5927 55.111C55.8775 54.9416 56.1335 54.7286 56.3511 54.48V54.91C56.3511 55.0262 56.3977 55.1376 56.4806 55.2198C56.5635 55.302 56.6759 55.3481 56.7932 55.3481C57.0365 55.3481 57.1257 55.1512 57.1257 54.91V52.3056C57.1257 51.9037 56.8783 51.8675 56.5701 51.8474C56.2619 51.8273 55.8604 51.8474 55.686 51.8474H54.587C54.4859 51.8474 54.3889 51.8872 54.3174 51.9581C54.2459 52.0289 54.2058 52.125 54.2058 52.2252C54.2058 52.3254 54.2459 52.4215 54.3174 52.4924C54.3889 52.5632 54.4859 52.603 54.587 52.603H56.3389C56.3739 52.8799 56.3465 53.1611 56.2585 53.4262C56.1705 53.6913 56.0242 53.9337 55.8302 54.136C55.6362 54.3382 55.3993 54.4953 55.1367 54.5958C54.874 54.6963 54.592 54.7377 54.3112 54.7171C53.9975 54.7437 53.6821 54.6913 53.3943 54.5648C53.1064 54.4384 52.8555 54.2419 52.6647 53.9937C52.309 53.4419 52.1334 52.795 52.1618 52.1408C52.11 51.4266 52.3283 50.7188 52.7742 50.1554C52.9633 49.9447 53.1958 49.7768 53.4561 49.663C53.7164 49.5493 53.9984 49.4924 54.2828 49.4962C54.7212 49.4774 55.1555 49.5864 55.5319 49.8097C55.7355 49.942 55.9005 50.1249 56.0105 50.3402C56.2659 50.8266 56.3106 50.8306 56.5782 50.8346H56.6918C56.8499 50.8346 57.0973 50.8346 56.927 50.3362C56.8479 50.0604 56.7139 49.803 56.5328 49.5793C56.3517 49.3557 56.1272 49.1702 55.8726 49.034ZM71.1211 48.8371C71.2319 48.8462 71.3351 48.8963 71.4103 48.9775C71.4855 49.0587 71.527 49.165 71.5266 49.2752V54.7895C71.5266 55.32 70.5817 55.3602 70.3789 55.0507L67.2278 50.1955V54.7895C67.2278 54.9056 67.1813 55.0171 67.0984 55.0992C67.0155 55.1814 66.903 55.2275 66.7858 55.2275C66.6686 55.2275 66.5561 55.1814 66.4732 55.0992C66.3903 55.0171 66.3437 54.9056 66.3437 54.7895V49.2752C66.3437 48.7044 67.313 48.7165 67.5158 49.03L70.6385 53.853V49.2752C70.6385 49.159 70.685 49.0475 70.7679 48.9654C70.8508 48.8832 70.9633 48.8371 71.0805 48.8371H71.1211ZM82.9346 52.5508V54.898C82.9341 54.9555 82.9221 55.0124 82.8994 55.0653C82.8767 55.1183 82.8437 55.1663 82.8023 55.2066C82.7609 55.2469 82.7118 55.2787 82.658 55.3002C82.6042 55.3218 82.5466 55.3326 82.4885 55.332C82.3713 55.332 82.2588 55.2859 82.1759 55.2037C82.093 55.1216 82.0465 55.0101 82.0465 54.8939V52.6231L79.9985 49.5123C79.9356 49.4151 79.914 49.2973 79.9383 49.1844C79.9626 49.0715 80.0308 48.9727 80.1282 48.9094C80.2263 48.8471 80.3452 48.8257 80.4591 48.8497C80.573 48.8738 80.6727 48.9415 80.7366 49.038L82.4642 51.6585L84.1918 49.038C84.2557 48.9415 84.3554 48.8738 84.4693 48.8497C84.5832 48.8257 84.7021 48.8471 84.8001 48.9094C84.8975 48.9727 84.9658 49.0715 84.9901 49.1844C85.0144 49.2973 84.9928 49.4151 84.9299 49.5123L82.9346 52.5508Z" fill="black" fill-opacity="0.82"></path><defs><linearGradient id="paint0_linear" x1="16.82" y1="44.1955" x2="39.5934" y2="9.33894" gradientUnits="userSpaceOnUse"><stop stop-color="#4A58A5"></stop><stop offset="0.44" stop-color="#6958A4"></stop><stop offset="1" stop-color="#F24A41"></stop></linearGradient></defs></svg> 