<svg width="24" height="77" viewBox="0 0 24 77" fill="none" xmlns="http://www.w3.org/2000/svg">
<path d="M12 42L14.6942 50.2918H23.4127L16.3593 55.4164L19.0534 63.7082L12 58.5836L4.94658 63.7082L7.64074 55.4164L0.587322 50.2918H9.30583L12 42Z" fill="#FAC917"/>
<path d="M12 4.61804L14.2186 11.4463L14.3309 11.7918H14.6942H21.8738L16.0654 16.0119L15.7715 16.2254L15.8837 16.5709L18.1024 23.3992L12.2939 19.1791L12 18.9656L11.7061 19.1791L5.89763 23.3992L8.11627 16.5709L8.22853 16.2254L7.93464 16.0119L2.12616 11.7918H9.30583H9.6691L9.78136 11.4463L12 4.61804Z" stroke="black" stroke-opacity="0.24"/>
</svg>
