<?xml version="1.0" encoding="UTF-8"?> <svg xmlns="http://www.w3.org/2000/svg" width="1440" height="500" viewBox="0 0 1440 500" fill="none"><path fill-rule="evenodd" clip-rule="evenodd" d="M1440 0H0V500H1440V0ZM184.059 236.838C186.002 238.343 188.297 239 190.702 239H220.259C222.534 239 224.738 238.39 226.594 236.931L226.601 236.926L226.608 236.92C228.102 235.736 229.338 234.256 230.054 232.434L230.089 232.344L233.946 220.951H258.787L262.669 232.417L262.738 232.574C263.514 234.349 264.678 235.863 266.209 237.054L266.246 237.083L266.284 237.111C268.153 238.495 270.372 239 272.584 239H315.831V204.779H320.221C321.542 204.779 322.314 204.985 322.724 205.177C322.748 205.188 323.207 205.433 323.875 206.652L323.885 206.669L337.255 231.807L337.29 231.868C338.426 233.835 339.79 235.552 341.451 236.838C343.394 238.343 345.689 239 348.094 239H371.87L350.658 199.895L350.643 199.869C348.988 196.921 347.108 194.428 344.946 192.537C344.673 192.294 344.393 192.059 344.107 191.834C345.195 190.807 346.145 189.633 346.96 188.328L346.964 188.321L370.346 150.581H347.156C344.714 150.581 342.386 151.217 340.388 152.671C338.706 153.894 337.325 155.444 336.227 157.257L321.667 181.469C321.071 182.42 320.631 182.717 320.474 182.796L320.448 182.809L320.422 182.822C320.122 182.978 319.589 183.146 318.675 183.146H315.831V150.581H289.175V229.422L258.656 150.581H234.077L205.942 223.263L193.266 199.895L193.251 199.869C191.595 196.921 189.716 194.427 187.554 192.537C187.281 192.293 187.001 192.059 186.715 191.834C187.803 190.807 188.753 189.633 189.568 188.328L189.572 188.321L212.954 150.581H189.764C187.322 150.581 184.994 151.217 182.996 152.671C181.314 153.894 179.933 155.444 178.835 157.257L164.275 181.469C163.679 182.42 163.239 182.717 163.082 182.796L163.056 182.809L163.03 182.822C162.73 182.978 162.197 183.146 161.283 183.146H158.439V150.581H131.783V239H158.439V204.779H162.829C164.15 204.779 164.922 204.985 165.332 205.177C165.356 205.188 165.815 205.433 166.483 206.652L179.863 231.807L179.898 231.868C181.034 233.835 182.398 235.552 184.059 236.838ZM240.954 200.257L246.385 184.167L251.829 200.257H240.954ZM492.477 239V150.581H474.236C473.37 150.581 472.571 150.601 471.849 150.643L471.842 150.644L471.834 150.644C470.899 150.702 469.958 150.884 469.047 151.234C467.988 151.641 467.084 152.268 466.33 153.022C465.571 153.781 464.984 154.698 464.515 155.588L464.502 155.614L443.877 196.202C443.663 196.59 443.452 196.982 443.244 197.379C443.078 197.052 442.911 196.726 442.741 196.404L442.727 196.377L422.043 155.615L422.029 155.588C421.56 154.696 420.958 153.785 420.163 153.023C419.428 152.252 418.536 151.634 417.497 151.234C416.562 150.874 415.594 150.7 414.647 150.644C413.953 150.6 413.169 150.581 412.308 150.581H394.067V239H418.515V198.595L431.932 224.631C432.892 226.497 434.26 228.065 436.081 229.157L436.105 229.172L436.13 229.187C437.934 230.234 439.926 230.721 442.002 230.721H444.541C446.606 230.721 448.594 230.239 450.383 229.172C452.235 228.09 453.637 226.525 454.609 224.636L454.612 224.631L468.029 198.664V239H492.477ZM540.398 215.117L540.395 215.12C540.063 215.465 539.433 215.914 538.266 216.321C537.256 216.673 535.72 216.925 533.511 216.925H526.693V204.834H533.511C535.739 204.834 537.305 205.072 538.345 205.411L538.385 205.424L538.425 205.436C539.54 205.773 540.109 206.176 540.395 206.475L540.452 206.534L540.511 206.59C540.893 206.957 541.145 207.377 541.291 207.929C541.522 208.805 541.654 209.818 541.654 210.99C541.654 211.931 541.534 212.799 541.307 213.605C541.169 214.096 540.901 214.594 540.398 215.117ZM558.638 230.914L558.65 230.904L558.662 230.893C561.72 228.223 564.064 225.014 565.663 221.299C567.301 217.545 568.089 213.465 568.089 209.114C568.089 205.629 567.442 202.281 566.137 199.103C564.77 195.734 562.595 192.841 559.711 190.433C556.777 187.948 553.102 186.093 548.836 184.764C544.471 183.393 539.333 182.76 533.511 182.76H526.693V150.581H500.037V239H533.511C538.672 239 543.412 238.331 547.681 236.922C551.89 235.533 555.571 233.549 558.638 230.914ZM569.141 239H595.908V150.581H569.141V239ZM172.144 321.117L172.141 321.12C171.809 321.465 171.179 321.914 170.011 322.321C169.002 322.673 167.465 322.925 165.257 322.925H158.439V310.834H165.257C167.484 310.834 169.051 311.072 170.09 311.411L170.131 311.424L170.171 311.436C171.286 311.773 171.854 312.176 172.141 312.475L172.198 312.534L172.257 312.59C172.639 312.957 172.89 313.377 173.037 313.93C173.268 314.805 173.4 315.818 173.4 316.99C173.4 317.931 173.28 318.799 173.053 319.605C172.915 320.096 172.647 320.594 172.144 321.117ZM190.384 336.914L190.396 336.904L190.408 336.893C193.465 334.223 195.809 331.015 197.408 327.301C199.046 323.547 199.835 319.465 199.835 315.114C199.835 311.629 199.188 308.281 197.883 305.103C196.515 301.733 194.34 298.839 191.454 296.431C188.522 293.947 184.848 292.093 180.584 290.764C176.218 289.393 171.079 288.76 165.257 288.76H158.439V278.545H196.744V268.789L224.365 316.664L222.82 319.687L222.818 319.691C222.304 320.689 221.816 321.323 221.409 321.712C220.902 322.195 220.453 322.508 220.07 322.709C219.612 322.91 219.2 323.022 218.827 323.073L218.814 323.074L218.802 323.076C218.195 323.163 217.649 323.201 217.16 323.201H208.523V338.516C208.523 339.965 208.996 341.353 209.944 342.506C210.824 343.576 211.953 344.251 213.021 344.69C215.192 345.616 218.197 345.883 221.465 345.883C223.781 345.883 226.002 345.681 228.117 345.261C230.387 344.848 232.532 344.071 234.535 342.933L234.548 342.925L234.56 342.918C236.633 341.72 238.506 340.143 240.189 338.244C241.929 336.281 243.46 333.851 244.823 331.046L244.833 331.024L279.873 256.581H258.114C256.91 256.581 255.717 256.78 254.572 257.216C253.569 257.577 252.639 258.088 251.797 258.747C251.091 259.292 250.45 259.909 249.872 260.591L249.812 260.663L249.755 260.736C249.232 261.418 248.773 262.149 248.411 262.934L248.401 262.956L237.712 286.869C237.42 287.466 237.136 288.063 236.859 288.661C236.528 288.009 236.184 287.358 235.827 286.709L223.918 262.781L223.893 262.734C223.041 261.129 221.915 259.73 220.49 258.619C218.645 257.104 216.383 256.581 214.179 256.581H131.783V345H165.257C170.418 345 175.158 344.331 179.427 342.922C183.635 341.533 187.317 339.549 190.384 336.914ZM356.267 354.689V323.146H344.345V256.581H282.303L282.2 260.475C281.981 268.782 281.634 276.093 281.161 282.416L281.161 282.427L281.16 282.437C280.723 288.739 280.179 294.199 279.533 298.83C278.882 303.492 278.169 307.358 277.404 310.456C276.625 313.604 275.823 316.081 275.019 317.946L275.008 317.973L274.996 318C274.199 319.927 273.452 321.231 272.809 322.054C272.427 322.521 272.089 322.878 271.797 323.146H260.066V363.766H275.326C277.776 363.766 280.163 363.102 282.107 361.438C284.181 359.697 285.176 357.308 285.176 354.689V345H331.157V363.766H346.417C348.867 363.766 351.254 363.102 353.198 361.438C355.272 359.697 356.267 357.308 356.267 354.689ZM410.538 311.497V289.698H385.259V278.932H418.265V256.581H358.492V345H418.265V322.649H385.259V311.497H410.538ZM520.182 345V256.581H501.942C501.075 256.581 500.277 256.601 499.554 256.643L499.547 256.644L499.54 256.644C498.605 256.702 497.663 256.884 496.752 257.234C495.694 257.641 494.789 258.268 494.035 259.022C493.276 259.781 492.689 260.698 492.22 261.588L492.207 261.614L471.582 302.202C471.368 302.589 471.157 302.982 470.949 303.379C470.784 303.051 470.616 302.726 470.446 302.403L470.432 302.377L449.748 261.615L449.734 261.588C449.265 260.696 448.663 259.785 447.868 259.023C447.133 258.252 446.241 257.634 445.202 257.234C444.267 256.874 443.299 256.7 442.353 256.644C441.659 256.6 440.875 256.581 440.013 256.581H421.773V345H446.221V304.595L459.638 330.631C460.597 332.497 461.966 334.065 463.786 335.157L463.811 335.172L463.836 335.187C465.639 336.234 467.631 336.721 469.708 336.721H472.247C474.312 336.721 476.3 336.239 478.089 335.172C479.942 334.089 481.344 332.523 482.316 330.634L482.317 330.631L495.734 304.664V345H520.182ZM593.155 280.796L593.202 280.843L593.251 280.889C593.921 281.515 594.423 282.268 594.766 283.205C595.135 284.215 595.35 285.416 595.35 286.854C595.35 290.337 594.467 292.49 593.206 293.859C592.158 294.998 590 296.045 585.662 296.045H579.948V278.545H585.662C587.702 278.545 589.259 278.803 590.419 279.206L590.432 279.211L590.445 279.215C591.693 279.64 592.552 280.193 593.155 280.796ZM601.312 315.935L601.323 315.931L601.333 315.928C605.835 314.427 609.715 312.302 612.849 309.472C615.968 306.657 618.296 303.261 619.808 299.329C621.292 295.471 622.006 291.298 622.006 286.854C622.006 282.68 621.302 278.723 619.855 275.021C618.369 271.217 616.048 267.922 612.947 265.162C609.842 262.367 605.978 260.284 601.488 258.825C596.925 257.293 591.62 256.581 585.662 256.581H553.292V345H579.948V318.12H585.662C591.52 318.12 596.762 317.424 601.312 315.935ZM647.91 306.257L653.341 290.167L658.785 306.257H647.91ZM637.044 338.344L640.901 326.951H665.742L669.624 338.417L669.693 338.574C670.469 340.349 671.634 341.863 673.165 343.054L673.202 343.083L673.24 343.111C675.108 344.495 677.328 345 679.539 345H729.605C734.765 345 739.506 344.331 743.774 342.922C747.983 341.533 751.664 339.549 754.731 336.914L754.743 336.904L754.755 336.893C757.813 334.222 760.158 331.013 761.757 327.298C763.354 323.637 764.143 319.665 764.181 315.435C764.505 316.459 764.864 317.469 765.26 318.466L765.265 318.478L765.269 318.49C767.482 323.961 770.598 328.768 774.621 332.872L774.635 332.886L774.649 332.9C778.732 336.982 783.605 340.157 789.216 342.442C794.903 344.757 801.127 345.883 807.835 345.883C814.54 345.883 820.746 344.758 826.4 342.441C832.014 340.156 836.874 336.977 840.924 332.886L840.931 332.879L840.938 332.872C844.962 328.766 848.062 323.957 850.238 318.483C852.467 312.968 853.562 307.048 853.562 300.763C853.562 294.512 852.466 288.611 850.238 283.1C849.73 281.82 849.171 280.578 848.561 279.373H871.104V345H897.76V279.373H920.39V256.581H848.474V279.202C846.487 275.318 843.971 271.828 840.924 268.751C836.878 264.663 832.022 261.486 826.414 259.201C820.756 256.843 814.545 255.698 807.835 255.698C801.127 255.698 794.903 256.824 789.216 259.139C783.605 261.424 778.732 264.599 774.649 268.681L774.642 268.688L774.635 268.695C770.604 272.768 767.483 277.562 765.269 283.036L765.265 283.048L765.26 283.06C763.072 288.57 761.997 294.484 761.997 300.763C761.997 302.171 762.051 303.56 762.16 304.93C760.788 301.634 758.638 298.798 755.801 296.431C752.867 293.946 749.191 292.091 744.924 290.762C740.56 289.392 735.423 288.76 729.605 288.76H722.786V278.545H761.092V256.581H696.13V335.422L665.611 256.581H641.032L606.805 345H627.214C629.489 345 631.693 344.39 633.549 342.931L633.557 342.926L633.564 342.92C635.057 341.736 636.293 340.256 637.009 338.434L637.044 338.344ZM736.491 321.117L736.489 321.12C736.157 321.465 735.526 321.914 734.359 322.321C733.349 322.673 731.813 322.925 729.605 322.925H722.786V310.834H729.605C731.832 310.834 733.398 311.072 734.438 311.411L734.478 311.424L734.519 311.436C735.633 311.773 736.202 312.176 736.489 312.475L736.545 312.534L736.604 312.59C736.986 312.957 737.238 313.377 737.384 313.93C737.616 314.804 737.747 315.818 737.747 316.99C737.747 317.932 737.627 318.799 737.4 319.605C737.262 320.096 736.994 320.594 736.491 321.117ZM825.112 291.281L825.116 291.294C825.994 293.989 826.465 297.13 826.465 300.763C826.465 304.436 825.993 307.618 825.112 310.356C824.229 313.062 822.992 315.246 821.451 316.992L821.438 317.006L821.426 317.02C819.935 318.741 818.096 320.074 815.852 321.023C813.618 321.93 810.969 322.429 807.835 322.429C804.663 322.429 801.973 321.93 799.699 321.019C797.459 320.071 795.599 318.736 794.068 317.008C792.557 315.261 791.333 313.07 790.448 310.356C789.567 307.618 789.095 304.436 789.095 300.763C789.095 297.13 789.566 293.989 790.444 291.294L790.448 291.281C791.336 288.522 792.561 286.315 794.068 284.573C795.604 282.839 797.472 281.501 799.722 280.553C801.989 279.613 804.67 279.097 807.835 279.097C810.964 279.097 813.605 279.613 815.831 280.55C818.085 281.499 819.93 282.835 821.426 284.561L821.438 284.576L821.451 284.59C822.988 286.33 824.227 288.53 825.112 291.281ZM944.044 306.257L949.475 290.167L954.919 306.257H944.044ZM933.178 338.344L937.036 326.951H961.876L965.758 338.417L965.827 338.574C966.603 340.349 967.768 341.863 969.299 343.054L969.336 343.083L969.374 343.111C971.242 344.495 973.462 345 975.673 345H995.972L961.745 256.581H937.166L902.939 345H923.349C925.623 345 927.827 344.39 929.684 342.931L929.691 342.926L929.698 342.92C931.191 341.736 932.427 340.256 933.143 338.434L933.178 338.344ZM1027.77 279.373H1050.4V256.581H978.484V279.373H1001.11V345H1027.77V279.373ZM1092.24 321.117L1092.24 321.12C1091.91 321.465 1091.27 321.914 1090.11 322.321C1089.1 322.673 1087.56 322.925 1085.35 322.925H1078.54V310.834H1085.35C1087.58 310.834 1089.15 311.072 1090.19 311.411L1090.23 311.424L1090.27 311.436C1091.38 311.773 1091.95 312.176 1092.24 312.475L1092.29 312.534L1092.35 312.59C1092.74 312.957 1092.99 313.377 1093.13 313.93C1093.36 314.804 1093.5 315.818 1093.5 316.99C1093.5 317.932 1093.38 318.799 1093.15 319.605C1093.01 320.096 1092.74 320.594 1092.24 321.117ZM1110.48 336.914L1110.49 336.904L1110.5 336.893C1113.56 334.222 1115.91 331.013 1117.51 327.298C1119.14 323.544 1119.93 319.464 1119.93 315.114C1119.93 311.629 1119.28 308.282 1117.98 305.104C1116.61 301.733 1114.44 298.839 1111.55 296.431C1108.62 293.946 1104.94 292.091 1100.67 290.762C1096.31 289.392 1091.17 288.76 1085.35 288.76H1078.54V256.581H1051.88V345H1085.35C1090.51 345 1095.25 344.331 1099.52 342.922C1103.73 341.533 1107.41 339.549 1110.48 336.914ZM303.577 308.671C302.631 313.059 301.559 316.963 300.348 320.363C300.013 321.324 299.667 322.252 299.31 323.146H317.579V278.435H307.543C307.139 283.975 306.646 289.047 306.064 293.649C305.354 299.253 304.527 304.264 303.577 308.671Z" fill="white"></path></svg> 