<?xml version="1.0" encoding="UTF-8"?> <svg xmlns="http://www.w3.org/2000/svg" width="1440" height="500" viewBox="0 0 1440 500" fill="none"><path fill-rule="evenodd" clip-rule="evenodd" d="M1440 0H0V500H1440V0ZM115.196 86.0209L112.73 88.11L119.795 101.314L119.866 101.429C120.679 102.73 121.662 103.943 122.879 104.856L122.925 104.89L122.973 104.924C124.538 106.029 126.334 106.438 128.083 106.438C129.906 106.438 131.652 105.908 133.262 105.103L133.286 105.091L133.311 105.078C134.531 104.447 135.928 103.748 137.506 102.98C138.931 102.307 140.591 101.685 142.503 101.128L142.528 101.12L142.553 101.112C144.218 100.603 146.285 100.31 148.815 100.31C153.313 100.31 155.962 101.154 157.405 102.21L157.424 102.224L157.443 102.238C158.822 103.223 159.419 104.378 159.419 106.089C159.419 108.429 158.63 109.845 157.155 110.891C155.489 112.029 152.405 112.911 147.25 112.911H131.174L131.269 137.993H149.111L149.147 137.992C151.304 137.953 153.177 138.148 154.795 138.535L154.805 138.537L154.814 138.539C156.46 138.925 157.709 139.484 158.654 140.143L158.71 140.182L158.768 140.219C159.731 140.842 160.381 141.558 160.82 142.362L160.842 142.403L160.865 142.443C161.298 143.195 161.57 144.141 161.57 145.402C161.57 147.428 161.272 148.887 160.84 149.913C160.398 150.964 159.789 151.745 159.014 152.344L158.989 152.364L158.964 152.384C158.19 153.002 157.142 153.535 155.709 153.898C154.156 154.247 152.303 154.441 150.119 154.441C147.037 154.441 144.551 154.064 142.582 153.407C140.28 152.64 138.328 151.814 136.701 150.946C134.902 149.96 133.304 149.065 131.904 148.259C130 147.163 127.927 146.487 125.736 146.487C124.011 146.487 122.376 146.945 120.902 147.823C119.616 148.572 118.51 149.56 117.643 150.788L117.585 150.87L109.221 164.086L111.692 166.347C113.972 168.433 116.562 170.298 119.442 171.95L119.454 171.957L119.466 171.964C122.354 173.594 125.415 175.008 128.646 176.208L128.678 176.219L128.71 176.231C131.998 177.388 135.395 178.289 138.898 178.934C142.433 179.585 145.957 179.913 149.467 179.913C155.694 179.913 161.372 179.06 166.443 177.274L166.459 177.268L166.475 177.262C171.452 175.461 175.766 172.975 179.334 169.755C182.88 166.553 185.594 162.778 187.436 158.452C189.312 154.103 190.237 149.456 190.237 144.554C190.237 142 189.821 139.543 188.962 137.214C188.18 134.937 187.063 132.831 185.616 130.91C184.223 128.959 182.544 127.213 180.601 125.665C180.259 125.385 179.912 125.111 179.559 124.844C181.712 122.836 183.467 120.539 184.782 117.943C186.948 113.708 188.02 109.128 188.02 104.264C188.02 99.9248 187.058 95.8678 185.085 92.17C183.172 88.4594 180.424 85.3273 176.922 82.7759C173.432 80.233 169.292 78.3334 164.585 77.013C159.861 75.6319 154.657 74.9678 149.01 74.9678C142.321 74.9678 136.022 75.9368 130.143 77.9112C124.353 79.8267 119.341 82.5099 115.196 86.0209ZM216.714 171.615L221.431 157.682H251.812L256.554 171.687L256.623 171.844C257.493 173.833 258.794 175.523 260.505 176.854L260.542 176.883L260.58 176.911C262.628 178.428 265.084 179 267.589 179H290.508L250.641 76.0109H222.602L182.735 179H205.784C208.339 179 210.776 178.317 212.819 176.711L212.826 176.706L212.834 176.7C214.52 175.363 215.89 173.713 216.679 171.704L216.714 171.615ZM236.142 114.178C236.308 113.756 236.476 113.317 236.645 112.862C236.799 113.271 236.951 113.666 237.102 114.049L244.085 134.687H229.22L236.142 114.178ZM359.918 179V76.0109H329.751V120.965C324.66 121.971 320.565 122.463 317.411 122.495C313.538 122.536 311.002 121.992 309.462 121.222C307.938 120.46 307.113 119.487 306.671 118.277C306.044 116.561 305.675 114.374 305.675 111.631V76.0109H275.509V111.565C275.509 116.992 276.151 121.848 277.535 126.052L277.542 126.072L277.549 126.092C278.963 130.237 281.01 133.834 283.751 136.782L283.763 136.795L283.775 136.807C286.496 139.682 289.769 141.87 293.54 143.379C297.212 144.847 301.232 145.75 305.567 146.127L305.57 146.127C309.91 146.501 314.522 146.403 319.394 145.857C322.741 145.485 326.194 144.954 329.751 144.267V179H359.918ZM430.323 139.427V115.128H400.463V100.962H439.45V76.0109H370.297V179H439.45V154.05H400.463V139.427H430.323ZM559.832 179V76.0109H539.012C537.998 76.0109 537.07 76.0338 536.234 76.083L536.227 76.0834L536.22 76.0839C535.178 76.149 534.14 76.3503 533.143 76.7339C531.997 77.1744 531.013 77.8545 530.185 78.682C529.36 79.5076 528.706 80.5207 528.17 81.5381L528.157 81.5634L503.792 129.512C503.313 130.379 502.847 131.268 502.394 132.176C501.995 131.352 501.586 130.541 501.166 129.744L501.152 129.717L476.718 81.5644L476.704 81.5381C476.169 80.5217 475.498 79.5128 474.628 78.6827C473.826 77.8391 472.858 77.1669 471.732 76.7339C470.71 76.3409 469.642 76.1464 468.582 76.0834C467.782 76.0336 466.871 76.0109 465.863 76.0109H445.042V179H472.47V129.011L489.687 162.422C490.767 164.521 492.296 166.265 494.316 167.478L494.341 167.492L494.365 167.507C496.376 168.674 498.601 169.221 500.938 169.221H503.937C506.261 169.221 508.479 168.679 510.468 167.493C512.527 166.29 514.092 164.548 515.185 162.426L515.187 162.422L532.404 129.1V179H559.832ZM166.066 228.376L166.114 228.423L166.162 228.469C167.039 229.288 167.694 230.275 168.137 231.485C168.607 232.768 168.872 234.272 168.872 236.044C168.872 240.28 167.795 243.02 166.148 244.809C164.712 246.368 161.922 247.626 156.703 247.626H149.229V225.505H156.703C159.17 225.505 161.093 225.816 162.561 226.326L162.573 226.331L162.586 226.335C164.147 226.867 165.263 227.573 166.066 228.376ZM174.964 269.705L174.974 269.702L174.984 269.698C180.227 267.951 184.716 265.486 188.331 262.222C191.929 258.974 194.614 255.058 196.359 250.519C198.076 246.055 198.908 241.215 198.908 236.044C198.908 231.197 198.09 226.613 196.417 222.331C194.703 217.947 192.029 214.148 188.449 210.962C184.87 207.74 180.399 205.324 175.169 203.625C169.873 201.846 163.688 201.011 156.703 201.011H119.193V304H149.229V272.25H156.703C163.568 272.25 169.68 271.434 174.964 269.705ZM216.714 296.615L221.431 282.682H251.812L256.554 296.687L256.623 296.844C257.493 298.833 258.794 300.523 260.505 301.854L260.542 301.883L260.58 301.911C262.628 303.428 265.084 304 267.589 304H326.726C332.76 304 338.28 303.218 343.235 301.582C348.131 299.966 352.392 297.666 355.932 294.624L355.944 294.614L355.956 294.603C359.487 291.52 362.191 287.818 364.037 283.531C365.928 279.196 366.844 274.475 366.844 269.424C366.844 265.4 366.097 261.539 364.592 257.874C363.024 254.01 360.529 250.686 357.202 247.911C353.83 245.054 349.583 242.903 344.612 241.354C339.547 239.763 333.554 239.02 326.726 239.02H317.947V225.505H363.193V201.011H287.911V297.292L250.641 201.011H222.602L182.735 304H205.784C208.339 304 210.776 303.317 212.819 301.711L212.826 301.706L212.834 301.7C214.52 300.363 215.89 298.713 216.679 296.704L216.714 296.615ZM236.142 239.178C236.308 238.756 236.476 238.317 236.645 237.862C236.799 238.27 236.951 238.666 237.102 239.049L244.085 259.687H229.22L236.142 239.178ZM335.382 277.017L335.38 277.02C334.888 277.532 334.034 278.114 332.58 278.621C331.283 279.073 329.38 279.376 326.726 279.376H317.947V263.645H326.726C329.399 263.645 331.332 263.929 332.659 264.361L332.699 264.374L332.74 264.386C334.141 264.81 334.933 265.339 335.38 265.805L335.436 265.864L335.495 265.92C336.044 266.447 336.409 267.06 336.615 267.84C336.907 268.941 337.069 270.201 337.069 271.641C337.069 272.815 336.918 273.905 336.631 274.926C336.433 275.629 336.052 276.321 335.382 277.017ZM457.699 289.906L457.706 289.899L457.713 289.892C462.397 285.113 466.007 279.514 468.543 273.133C471.139 266.712 472.417 259.812 472.417 252.473C472.417 245.175 471.137 238.297 468.543 231.88C466.006 225.495 462.392 219.911 457.699 215.171C452.993 210.416 447.34 206.716 440.799 204.051C434.215 201.306 426.973 199.968 419.13 199.968C411.288 199.968 404.031 201.284 397.411 203.979C390.866 206.644 385.193 210.342 380.444 215.091L380.437 215.098L380.43 215.105C375.738 219.844 372.105 225.425 369.524 231.806L369.519 231.818L369.515 231.83C366.967 238.247 365.712 245.141 365.712 252.473C365.712 259.805 366.967 266.7 369.515 273.117L369.519 273.128L369.524 273.14C372.103 279.518 375.733 285.114 380.416 289.892L380.43 289.906L380.444 289.92C385.193 294.669 390.866 298.368 397.411 301.032C404.031 303.727 411.288 305.044 419.13 305.044C426.968 305.044 434.205 303.729 440.785 301.032C447.332 298.366 452.989 294.664 457.699 289.906ZM440.227 241.051L440.231 241.064C441.295 244.333 441.86 248.12 441.86 252.473C441.86 256.867 441.296 260.699 440.231 264.014C439.161 267.299 437.653 269.974 435.756 272.122L435.743 272.136L435.731 272.15C433.893 274.271 431.628 275.911 428.878 277.072C426.137 278.187 422.911 278.789 419.13 278.789C415.305 278.789 412.031 278.186 409.243 277.069C406.496 275.907 404.206 274.265 402.321 272.136C400.462 269.987 398.971 267.307 397.899 264.014C396.833 260.699 396.269 256.867 396.269 252.473C396.269 248.12 396.834 244.333 397.898 241.064L397.902 241.051C398.977 237.712 400.469 235.016 402.321 232.875C404.21 230.741 406.507 229.096 409.262 227.934C412.044 226.78 415.309 226.157 419.13 226.157C422.905 226.157 426.123 226.779 428.856 227.93C431.617 229.092 433.888 230.735 435.731 232.861L435.743 232.875L435.756 232.89C437.646 235.03 439.155 237.72 440.227 241.051ZM524.623 226.483H551.353V201.011H467.856V226.483H494.587V304H524.623V226.483ZM566.502 296.615L571.219 282.682H601.6L606.342 296.687L606.411 296.844C607.281 298.833 608.582 300.523 610.293 301.854L610.33 301.883L610.368 301.911C612.416 303.428 614.872 304 617.377 304H640.296L600.429 201.011H572.39L532.523 304H555.572C558.127 304 560.564 303.317 562.607 301.711L562.614 301.706L562.622 301.7C564.308 300.363 565.678 298.713 566.467 296.704L566.502 296.615ZM585.93 239.177C586.096 238.755 586.264 238.317 586.433 237.862C586.587 238.27 586.739 238.666 586.89 239.048L593.873 259.687H579.008L585.93 239.177ZM678.188 226.483H704.918V201.011H621.422V226.483H648.152V304H678.188V226.483ZM755.586 277.017L755.584 277.02C755.092 277.532 754.238 278.114 752.784 278.621C751.488 279.073 749.585 279.376 746.93 279.376H738.151V263.645H746.93C749.604 263.645 751.537 263.929 752.863 264.361L752.903 264.374L752.944 264.386C754.345 264.81 755.137 265.339 755.584 265.805L755.64 265.864L755.699 265.92C756.248 266.447 756.613 267.06 756.819 267.84C757.111 268.941 757.273 270.201 757.273 271.641C757.273 272.815 757.122 273.905 756.835 274.926C756.638 275.629 756.256 276.321 755.586 277.017ZM776.136 294.624L776.148 294.614L776.16 294.603C779.692 291.519 782.396 287.817 784.242 283.528C786.133 279.195 787.048 274.474 787.048 269.424C787.048 265.4 786.301 261.539 784.796 257.874C783.228 254.01 780.733 250.686 777.406 247.911C774.032 245.052 769.783 242.901 764.809 241.352C759.746 239.762 753.755 239.02 746.93 239.02H738.151V201.011H708.115V304H746.93C752.964 304 758.484 303.218 763.439 301.582C768.335 299.966 772.596 297.666 776.136 294.624ZM764.809 241.352L764.819 241.355L763.62 245.171L764.809 241.352ZM777.406 247.911L777.421 247.924L774.833 250.974L777.394 247.901L777.406 247.911ZM784.796 257.874L784.799 257.881L781.092 259.384L784.792 257.863L784.796 257.874ZM784.242 283.528L784.236 283.542L780.571 281.941L784.245 283.522L784.242 283.528ZM187.215 396.422C188.259 396.422 189.259 396.632 190.191 397.004C191.356 397.421 192.322 398.112 193.107 398.897L193.143 398.933L204.267 410.638L202.192 413.349C197.958 418.882 192.619 423.084 186.229 425.919L186.216 425.924C179.86 428.717 172.485 430.044 164.201 430.044C156.533 430.044 149.514 428.749 143.21 426.075L143.194 426.068L143.177 426.06C137.007 423.376 131.699 419.674 127.304 414.945L127.29 414.93L127.276 414.914C122.943 410.153 119.639 404.562 117.344 398.192L117.34 398.183C115.041 391.755 113.912 384.841 113.912 377.473C113.912 369.951 115.136 362.956 117.639 356.532C120.123 350.112 123.641 344.521 128.21 339.809C132.785 335.091 138.251 331.442 144.558 328.853C150.915 326.244 157.849 324.968 165.309 324.968C169.105 324.968 172.717 325.314 176.134 326.023C179.527 326.676 182.725 327.613 185.717 328.846C188.701 330.032 191.475 331.488 194.026 333.222C196.531 334.923 198.784 336.788 200.769 338.822L203.156 341.266L193.651 354.022L193.62 354.062C192.938 354.93 192.151 355.711 191.278 356.409L191.213 356.462L191.145 356.511C189.56 357.674 187.697 358.003 186.041 358.003C184.642 358.003 183.29 357.686 182.036 357.059C181.223 356.653 180.385 356.183 179.522 355.656L179.455 355.614L179.389 355.571C178.677 355.096 177.87 354.591 176.965 354.056L176.872 354.001L176.781 353.941C176.19 353.547 175.38 353.135 174.298 352.738L174.221 352.71L174.146 352.679C173.185 352.281 171.947 351.912 170.392 351.601L170.373 351.597C169.013 351.318 167.295 351.157 165.179 351.157C162.035 351.157 159.25 351.734 156.768 352.832C154.338 353.925 152.208 355.531 150.363 357.702C148.588 359.797 147.126 362.479 146.042 365.842C145.017 369.111 144.47 372.971 144.47 377.473C144.47 381.982 145.073 385.846 146.201 389.124C147.402 392.489 148.964 395.217 150.836 397.384C152.771 399.53 154.979 401.135 157.476 402.241C159.985 403.352 162.69 403.919 165.635 403.919C167.5 403.919 169.166 403.839 170.641 403.686C172.058 403.497 173.351 403.221 174.527 402.869C175.67 402.484 176.731 402.003 177.716 401.43C178.731 400.796 179.811 399.976 180.953 398.948L181.01 398.897L181.068 398.848C181.851 398.196 182.711 397.658 183.645 397.247C184.754 396.712 185.956 396.422 187.215 396.422ZM325.741 422.397V326.011H295.575V365.715H264.979V326.011H234.813V429H264.979V388.84H295.575V429H346.234C348.789 429 351.226 428.317 353.269 426.711L353.276 426.706L353.284 426.7C354.97 425.363 356.34 423.713 357.129 421.704L357.164 421.615L361.881 407.682H392.262L397.004 421.687L397.073 421.844C397.943 423.833 399.244 425.523 400.955 426.854L400.992 426.883L401.03 426.911C403.078 428.428 405.534 429 408.039 429H455.79V379.011L473.007 412.422C474.086 414.521 475.615 416.265 477.635 417.478L477.66 417.492L477.685 417.507C479.695 418.674 481.92 419.221 484.257 419.221H487.256C489.58 419.221 491.798 418.68 493.786 417.493C495.847 416.291 497.412 414.547 498.505 412.424L498.506 412.422L515.723 379.1V429H543.151V326.011H522.331C521.318 326.011 520.389 326.034 519.553 326.083L519.546 326.083L519.539 326.084C518.497 326.149 517.459 326.35 516.462 326.734C515.316 327.174 514.332 327.854 513.505 328.682C512.679 329.508 512.025 330.521 511.489 331.538L511.476 331.563L487.111 379.511C486.633 380.379 486.167 381.268 485.713 382.176C485.314 381.352 484.905 380.541 484.485 379.744L484.472 379.717L460.037 331.564L460.023 331.538C459.488 330.522 458.817 329.513 457.947 328.683C457.146 327.839 456.177 327.167 455.051 326.734C454.029 326.341 452.961 326.146 451.902 326.083C451.101 326.034 450.19 326.011 449.182 326.011H428.361V422.292L391.091 326.011H363.052L325.741 422.397ZM377.095 362.862C377.249 363.27 377.401 363.666 377.552 364.048L384.535 384.687H369.67L376.592 364.177C376.69 363.927 376.789 363.671 376.889 363.41C376.957 363.23 377.026 363.047 377.095 362.862ZM644.46 429V326.011H623.835C622.278 326.011 620.763 326.306 619.321 326.895C618.033 327.422 616.837 328.121 615.737 328.981C614.703 329.749 613.754 330.621 612.891 331.591L612.849 331.639L612.808 331.688C612.045 332.604 611.363 333.544 610.773 334.51L610.753 334.542L583.698 380.775V326.011H553.531V429H574.156C575.713 429 577.228 428.706 578.67 428.116C579.928 427.601 581.108 426.94 582.201 426.134L582.254 426.095L582.307 426.054C583.326 425.249 584.251 424.356 585.076 423.374C585.89 422.452 586.61 421.496 587.218 420.502L587.238 420.469L614.293 374.237V429H644.46ZM651.105 335.616L648.388 337.892L655.609 348.989C657.249 351.79 659.948 353.309 663.193 353.309C664.825 353.309 666.335 352.828 667.674 352.053C668.435 351.612 669.337 351.12 670.384 350.576L670.409 350.562L670.435 350.549C671.293 350.087 672.37 349.637 673.698 349.218C674.763 348.895 676.271 348.68 678.318 348.68C680.622 348.68 681.89 349.268 682.646 349.966L682.685 350.002L682.725 350.037C683.478 350.696 683.967 351.6 683.967 353.22C683.967 354.846 683.599 356.035 683.02 356.952L683.012 356.964L683.005 356.976C682.215 358.247 681.225 359.436 680.015 360.543C678.675 361.724 677.229 362.854 675.677 363.93C673.823 365.168 672.116 366.514 670.562 367.97C668.875 369.549 667.517 371.37 666.515 373.423C665.294 375.879 665.057 378.586 665.495 381.322L667.395 395.229H687.986L690.443 382.945C690.565 382.435 690.84 381.894 691.422 381.305C692.4 380.368 693.555 379.403 694.9 378.414L694.908 378.408L694.916 378.402C696.466 377.251 698.077 376.015 699.749 374.695C701.718 373.178 703.491 371.398 705.072 369.373C706.737 367.238 708.074 364.794 709.111 362.079L709.115 362.068L709.119 362.057C710.239 359.071 710.743 355.706 710.743 352.047C710.743 348.09 710.026 344.385 708.519 340.995C707.073 337.6 704.965 334.681 702.209 332.284C699.454 329.845 696.164 328.034 692.422 326.802C688.687 325.557 684.578 324.968 680.143 324.968C677.004 324.968 674.022 325.248 671.21 325.828C668.501 326.352 665.928 327.118 663.5 328.135C661.138 329.082 658.902 330.2 656.798 331.491L656.78 331.502L656.763 331.513C654.747 332.779 652.86 334.145 651.105 335.616ZM662.872 408.75L662.85 408.8L662.829 408.85C662.044 410.721 661.67 412.707 661.67 414.765C661.67 416.823 662.044 418.814 662.812 420.704L662.84 420.775L662.872 420.844C663.67 422.612 664.745 424.19 666.101 425.547L666.131 425.577L666.162 425.607C667.585 426.97 669.234 428.024 671.075 428.772C672.99 429.549 675.028 429.913 677.144 429.913C679.231 429.913 681.246 429.544 683.148 428.772C684.989 428.024 686.639 426.97 688.061 425.607C689.498 424.23 690.609 422.608 691.383 420.772C692.211 418.868 692.619 416.853 692.619 414.765C692.619 412.684 692.214 410.68 691.374 408.8C690.6 406.973 689.492 405.359 688.061 403.988C686.651 402.637 685.018 401.59 683.197 400.843C681.286 400.015 679.253 399.616 677.144 399.616C675.008 399.616 672.952 400.009 671.026 400.843C669.205 401.59 667.572 402.637 666.162 403.988L666.131 404.018L666.101 404.048C664.745 405.404 663.67 406.983 662.872 408.75Z" fill="white"></path></svg> 