<?xml version="1.0" encoding="UTF-8"?>
<svg width="1743px" height="572px" viewBox="0 0 1743 572" version="1.1" xmlns="http://www.w3.org/2000/svg" xmlns:xlink="http://www.w3.org/1999/xlink">
    <title>Untitled 2</title>
    <g id="Page-1" stroke="none" stroke-width="1" fill="none" fill-rule="evenodd">
        <path d="M1743,0 L1743,572 L0,572 L0,0 L1743,0 Z M338.883302,323.126694 C310.347375,323.126694 287.587603,337.847249 275.518027,360.487379 L275.518027,360.487379 L275.518027,326.311974 L260.775901,326.311974 L260.775901,532.483495 L275.518027,532.483495 L275.518027,439.426537 C287.587603,462.066667 310.261164,476.787055 338.883302,476.787055 C381.040607,476.787055 415.266477,443.472492 415.266477,399.913916 C415.266477,356.35534 381.040607,323.040777 338.883302,323.126694 Z M603.551866,323.040777 C560.446237,323.040777 525.961733,356.35534 525.961733,399.913916 C525.961733,443.472492 560.446237,476.700971 603.551866,476.787055 C646.31265,476.787055 680.797154,443.472492 680.797154,399.913916 C680.797154,356.269256 646.31265,323.040777 603.551866,323.040777 Z M1036.59102,323.040777 C993.485389,323.040777 959.000886,356.35534 959.000886,399.913916 C959.000886,443.472492 993.485389,476.700971 1036.59102,476.787055 C1079.3518,476.787055 1113.83631,443.472492 1113.83631,399.913916 C1113.83631,356.269256 1079.3518,323.040777 1036.59102,323.040777 Z M1385.05693,323.040777 C1341.9513,323.040777 1307.46679,356.35534 1307.46679,399.913916 C1307.46679,443.472492 1341.9513,476.700971 1385.05693,476.787055 C1427.81771,476.787055 1462.30221,443.472492 1462.30221,399.913916 C1462.30221,356.269256 1427.81771,323.040777 1385.05693,323.040777 Z M1177.97748,284.991586 L1162.89051,289.381877 L1162.89051,326.22589 L1130.47508,326.22589 L1130.47508,340.688026 L1162.89051,340.688026 L1162.89051,436.413592 C1162.89051,469.986408 1183.23637,479.369579 1221.85901,473.515858 L1221.85901,473.515858 L1221.85901,460.2589 C1191.77128,462.927508 1177.89127,462.324919 1177.89127,436.413592 L1177.89127,436.413592 L1177.89127,340.688026 L1221.94522,340.688026 L1221.94522,326.22589 L1177.97748,326.22589 L1177.97748,284.991586 Z M515.012903,324.245955 C494.92568,324.245955 475.786781,331.907443 465.786275,355.150162 L465.786275,355.150162 L465.786275,326.311974 L451.044149,326.311974 L451.044149,473.515858 L465.786275,473.515858 L465.786275,391.649838 C465.786275,353.944984 489.666793,338.363754 515.012903,338.363754 L515.012903,338.363754 Z M1565.23846,323.126623 C1542.5649,323.126623 1523.68463,332.510032 1512.47717,354.28932 L1512.47717,354.28932 L1512.47717,326.311974 L1497.73504,326.311974 L1497.73504,473.515858 L1512.47717,473.515858 L1512.47717,395.781877 C1512.47717,356.011003 1535.15073,337.158576 1564.0315,337.158576 C1591.79152,337.158576 1607.39576,354.805825 1607.39576,381.92233 L1607.39576,381.92233 L1607.39576,473.515858 L1622.48273,473.515858 L1622.48273,381.92233 C1622.48273,346.283495 1600.32644,323.040777 1565.23846,323.126623 Z M1272.03397,326.311974 L1257.29184,326.311974 L1257.29184,473.515858 L1272.03397,473.515858 L1272.03397,326.311974 Z M873.737951,323.040777 C853.995572,323.040777 835.115307,332.510032 824.511322,353.084142 C816.83852,333.629126 800.027324,323.040777 778.47451,323.040777 C759.594244,323.040777 741.834725,331.304854 730.972106,351.620712 L730.972106,351.620712 L730.972106,326.311974 L716.229981,326.311974 L716.229981,473.515858 L730.972106,473.515858 L730.972106,391.391586 C730.972106,353.686731 752.524921,337.24466 776.664073,337.24466 C799.423846,337.24466 814.424605,352.223301 814.424605,380.200647 L814.424605,380.200647 L814.424605,473.515858 L829.16673,473.515858 L829.16673,391.391586 C829.16673,353.686731 848.650474,337.24466 873.393106,337.24466 C896.411512,337.24466 912.619228,352.223301 912.619228,380.200647 L912.619228,380.200647 L912.619228,473.515858 L927.361354,473.515858 L927.361354,380.200647 C927.361354,343.356634 904.946426,323.040777 873.737951,323.040777 Z M338.021189,337.24466 C373.109171,337.24466 400.524352,364.87767 400.524352,399.913916 C400.524352,434.950162 373.109171,462.583172 338.021189,462.669256 C302.933207,462.669256 275.518027,434.950162 275.518027,399.913916 C275.518027,364.87767 302.933207,337.24466 338.021189,337.24466 Z M1384.97071,337.24466 C1420.14491,337.24466 1447.21524,364.87767 1447.21524,399.913916 C1447.21524,434.950162 1420.0587,462.583172 1384.97071,462.669256 C1349.88273,462.669256 1322.46755,434.950162 1322.46755,399.913916 C1322.46755,364.87767 1349.88273,337.24466 1384.97071,337.24466 Z M1036.50481,337.24466 C1071.679,337.24466 1098.74934,364.87767 1098.74934,399.913916 C1098.74934,434.950162 1071.679,462.583172 1036.50481,462.669256 C1001.41682,462.669256 974.001645,434.950162 974.001645,399.913916 C974.001645,364.87767 1001.41682,337.24466 1036.50481,337.24466 Z M603.465655,337.24466 C638.639848,337.24466 665.710183,364.87767 665.710183,399.913916 C665.710183,434.950162 638.553637,462.583172 603.465655,462.669256 C568.377672,462.669256 540.962492,434.950162 540.962492,399.913916 C540.962492,364.87767 568.377672,337.24466 603.465655,337.24466 Z M1264.6198,267.430421 C1258.15395,267.430421 1252.80886,272.681553 1252.80886,278.879612 C1252.80886,285.335922 1258.15395,290.673139 1264.6198,290.673139 C1271.08564,290.673139 1276.43074,285.335922 1276.43074,278.879612 C1276.43074,272.767638 1271.08564,267.430421 1264.6198,267.430421 Z M429.015537,105.010236 C384.471751,105.010236 351.473164,138.377559 351.473164,182.005118 C351.473164,225.718898 384.471751,259 429.015537,259 C457.878531,259 482.605932,244.256299 494.581921,221.407874 L494.581921,221.407874 L482.175141,214.079134 C472.439266,232.357874 452.967514,244.773622 429.101695,244.773622 C393.432203,244.773622 366.637006,217.01063 366.637006,181.918898 C366.637006,146.827165 393.432203,119.150394 429.101695,119.150394 C452.622881,119.150394 472.69774,131.30748 481.227401,149.844882 L481.227401,149.844882 L493.289548,142.774803 C482.605932,119.753937 457.878531,105.010236 429.015537,105.010236 Z M248.858757,105.010236 C205.779661,105.010236 171.316384,138.377559 171.316384,182.005118 C171.316384,225.718898 205.779661,259 248.858757,259 C291.59322,259 326.056497,225.632677 326.056497,182.005118 C326.056497,138.291339 291.59322,105.010236 248.858757,105.010236 Z M591.682203,104.924016 C549.809322,104.924016 515.346045,138.291339 515.346045,181.918898 C515.346045,225.632677 549.809322,258.91378 591.682203,258.91378 C619.94209,258.91378 642.687853,244.514961 655.008475,222.356299 L655.008475,222.356299 L655.008475,255.723622 L670.086158,255.723622 L670.086158,108.200394 L655.008475,108.200394 L655.008475,141.481496 C642.687853,119.409055 619.94209,104.924016 591.682203,104.924016 Z M730.310734,40.5173228 L715.577684,40.5173228 L715.577684,255.809843 L730.310734,255.809843 L730.310734,40.5173228 Z M135.991525,40.5173228 L121.258475,40.5173228 L121.258475,255.809843 L135.991525,255.809843 L135.991525,40.5173228 Z M592.888418,119.236614 C628.04096,119.236614 655.094633,146.913386 655.094633,182.005118 C655.094633,217.09685 627.954802,244.859843 592.888418,244.859843 C557.822034,244.859843 530.423729,217.09685 530.423729,182.005118 C530.423729,146.913386 557.822034,119.236614 592.888418,119.236614 Z M248.772599,119.236614 C283.925141,119.236614 310.978814,146.913386 310.978814,182.005118 C310.978814,217.09685 283.925141,244.859843 248.772599,244.859843 C213.706215,244.859843 186.30791,217.09685 186.30791,182.005118 C186.30791,146.913386 213.706215,119.236614 248.772599,119.236614 Z" id="Combined-Shape" fill="#FFFFFF"></path>
    </g>
</svg>