<svg id="Capa_1" enable-background="new 0 0 511 511" height="512" viewBox="0 0 511 511" width="512" xmlns="http://www.w3.org/2000/svg" xmlns:xlink="http://www.w3.org/1999/xlink"><linearGradient id="SVGID_1_" gradientUnits="userSpaceOnUse" x1="255.5" x2="255.5" y1="7" y2="504"><stop offset=".00000083866" stop-color="#96d1f3"/><stop offset="1" stop-color="#ccfff4"/></linearGradient><linearGradient id="lg1"><stop offset=".00000036422" stop-color="#a8abff"/><stop offset="1" stop-color="#fac8ff"/></linearGradient><linearGradient id="SVGID_2_" gradientUnits="userSpaceOnUse" x1="398.5" x2="398.5" xlink:href="#lg1" y1="7.5" y2="261.5"/><linearGradient id="SVGID_3_" gradientUnits="userSpaceOnUse" x1="150.5" x2="150.5" xlink:href="#lg1" y1="163.5" y2="417.5"/><linearGradient id="SVGID_4_" gradientUnits="userSpaceOnUse" x1="255.5" x2="255.5" y1="0" y2="511"><stop offset=".00000011981" stop-color="#174fa3"/><stop offset="1" stop-color="#b044af"/></linearGradient><g><g><circle cx="255.5" cy="255.5" fill="url(#SVGID_1_)" r="248.5"/><g fill="#fff"><path d="m318.5 236.5 6 65 52 8 50 41 65.16-17.506c7.998-24.387 12.34-50.432 12.34-77.494 0-96.218-54.689-179.657-134.673-220.947l-90.827 158.947z"/><path d="m228.5 415.5 36-30-39.754-42.754-10.246-156.246 12-46-35-48-58-3-43 45-61.082 17.733c-14.389 31.451-22.418 66.42-22.418 103.267 0 106.653 67.195 197.6 161.554 232.85l47.946-26.85z"/><path d="m310.5 432.5-15.631 68.384c58.88-9.373 110.868-39.417 148.28-82.474l-73.649-18.91z"/></g><path d="m398.5 7.5c-57.99 0-105 47.01-105 105 0 26.872 10.251 53.744 30.754 74.246l74.246 74.754 74.246-74.754c20.503-20.502 30.754-47.374 30.754-74.246 0-57.99-47.01-105-105-105zm0 180c-41.421 0-75-33.579-75-75s33.579-75 75-75 75 33.579 75 75-33.579 75-75 75z" fill="url(#SVGID_2_)"/><path d="m150.5 163.5c-57.99 0-105 47.01-105 105 0 26.872 10.251 53.744 30.754 74.246l74.246 74.754 74.246-74.754c20.503-20.502 30.754-47.374 30.754-74.246 0-57.99-47.01-105-105-105zm0 180c-41.421 0-75-33.579-75-75s33.579-75 75-75 75 33.579 75 75-33.579 75-75 75z" fill="url(#SVGID_3_)"/></g><path d="m511 112.5c0-62.032-50.468-112.5-112.5-112.5-20.494 0-39.724 5.512-56.291 15.126-27.786-10.029-56.936-15.126-86.709-15.126-68.247 0-132.408 26.576-180.666 74.834s-74.834 112.419-74.834 180.666 26.576 132.408 74.834 180.666 112.419 74.834 180.666 74.834 132.408-26.576 180.666-74.834 74.834-112.419 74.834-180.666c0-29.746-5.087-58.867-15.097-86.627 9.844-16.945 15.097-36.254 15.097-56.373zm-112.5-97.5c53.762 0 97.5 43.738 97.5 97.5 0 26.044-10.142 50.528-28.503 68.89l-68.997 67.609-68.967-67.58c-18.4-18.412-28.533-42.886-28.533-68.919 0-53.762 43.738-97.5 97.5-97.5zm-383.5 240.5c0-34.59 7.354-67.49 20.558-97.24l58.97-17.121 42.019-43.972 50.998 2.638 30.801 42.241-8.127 31.155c-17.318-10.89-37.794-17.201-59.719-17.201-62.032 0-112.5 50.468-112.5 112.5 0 30.051 11.702 58.302 32.951 79.55l79.549 77.951 73.996-72.51 29.119 31.316-31.765 26.471-11.802 45.238-41.469 23.223c-89.777-34.919-153.579-122.263-153.579-224.239zm233 13c0 26.044-10.142 50.528-28.503 68.89l-68.997 67.609-68.967-67.58c-18.4-18.412-28.533-42.886-28.533-68.919 0-53.762 43.738-97.5 97.5-97.5s97.5 43.738 97.5 97.5zm56.845 222.401 12.225-53.482 53.473-29.908 57.954 14.88c-32.862 34.051-75.647 58.46-123.652 68.51zm134.969-81.091-71.356-18.321-64.527 36.092-15.108 66.099c-10.895 1.517-22.016 2.32-33.323 2.32-23.549 0-46.311-3.418-67.835-9.756l35.286-19.76 12.198-46.762 40.235-33.529-40.382-43.43c18.103-20.541 27.998-46.639 27.998-74.263 0-34.324-15.457-65.102-39.77-85.754l11.424-43.793-39.199-53.759-65.002-3.362-43.981 46.028-41.876 12.158c40.926-74.447 120.117-125.018 210.904-125.018 24.398 0 48.346 3.638 71.388 10.8-24.959 20.652-40.888 51.85-40.888 86.7 0 13.889 2.505 27.392 7.292 39.998l-24.041 42.071 42.016 45.166 6.304 68.287 55.761 8.578 51.394 42.143 54.344-14.6c-9.563 24.028-22.895 46.157-39.256 65.667zm56.186-154.31c0 24.878-3.797 48.886-10.843 71.475l-56.882 15.282-48.606-39.857-48.239-7.422-5.696-61.714-37.984-40.833 13.405-23.459c4.849 8.327 10.802 16.084 17.797 23.079l79.549 77.951 79.549-77.951c2.528-2.528 4.917-5.158 7.171-7.875 7.148 23.02 10.779 46.947 10.779 71.324zm-130-159c0-12.958 10.542-23.5 23.5-23.5h1.5v-14.5h15v14.5h17.5v15h-34c-4.687 0-8.5 3.813-8.5 8.5s3.813 8.5 8.5 8.5h18c12.958 0 23.5 10.542 23.5 23.5s-10.542 23.5-23.5 23.5h-1.5v14.5h-15v-14.5h-17.5v-15h34c4.687 0 8.5-3.813 8.5-8.5s-3.813-8.5-8.5-8.5h-18c-12.958 0-23.5-10.542-23.5-23.5zm32.5 98.5c45.49 0 82.5-37.01 82.5-82.5s-37.01-82.5-82.5-82.5-82.5 37.01-82.5 82.5 37.01 82.5 82.5 82.5zm0-150c37.22 0 67.5 30.28 67.5 67.5s-30.28 67.5-67.5 67.5-67.5-30.28-67.5-67.5 30.28-67.5 67.5-67.5zm-240.5 169.5v14.5h17.5v15h-34c-4.687 0-8.5 3.813-8.5 8.5s3.813 8.5 8.5 8.5h18c12.958 0 23.5 10.542 23.5 23.5s-10.542 23.5-23.5 23.5h-1.5v14.5h-15v-14.5h-17.5v-15h34c4.687 0 8.5-3.813 8.5-8.5s-3.813-8.5-8.5-8.5h-18c-12.958 0-23.5-10.542-23.5-23.5s10.542-23.5 23.5-23.5h1.5v-14.5zm-90 54c0 45.49 37.01 82.5 82.5 82.5s82.5-37.01 82.5-82.5-37.01-82.5-82.5-82.5-82.5 37.01-82.5 82.5zm150 0c0 37.22-30.28 67.5-67.5 67.5s-67.5-30.28-67.5-67.5 30.28-67.5 67.5-67.5 67.5 30.28 67.5 67.5z" fill="url(#SVGID_4_)"/></g></svg>