<?xml version="1.0" encoding="UTF-8"?>
<svg width="1743px" height="572px" viewBox="0 0 1743 572" version="1.1" xmlns="http://www.w3.org/2000/svg" xmlns:xlink="http://www.w3.org/1999/xlink">
    <title>Combined Shape</title>
    <g id="Page-1" stroke="none" stroke-width="1" fill="none" fill-rule="evenodd">
        <path d="M1743,0 L1743,572 L0,572 L0,0 L1743,0 Z M253.5,328.199807 C220.4,328.199807 194,345.3 180,371.6 L180,371.6 L180,331.9 L162.9,331.9 L162.9,571.4 L180,571.4 L180,463.3 C194,489.6 220.3,506.7 253.5,506.7 C302.4,506.7 342.1,468 342.1,417.4 C342.1,366.8 302.4,328.1 253.5,328.199807 Z M560.5,328.1 C510.5,328.1 470.5,366.8 470.5,417.4 C470.5,468 510.5,506.6 560.5,506.7 C610.1,506.7 650.1,468 650.1,417.4 C650.1,366.7 610.1,328.1 560.5,328.1 Z M1062.8,328.1 C1012.8,328.1 972.8,366.8 972.8,417.4 C972.8,468 1012.8,506.6 1062.8,506.7 C1112.4,506.7 1152.4,468 1152.4,417.4 C1152.4,366.7 1112.4,328.1 1062.8,328.1 Z M1467,328.1 C1417,328.1 1377,366.8 1377,417.4 C1377,468 1417,506.6 1467,506.7 C1516.6,506.7 1556.6,468 1556.6,417.4 C1556.6,366.7 1516.6,328.1 1467,328.1 Z M1226.8,283.9 L1209.3,289 L1209.3,331.8 L1171.7,331.8 L1171.7,348.6 L1209.3,348.6 L1209.3,459.8 C1209.3,498.8 1232.9,509.7 1277.7,502.9 L1277.7,502.9 L1277.7,487.5 C1242.8,490.6 1226.7,489.9 1226.7,459.8 L1226.7,459.8 L1226.7,348.6 L1277.8,348.6 L1277.8,331.8 L1226.8,331.8 L1226.8,283.9 Z M457.8,329.5 C434.5,329.5 412.3,338.4 400.7,365.4 L400.7,365.4 L400.7,331.9 L383.6,331.9 L383.6,502.9 L400.7,502.9 L400.7,407.8 C400.7,364 428.4,345.9 457.8,345.9 L457.8,345.9 Z M1676,328.199723 C1649.7,328.199723 1627.8,339.1 1614.8,364.4 L1614.8,364.4 L1614.8,331.9 L1597.7,331.9 L1597.7,502.9 L1614.8,502.9 L1614.8,412.6 C1614.8,366.4 1641.1,344.5 1674.6,344.5 C1706.8,344.5 1724.9,365 1724.9,396.5 L1724.9,396.5 L1724.9,502.9 L1742.4,502.9 L1742.4,396.5 C1742.4,355.1 1716.7,328.1 1676,328.199723 Z M1335.9,331.9 L1318.8,331.9 L1318.8,502.9 L1335.9,502.9 L1335.9,331.9 Z M873.9,328.1 C851,328.1 829.1,339.1 816.8,363 C807.9,340.4 788.4,328.1 763.4,328.1 C741.5,328.1 720.9,337.7 708.3,361.3 L708.3,361.3 L708.3,331.9 L691.2,331.9 L691.2,502.9 L708.3,502.9 L708.3,407.5 C708.3,363.7 733.3,344.6 761.3,344.6 C787.7,344.6 805.1,362 805.1,394.5 L805.1,394.5 L805.1,502.9 L822.2,502.9 L822.2,407.5 C822.2,363.7 844.8,344.6 873.5,344.6 C900.2,344.6 919,362 919,394.5 L919,394.5 L919,502.9 L936.1,502.9 L936.1,394.5 C936.1,351.7 910.1,328.1 873.9,328.1 Z M252.5,344.6 C293.2,344.6 325,376.7 325,417.4 C325,458.1 293.2,490.2 252.5,490.3 C211.8,490.3 180,458.1 180,417.4 C180,376.7 211.8,344.6 252.5,344.6 Z M1466.9,344.6 C1507.7,344.6 1539.1,376.7 1539.1,417.4 C1539.1,458.1 1507.6,490.2 1466.9,490.3 C1426.2,490.3 1394.4,458.1 1394.4,417.4 C1394.4,376.7 1426.2,344.6 1466.9,344.6 Z M1062.7,344.6 C1103.5,344.6 1134.9,376.7 1134.9,417.4 C1134.9,458.1 1103.5,490.2 1062.7,490.3 C1022,490.3 990.2,458.1 990.2,417.4 C990.2,376.7 1022,344.6 1062.7,344.6 Z M560.4,344.6 C601.2,344.6 632.6,376.7 632.6,417.4 C632.6,458.1 601.1,490.2 560.4,490.3 C519.7,490.3 487.9,458.1 487.9,417.4 C487.9,376.7 519.7,344.6 560.4,344.6 Z M1327.3,263.5 C1319.8,263.5 1313.6,269.6 1313.6,276.8 C1313.6,284.3 1319.8,290.5 1327.3,290.5 C1334.8,290.5 1341,284.3 1341,276.8 C1341,269.7 1334.8,263.5 1327.3,263.5 Z M357.5,75.4 C305.8,75.4 267.5,114.1 267.5,164.7 C267.5,215.4 305.8,254 357.5,254 C391,254 419.7,236.9 433.6,210.4 L433.6,210.4 L419.2,201.9 C407.9,223.1 385.3,237.5 357.6,237.5 C316.2,237.5 285.1,205.3 285.1,164.6 C285.1,123.9 316.2,91.8 357.6,91.8 C384.9,91.8 408.2,105.9 418.1,127.4 L418.1,127.4 L432.1,119.2 C419.7,92.5 391,75.4 357.5,75.4 Z M148.4,75.4 C98.4,75.4 58.4,114.1 58.4,164.7 C58.4,215.4 98.4,254 148.4,254 C198,254 238,215.3 238,164.7 C238,114 198,75.4 148.4,75.4 Z M546.3,75.3 C497.7,75.3 457.7,114 457.7,164.6 C457.7,215.3 497.7,253.9 546.3,253.9 C579.1,253.9 605.5,237.2 619.8,211.5 L619.8,211.5 L619.8,250.2 L637.3,250.2 L637.3,79.1 L619.8,79.1 L619.8,117.7 C605.5,92.1 579.1,75.3 546.3,75.3 Z M707.2,0.6 L690.1,0.6 L690.1,250.3 L707.2,250.3 L707.2,0.6 Z M17.4,0.6 L0.3,0.6 L0.3,250.3 L17.4,250.3 L17.4,0.6 Z M547.7,91.9 C588.5,91.9 619.9,124 619.9,164.7 C619.9,205.4 588.4,237.6 547.7,237.6 C507,237.6 475.2,205.4 475.2,164.7 C475.2,124 507,91.9 547.7,91.9 Z M148.3,91.9 C189.1,91.9 220.5,124 220.5,164.7 C220.5,205.4 189.1,237.6 148.3,237.6 C107.6,237.6 75.8,205.4 75.8,164.7 C75.8,124 107.6,91.9 148.3,91.9 Z" id="Combined-Shape" fill="#FFFFFF"></path>
    </g>
</svg>