<?xml version="1.0" encoding="UTF-8"?>
<svg width="180px" height="57px" viewBox="0 0 180 57" version="1.1" xmlns="http://www.w3.org/2000/svg" xmlns:xlink="http://www.w3.org/1999/xlink">
    <title>Untitled</title>
    <g id="Page-1" stroke="none" stroke-width="1" fill="none" fill-rule="evenodd">
        <g id="logo-idea-2" fill-rule="nonzero">
            <path d="M35.4,53.5 L35.4,53.5 C34.6,54.9 33.4,55.8 31.9,56.2 C30.4,56.6 28.9,56.4 27.6,55.6 C23.9,53.4 25.4,48.2 19.9,45.7 C16.3,44.1 13.6,45.5 10.7,46.1 C6.1,47 1.6,44 1,39.1 C0.5,34.9 3.2,30.7 7.3,29.9 C9.8,29.4 12.5,29.8 15.6,28.2 C19.1,26.4 20.6,23.9 21.4,21.1 C22.6,16.4 21.6,10.8 23.9,6.6 C27.4,0.3 37.2,-1.1 42.3,4.5 C48.1,10.9 45.1,21.8 37.1,24.1 C33.7,25.1 29.9,24.5 26.5,25.2 C23.6,25.7 20.9,27.1 18.8,31 C16.4,35.4 16.7,40.3 20.9,43.5 C25.8,47.2 29.5,43.2 33.3,45.4 C34.6,46.2 35.6,47.4 35.9,48.9 C36.4,50.6 36.2,52.2 35.4,53.5 L35.4,53.5 Z" id="Path" fill="#0072BB"></path>
            <g id="Group" transform="translate(54.000000, 6.000000)" fill="#000000">
                <polygon id="Path" points="0.7 21.1 0.7 0.8 3.4 0.8 3.4 21.1"></polygon>
                <path d="M5.9,14.5 C5.9,12.5 6.6,10.9 8.1,9.5 C9.5,8.1 11.2,7.5 13.1,7.5 C14,7.5 14.9,7.7 15.8,8 C16.7,8.4 17.4,8.9 18.1,9.4 C18.8,10.1 19.4,10.8 19.7,11.7 C20.1,12.6 20.2,13.5 20.2,14.4 C20.2,15.3 20,16.2 19.7,17.1 C19.3,18 18.8,18.7 18.1,19.4 C17.4,20.1 16.7,20.7 15.8,20.8 C14.9,21.2 14,21.3 13.1,21.3 C11.1,21.3 9.5,20.6 8.1,19.3 C6.6,18.1 5.9,16.5 5.9,14.5 Z M8.8,14.5 C8.8,15.8 9.2,16.8 10.1,17.7 C11,18.6 11.9,19 13.2,19 C14.5,19 15.4,18.6 16.3,17.7 C17.2,16.8 17.6,15.7 17.6,14.5 C17.6,13.2 17.2,12.2 16.3,11.3 C15.4,10.4 14.5,10 13.2,10 C11.9,10 11,10.4 10.1,11.3 C9.1,12.1 8.8,13.2 8.8,14.5 Z" id="Shape"></path>
                <path d="M33.2,18.1 L33.2,20.8 C32.5,21 31.9,21.2 31.2,21.3 C30.5,21.5 29.9,21.5 29.2,21.5 C27,21.5 25.2,20.8 23.8,19.5 C22.5,18.1 21.8,16.4 21.8,14.5 C21.8,12.6 22.5,10.9 24,9.5 C25.4,8.2 27.2,7.5 29.2,7.5 C29.9,7.5 30.5,7.5 31.2,7.7 C31.9,7.9 32.5,8.1 33,8.2 L33,11.1 C32.5,10.7 31.7,10.4 31.2,10.2 C30.7,10 30,10 29.4,10 C28,10 26.9,10.4 26,11.3 C25.1,12.2 24.7,13.1 24.7,14.5 C24.7,15.8 25.1,16.8 26,17.7 C26.9,18.6 28,19 29.4,19 C30.1,19 30.7,19 31.4,18.8 C32,18.6 32.7,18.3 33.2,18.1 Z" id="Path"></path>
                <path d="M42.6,20.1 C41.9,20.6 41.3,21 40.6,21.2 C39.9,21.4 39.3,21.6 38.6,21.6 C37.3,21.6 36.4,21.2 35.7,20.7 C35,20.2 34.6,19.3 34.6,18.4 C34.6,17.5 35,16.6 35.7,15.9 C36.4,15.2 37.5,14.6 38.9,14.1 L42.1,13 L42.1,12.8 C42.1,12.8 42.1,12.6 42.1,12.4 C42.1,11.7 41.9,11 41.6,10.6 C41.2,10.2 40.5,10.1 39.6,10.1 C38.9,10.1 38.2,10.3 37.3,10.6 C36.6,11 35.7,11.3 35,12 L35,9.3 C35.7,8.8 36.4,8.4 37.3,8 C38.2,7.6 39.1,7.6 40,7.6 C41.8,7.6 43.1,8 43.8,8.7 C44.5,9.4 45.1,10.7 45.1,12.3 L45.1,18.1 C45.1,18.6 45.1,19 45.3,19.2 C45.3,19.4 45.5,19.6 45.7,19.6 C45.9,19.6 46.1,19.6 46.2,19.4 C46.4,19.4 46.7,19 47.1,18.9 L47.1,20.5 C46.6,20.9 46.2,21.2 45.7,21.4 C45.2,21.6 44.6,21.8 44.1,21.8 C43.6,21.8 43.2,21.6 43,21.4 C42.7,21.1 42.6,20.6 42.6,20.1 Z M42.4,18.4 L42.4,14.4 C40.6,14.9 39.3,15.5 38.6,16 C37.9,16.5 37.5,17.1 37.5,17.6 C37.5,18.1 37.7,18.5 38,18.9 C38.4,19.3 38.9,19.4 39.4,19.4 C39.9,19.4 40.3,19.4 40.8,19.2 C41.5,19.2 42,18.8 42.4,18.4 Z" id="Shape"></path>
                <polygon id="Path" points="48.7 21.1 48.7 0.8 51.4 0.8 51.4 21.1"></polygon>
            </g>
            <g id="Group" transform="translate(54.000000, 27.000000)">
                <path d="M0.7,24.8 L0.7,4.4 L3.4,4.4 L3.4,5.1 C3.9,4.7 4.5,4.6 5,4.4 C5.5,4.2 6.3,4.2 6.8,4.2 C8.8,4.2 10.4,4.9 11.5,6.2 C12.8,7.5 13.3,9.3 13.3,11.2 C13.3,13.2 12.8,15 11.5,16.2 C10.2,17.5 8.6,18.2 6.8,18.2 C6.1,18.2 5.5,18.2 5,18 C4.5,17.8 3.9,17.6 3.4,17.3 L3.4,24.9 L0.7,24.9 L0.7,24.8 L0.7,24.8 Z M3.4,7.5 L3.4,15.1 C3.8,15.5 4.3,15.6 4.7,15.8 C5.2,16 5.6,16 6.1,16 C7.5,16 8.6,15.6 9.3,14.7 C10,13.8 10.6,12.7 10.6,11.3 C10.6,9.9 10.2,8.8 9.3,7.9 C8.6,7 7.5,6.6 6.1,6.6 C5.6,6.6 5,6.6 4.7,6.8 C4.1,7 3.7,7.1 3.4,7.5 Z" id="Shape" fill="#000000"></path>
                <path d="M16,17.9 L16,4.4 L18.7,4.4 L18.7,7.3 C19.4,6 20.1,5.3 20.7,4.8 C21.2,4.3 22,4.1 22.7,4.1 C23.2,4.1 23.6,4.3 24.1,4.5 C24.6,4.7 25.2,5 25.7,5.4 L24.3,7.7 C23.9,7.3 23.4,7 23,6.8 C22.6,6.6 22.1,6.6 21.7,6.6 C21,6.6 20.3,7 19.7,7.5 C19.2,8 18.8,8.9 18.6,10 L18.6,17.6 L16,17.6 L16,17.9 Z" id="Path" fill="#000000"></path>
                <path d="M26.2,11.3 C26.2,9.3 26.9,7.7 28.4,6.3 C29.8,4.9 31.5,4.3 33.4,4.3 C34.3,4.3 35.2,4.5 36.1,4.8 C37,5.2 37.7,5.7 38.4,6.2 C39.1,6.9 39.7,7.6 40,8.5 C40.4,9.4 40.5,10.3 40.5,11.2 C40.5,12.1 40.4,13.1 40,14 C39.6,14.9 39.1,15.6 38.4,16.3 C37.7,17 37,17.6 36.1,17.7 C35.2,18.1 34.3,18.2 33.4,18.2 C31.4,18.2 29.8,17.5 28.4,16.2 C27,14.9 26.2,13.1 26.2,11.3 Z M28.9,11.3 C28.9,12.6 29.3,13.6 30.2,14.5 C31.1,15.4 32,15.8 33.3,15.8 C34.6,15.8 35.5,15.4 36.4,14.5 C37.3,13.6 37.7,12.5 37.7,11.3 C37.7,10.1 37.3,9 36.4,8.1 C35.5,7.2 34.6,6.8 33.3,6.8 C32,6.8 31.1,7.2 30.2,8.1 C29.4,8.9 28.9,10 28.9,11.3 Z" id="Shape" fill="#000000"></path>
                <path d="M42.9,17.9 L42.9,4.4 L45.6,4.4 L45.6,6 C46.3,5.3 46.9,4.9 47.6,4.6 C48.3,4.2 49,4.2 49.8,4.2 C50.7,4.2 51.6,4.4 52.3,4.7 C53,5 53.6,5.6 53.9,6.5 C54.8,5.6 55.5,5.1 56.2,4.7 C56.9,4.3 57.6,4.2 58.5,4.2 C59.9,4.2 61.2,4.6 61.9,5.5 C62.8,6.4 63.2,7.5 63.2,8.9 L63.2,17.7 L60.5,17.7 L60.5,9.6 C60.5,8.5 60.3,7.6 59.8,7.3 C59.3,6.8 58.7,6.6 57.6,6.6 C56.9,6.6 56.3,6.8 55.8,7 C55.3,7.2 54.7,7.7 54.4,8.3 L54.4,18 L51.7,18 L51.7,9.7 C51.7,8.6 51.5,7.9 51,7.4 C50.5,6.9 49.7,6.7 48.8,6.7 C48.1,6.7 47.5,6.9 47,7.1 C46.5,7.3 45.9,7.8 45.6,8.4 L45.6,18.1 C45.6,17.9 42.9,17.9 42.9,17.9 Z" id="Path" fill="#000000"></path>
                <path d="M65.8,11.3 C65.8,9.3 66.5,7.7 68,6.3 C69.4,4.9 71.1,4.3 73,4.3 C73.9,4.3 74.8,4.5 75.7,4.8 C76.6,5.2 77.3,5.7 78,6.2 C78.7,6.9 79.3,7.6 79.6,8.5 C80,9.4 80.1,10.3 80.1,11.2 C80.1,12.1 79.9,13 79.6,13.9 C79.2,14.8 78.7,15.5 78,16.2 C77.3,16.9 76.6,17.5 75.7,17.6 C74.8,18 73.9,18.1 73,18.1 C71,18.1 69.4,17.4 68,16.1 C66.5,14.9 65.8,13.1 65.8,11.3 Z M68.5,11.3 C68.5,12.6 68.9,13.6 69.8,14.5 C70.7,15.4 71.6,15.8 72.9,15.8 C74.2,15.8 75.1,15.4 76,14.5 C76.9,13.6 77.3,12.5 77.3,11.3 C77.3,10.1 76.9,9 76,8.1 C75.1,7.2 74.2,6.8 72.9,6.8 C71.6,6.8 70.7,7.2 69.8,8.1 C69,8.9 68.5,10 68.5,11.3 Z" id="Shape" fill="#000000"></path>
                <path d="M89.9,17.6 C89.5,17.8 89,18 88.6,18.1 C88.2,18.3 87.5,18.3 87,18.3 C85.6,18.3 84.5,17.9 83.8,17.2 C83.1,16.5 82.9,15 82.9,13.2 L82.9,7 L80.6,7 L80.6,6.8 L85.3,1.6 L85.7,1.6 L85.7,4.7 L89.8,4.7 L89.8,7 L85.7,7 L85.7,13.1 C85.7,14.2 85.9,14.9 86.1,15.3 C86.5,15.7 86.8,15.8 87.7,15.8 C88.1,15.8 88.4,15.8 89,15.6 C89.5,15.4 89.7,15.2 90.1,15.1 L89.9,17.6 L89.9,17.6 Z" id="Path" fill="#000000"></path>
                <polygon id="Shape" fill="#000000" points="92.2 17.9 92.2 4.4 94.9 4.4 94.9 17.9"></polygon>
                <path d="M97.4,11.3 C97.4,9.3 98.1,7.7 99.6,6.3 C101,4.9 102.7,4.3 104.6,4.3 C105.5,4.3 106.4,4.5 107.3,4.8 C108.2,5.2 108.9,5.7 109.6,6.2 C110.3,6.9 110.9,7.6 111.2,8.5 C111.6,9.4 111.7,10.3 111.7,11.2 C111.7,12.1 111.5,13 111.2,13.9 C110.8,14.8 110.3,15.5 109.6,16.2 C108.9,16.9 108.2,17.5 107.3,17.6 C106.4,18 105.5,18.1 104.6,18.1 C102.6,18.1 101,17.4 99.6,16.1 C98.2,14.8 97.4,13.1 97.4,11.3 Z M100.3,11.3 C100.3,12.6 100.7,13.6 101.6,14.5 C102.5,15.4 103.4,15.8 104.7,15.8 C106,15.8 106.9,15.4 107.8,14.5 C108.7,13.6 109.1,12.5 109.1,11.3 C109.1,10.1 108.7,9 107.8,8.1 C106.9,7.2 106,6.8 104.7,6.8 C103.4,6.8 102.5,7.2 101.6,8.1 C100.6,8.9 100.3,10 100.3,11.3 Z" id="Shape" fill="#000000"></path>
                <path d="M114.3,17.9 L114.3,4.4 L117,4.4 L117,6 C117.7,5.3 118.3,4.9 119,4.6 C119.7,4.2 120.4,4.2 121.2,4.2 C122.6,4.2 123.7,4.6 124.6,5.5 C125.5,6.4 125.9,7.5 125.9,8.9 L125.9,17.7 L123.2,17.7 L123.2,9.6 C123.2,8.5 123,7.8 122.5,7.3 C122,6.8 121.2,6.6 120.3,6.6 C119.6,6.6 119,6.8 118.5,7 C118,7.2 117.4,7.7 117.1,8.3 L117.1,18 C117,17.9 114.3,17.9 114.3,17.9 Z" id="Path" fill="#000000"></path>
                <path d="M92,1.5 C92,1.1 92.2,0.8 92.4,0.4 C92.8,0 93.1,0 93.5,0 C93.9,0 94.2,0.2 94.6,0.4 C95,0.8 95,1.1 95,1.5 C95,1.9 94.8,2.2 94.6,2.6 C94.2,3 93.9,3 93.5,3 C93.1,3 92.8,2.8 92.4,2.6 C92.2,2.4 92,2 92,1.5 Z" id="Path-Copy" fill="#29FD2F"></path>
            </g>
        </g>
    </g>
</svg>