<?xml version="1.0" encoding="utf-8"?>
<!-- Generator: Adobe Illustrator 24.0.1, SVG Export Plug-In . SVG Version: 6.00 Build 0)  -->
<svg version="1.1" id="Слой_1" xmlns="http://www.w3.org/2000/svg" xmlns:xlink="http://www.w3.org/1999/xlink" x="0px" y="0px"
	 viewBox="0 0 188.4 56" style="enable-background:new 0 0 188.4 56;" xml:space="preserve">
<style type="text/css">
	.st0{fill:#0072BB;}
</style>
<path class="st0" d="M34.4,52.5L34.4,52.5c-0.8,1.4-2,2.3-3.5,2.7s-3,0.2-4.3-0.6c-3.7-2.2-2.2-7.4-7.7-9.9
	c-3.6-1.6-6.3-0.2-9.2,0.4C5.1,46,0.6,43,0,38.1c-0.5-4.2,2.2-8.4,6.3-9.2c2.5-0.5,5.2-0.1,8.3-1.7c3.5-1.8,5-4.3,5.8-7.1
	c1.2-4.7,0.2-10.3,2.5-14.5c3.5-6.3,13.3-7.7,18.4-2.1c5.8,6.4,2.8,17.3-5.2,19.6c-3.4,1-7.2,0.4-10.6,1.1c-2.9,0.5-5.6,1.9-7.7,5.8
	c-2.4,4.4-2.1,9.3,2.1,12.5c4.9,3.7,8.6-0.3,12.4,1.9c1.3,0.8,2.3,2,2.6,3.5C35.4,49.6,35.2,51.2,34.4,52.5L34.4,52.5z"/>
<g>
	<path d="M53.7,26.1V5.8h2.7v20.3H53.7z"/>
	<path d="M58.9,19.5c0-2,0.7-3.6,2.2-5c1.4-1.4,3.1-2,5-2c0.9,0,1.8,0.2,2.7,0.5c0.9,0.4,1.6,0.9,2.3,1.4c0.7,0.7,1.3,1.4,1.6,2.3
		c0.4,0.9,0.5,1.8,0.5,2.7c0,0.9-0.2,1.8-0.5,2.7c-0.4,0.9-0.9,1.6-1.6,2.3c-0.7,0.7-1.4,1.3-2.3,1.4c-0.9,0.4-1.8,0.5-2.7,0.5
		c-2,0-3.6-0.7-5-2C59.6,23.1,58.9,21.5,58.9,19.5z M61.8,19.5c0,1.3,0.4,2.3,1.3,3.2c0.9,0.9,1.8,1.3,3.1,1.3
		c1.3,0,2.2-0.4,3.1-1.3s1.3-2,1.3-3.2c0-1.3-0.4-2.3-1.3-3.2c-0.9-0.9-1.8-1.3-3.1-1.3c-1.3,0-2.2,0.4-3.1,1.3
		C62.1,17.1,61.8,18.2,61.8,19.5z"/>
	<path d="M86.2,23.1v2.7c-0.7,0.2-1.3,0.4-2,0.5c-0.7,0.2-1.3,0.2-2,0.2c-2.2,0-4-0.7-5.4-2c-1.3-1.4-2-3.1-2-5s0.7-3.6,2.2-5
		c1.4-1.3,3.2-2,5.2-2c0.7,0,1.3,0,2,0.2c0.7,0.2,1.3,0.4,1.8,0.5v2.9c-0.5-0.4-1.3-0.7-1.8-0.9C83.7,15,83,15,82.4,15
		c-1.4,0-2.5,0.4-3.4,1.3c-0.9,0.9-1.3,1.8-1.3,3.2c0,1.3,0.4,2.3,1.3,3.2s2,1.3,3.4,1.3c0.7,0,1.3,0,2-0.2
		C85,23.6,85.7,23.3,86.2,23.1z"/>
	<path d="M95.6,25.1c-0.7,0.5-1.3,0.9-2,1.1s-1.3,0.4-2,0.4c-1.3,0-2.2-0.4-2.9-0.9c-0.7-0.5-1.1-1.4-1.1-2.3s0.4-1.8,1.1-2.5
		s1.8-1.3,3.2-1.8l3.2-1.1v-0.2c0,0,0-0.2,0-0.4c0-0.7-0.2-1.4-0.5-1.8c-0.4-0.4-1.1-0.5-2-0.5c-0.7,0-1.4,0.2-2.3,0.5
		c-0.7,0.4-1.6,0.7-2.3,1.4v-2.7c0.7-0.5,1.4-0.9,2.3-1.3c0.9-0.4,1.8-0.4,2.7-0.4c1.8,0,3.1,0.4,3.8,1.1s1.3,2,1.3,3.6v5.8
		c0,0.5,0,0.9,0.2,1.1c0,0.2,0.2,0.4,0.4,0.4s0.4,0,0.5-0.2c0.2,0,0.5-0.4,0.9-0.5v1.6c-0.5,0.4-0.9,0.7-1.4,0.9
		c-0.5,0.2-1.1,0.4-1.6,0.4c-0.5,0-0.9-0.2-1.1-0.4C95.7,26.1,95.6,25.6,95.6,25.1z M95.4,23.4v-4c-1.8,0.5-3.1,1.1-3.8,1.6
		c-0.7,0.5-1.1,1.1-1.1,1.6c0,0.5,0.2,0.9,0.5,1.3c0.4,0.4,0.9,0.5,1.4,0.5c0.5,0,0.9,0,1.4-0.2C94.5,24.2,95,23.8,95.4,23.4z"/>
	<path d="M101.7,26.1V5.8h2.7v20.3H101.7z"/>
</g>
<g>
	<path d="M53.7,50.8V30.4h2.7v0.7c0.5-0.4,1.1-0.5,1.6-0.7c0.5-0.2,1.3-0.2,1.8-0.2c2,0,3.6,0.7,4.7,2c1.3,1.3,1.8,3.1,1.8,5
		c0,2-0.5,3.8-1.8,5c-1.3,1.3-2.9,2-4.7,2c-0.7,0-1.3,0-1.8-0.2c-0.5-0.2-1.1-0.4-1.6-0.7v7.6h-2.7V50.8z M56.4,33.5v7.6
		c0.4,0.4,0.9,0.5,1.3,0.7c0.5,0.2,0.9,0.2,1.4,0.2c1.4,0,2.5-0.4,3.2-1.3c0.7-0.9,1.3-2,1.3-3.4c0-1.4-0.4-2.5-1.3-3.4
		c-0.7-0.9-1.8-1.3-3.2-1.3c-0.5,0-1.1,0-1.4,0.2C57.1,33,56.7,33.1,56.4,33.5z"/>
	<path d="M69,43.9V30.4h2.7v2.9c0.7-1.3,1.4-2,2-2.5c0.5-0.5,1.3-0.7,2-0.7c0.5,0,0.9,0.2,1.4,0.4c0.5,0.2,1.1,0.5,1.6,0.9l-1.4,2.3
		c-0.4-0.4-0.9-0.7-1.3-0.9c-0.4-0.2-0.9-0.2-1.3-0.2c-0.7,0-1.4,0.4-2,0.9c-0.5,0.5-0.9,1.4-1.1,2.5v7.6H69V43.9z"/>
	<path d="M79.2,37.3c0-2,0.7-3.6,2.2-5c1.4-1.4,3.1-2,5-2c0.9,0,1.8,0.2,2.7,0.5c0.9,0.4,1.6,0.9,2.3,1.4c0.7,0.7,1.3,1.4,1.6,2.3
		c0.4,0.9,0.5,1.8,0.5,2.7S93.4,39.1,93,40c-0.4,0.9-0.9,1.6-1.6,2.3c-0.7,0.7-1.4,1.3-2.3,1.4c-0.9,0.4-1.8,0.5-2.7,0.5
		c-2,0-3.6-0.7-5-2S79.2,39.1,79.2,37.3z M81.9,37.3c0,1.3,0.4,2.3,1.3,3.2c0.9,0.9,1.8,1.3,3.1,1.3c1.3,0,2.2-0.4,3.1-1.3
		c0.9-0.9,1.3-2,1.3-3.2s-0.4-2.3-1.3-3.2c-0.9-0.9-1.8-1.3-3.1-1.3c-1.3,0-2.2,0.4-3.1,1.3C82.4,34.9,81.9,36,81.9,37.3z"/>
	<path d="M95.9,43.9V30.4h2.7v1.6c0.7-0.7,1.3-1.1,2-1.4c0.7-0.4,1.4-0.4,2.2-0.4c0.9,0,1.8,0.2,2.5,0.5s1.3,0.9,1.6,1.8
		c0.9-0.9,1.6-1.4,2.3-1.8c0.7-0.4,1.4-0.5,2.3-0.5c1.4,0,2.7,0.4,3.4,1.3c0.9,0.9,1.3,2,1.3,3.4v8.8h-2.7v-8.1c0-1.1-0.2-2-0.7-2.3
		c-0.5-0.5-1.1-0.7-2.2-0.7c-0.7,0-1.3,0.2-1.8,0.4c-0.5,0.2-1.1,0.7-1.4,1.3v9.7h-2.7v-8.3c0-1.1-0.2-1.8-0.7-2.3
		c-0.5-0.5-1.3-0.7-2.2-0.7c-0.7,0-1.3,0.2-1.8,0.4c-0.5,0.2-1.1,0.7-1.4,1.3v9.7C98.6,43.9,95.9,43.9,95.9,43.9z"/>
	<path d="M118.8,37.3c0-2,0.7-3.6,2.2-5c1.4-1.4,3.1-2,5-2c0.9,0,1.8,0.2,2.7,0.5c0.9,0.4,1.6,0.9,2.3,1.4c0.7,0.7,1.3,1.4,1.6,2.3
		c0.4,0.9,0.5,1.8,0.5,2.7s-0.2,1.8-0.5,2.7c-0.4,0.9-0.9,1.6-1.6,2.3c-0.7,0.7-1.4,1.3-2.3,1.4c-0.9,0.4-1.8,0.5-2.7,0.5
		c-2,0-3.6-0.7-5-2C119.5,40.9,118.8,39.1,118.8,37.3z M121.5,37.3c0,1.3,0.4,2.3,1.3,3.2s1.8,1.3,3.1,1.3c1.3,0,2.2-0.4,3.1-1.3
		c0.9-0.9,1.3-2,1.3-3.2s-0.4-2.3-1.3-3.2c-0.9-0.9-1.8-1.3-3.1-1.3c-1.3,0-2.2,0.4-3.1,1.3C122,34.9,121.5,36,121.5,37.3z"/>
	<path d="M142.9,43.6c-0.4,0.2-0.9,0.4-1.3,0.5c-0.4,0.2-1.1,0.2-1.6,0.2c-1.4,0-2.5-0.4-3.2-1.1c-0.7-0.7-0.9-2.2-0.9-4V33h-2.3
		v-0.2l4.7-5.2h0.4v3.1h4.1V33h-4.1v6.1c0,1.1,0.2,1.8,0.4,2.2c0.4,0.4,0.7,0.5,1.6,0.5c0.4,0,0.7,0,1.3-0.2
		c0.5-0.2,0.7-0.4,1.1-0.5L142.9,43.6L142.9,43.6z"/>
	<path d="M145,26.5c0-0.4,0.2-0.7,0.4-1.1c0.4-0.4,0.7-0.4,1.1-0.4s0.7,0.2,1.1,0.4c0.4,0.4,0.4,0.7,0.4,1.1c0,0.4-0.2,0.7-0.4,1.1
		c-0.4,0.4-0.7,0.4-1.1,0.4s-0.7-0.2-1.1-0.4C145.2,27.4,145,27,145,26.5z M145.2,43.9V30.4h2.7v13.5H145.2z"/>
	<path d="M150.4,37.3c0-2,0.7-3.6,2.2-5c1.4-1.4,3.1-2,5-2c0.9,0,1.8,0.2,2.7,0.5c0.9,0.4,1.6,0.9,2.3,1.4c0.7,0.7,1.3,1.4,1.6,2.3
		c0.4,0.9,0.5,1.8,0.5,2.7s-0.2,1.8-0.5,2.7c-0.4,0.9-0.9,1.6-1.6,2.3c-0.7,0.7-1.4,1.3-2.3,1.4c-0.9,0.4-1.8,0.5-2.7,0.5
		c-2,0-3.6-0.7-5-2S150.4,39.1,150.4,37.3z M153.3,37.3c0,1.3,0.4,2.3,1.3,3.2c0.9,0.9,1.8,1.3,3.1,1.3s2.2-0.4,3.1-1.3
		c0.9-0.9,1.3-2,1.3-3.2s-0.4-2.3-1.3-3.2c-0.9-0.9-1.8-1.3-3.1-1.3s-2.2,0.4-3.1,1.3C153.6,34.9,153.3,36,153.3,37.3z"/>
	<path d="M167.3,43.9V30.4h2.7v1.6c0.7-0.7,1.3-1.1,2-1.4c0.7-0.4,1.4-0.4,2.2-0.4c1.4,0,2.5,0.4,3.4,1.3c0.9,0.9,1.3,2,1.3,3.4v8.8
		h-2.7v-8.1c0-1.1-0.2-1.8-0.7-2.3c-0.5-0.5-1.3-0.7-2.2-0.7c-0.7,0-1.3,0.2-1.8,0.4c-0.5,0.2-1.1,0.7-1.4,1.3v9.7
		C170,43.9,167.3,43.9,167.3,43.9z"/>
	<path d="M182.4,42.5c0-0.5,0.2-0.9,0.5-1.3c0.4-0.4,0.7-0.5,1.3-0.5s0.9,0.2,1.3,0.5s0.5,0.7,0.5,1.3c0,0.5-0.2,0.9-0.5,1.3
		c-0.4,0.4-0.7,0.5-1.3,0.5c-0.5,0-0.9-0.2-1.3-0.5C182.6,43.4,182.4,42.9,182.4,42.5z"/>
</g>
</svg>
