<svg id="Capa_1" enable-background="new 0 0 511.5 511.5" height="512" viewBox="0 0 511.5 511.5" width="512" xmlns="http://www.w3.org/2000/svg" xmlns:xlink="http://www.w3.org/1999/xlink"><linearGradient id="SVGID_1_" gradientUnits="userSpaceOnUse" x1="255.75" x2="255.75" y1="175.5" y2="511.5"><stop offset=".00000083866" stop-color="#96d1f3"/><stop offset="1" stop-color="#ccfff4"/></linearGradient><linearGradient id="SVGID_2_" gradientUnits="userSpaceOnUse" x1="255.75" x2="255.75" y1="7.5" y2="493.5"><stop offset=".00000036422" stop-color="#a8abff"/><stop offset="1" stop-color="#fac8ff"/></linearGradient><linearGradient id="SVGID_3_" gradientUnits="userSpaceOnUse" x1="255.75" x2="255.75" y1="0" y2="511.5"><stop offset=".00000011981" stop-color="#174fa3"/><stop offset="1" stop-color="#b044af"/></linearGradient><g><g><path d="m227.75 415.5v96h-220v-96c0-47.98 30.723-88.778 73.566-103.814 9.703 8.59 22.455 13.814 36.434 13.814 13.978 0 26.73-5.224 36.434-13.814 42.843 15.036 73.566 55.834 73.566 103.814zm202.434-103.814c-9.703 8.59-22.455 13.814-36.434 13.814-13.979 0-26.73-5.224-36.434-13.814-42.843 15.036-73.566 55.834-73.566 103.814v96h220v-96c0-47.98-30.723-88.778-73.566-103.814zm-257.434-106.186c0-16.569-13.431-30-30-30h-106v14c0 16.569 13.431 30 30 30h106zm166 14h106c16.569 0 30-13.431 30-30v-14h-106c-16.569 0-30 13.431-30 30z" fill="url(#SVGID_1_)"/><path d="m137.75 361.5 10 110-30 22-30-22 10-110v-40h40zm276 0v-40h-40v40l-10 110 30 22 30-22zm-158-354c-41.421 0-75 33.579-75 75s33.579 75 75 75 75-33.579 75-75-33.579-75-75-75z" fill="url(#SVGID_2_)"/><g fill="#fff"><path d="m117.75 325.5c-30.376 0-55-24.624-55-55v-51h110v51c0 30.376-24.624 55-55 55z"/><path d="m393.75 325.5c-30.376 0-55-24.624-55-55v-51h110v51c0 30.376-24.624 55-55 55z"/></g></g><path d="m44.25 415.5h15v96h-15zm132 96h15v-96h-15zm-74-257h-15v15h15zm46 0h-15v15h15zm87 161v96h-15v-96c0-42.088-25.823-79.867-64.677-95.288-3.213 2.45-6.667 4.597-10.323 6.396v34.552l10.353 113.882-37.853 27.759-37.853-27.759 10.353-113.882v-34.552c-3.656-1.799-7.111-3.946-10.323-6.396-38.853 15.421-64.677 53.2-64.677 95.288v96h-15v-96c0-46.062 26.994-87.603 68.198-106.656-8.259-10.595-13.198-23.9-13.198-38.344v-45.311c-15.068-4.867-26-19.022-26-35.689v-21.5h113.5c20.678 0 37.5 16.822 37.5 37.5v6.5 15c-2.219 32.019 6.643 56.39-13.198 81.844 41.204 19.053 68.198 60.594 68.198 106.656zm-95.353 52.458-8.996-98.958h-26.302l-8.996 98.958 22.147 16.241zm-9.647-113.958v-22.258c-8.497 1.732-17.043 1.622-25 0v22.258zm35-127h-95v43.5c0 26.191 21.309 47.5 47.5 47.5s47.5-21.309 47.5-47.5zm0-21.5c0-12.406-10.093-22.5-22.5-22.5h-98.5v6.5c0 12.406 10.093 22.5 22.5 22.5h98.5zm155 306h15v-96h-15zm132 0h15v-96h-15zm-74-257h-15v15h15zm46 0h-15v15h15zm87 161v96h-15v-96c0-42.088-25.823-79.867-64.677-95.288-3.213 2.45-6.667 4.597-10.323 6.396v34.557l10.353 113.877-37.853 27.759-37.853-27.759 10.353-113.877v-34.557c-3.656-1.8-7.111-3.946-10.323-6.396-38.854 15.421-64.677 53.2-64.677 95.288v96h-15v-96c0-46.062 26.994-87.603 68.198-106.656-8.259-10.595-13.198-23.9-13.198-38.344v-43.5-15-6.5c0-20.678 16.822-37.5 37.5-37.5h113.5v21.5c0 16.667-10.932 30.822-26 35.689-2.272 33.605 6.737 58.082-13.198 83.655 41.204 19.053 68.198 60.594 68.198 106.656zm-165-203.5h98.5c12.406 0 22.5-10.094 22.5-22.5v-6.5h-98.5c-12.406 0-22.5 10.094-22.5 22.5zm69.647 255.958-8.997-98.958h-26.3l-8.997 98.958 22.147 16.241zm-9.647-113.958v-22.258c-8.497 1.732-17.042 1.622-25 0v22.258zm35-127h-95v43.5c0 26.191 21.309 47.5 47.5 47.5s47.5-21.309 47.5-47.5zm-194.5-137h18c4.687 0 8.5 3.813 8.5 8.5s-3.813 8.5-8.5 8.5h-34v15h17.5v14.5h15v-14.5h1.5c12.958 0 23.5-10.542 23.5-23.5s-10.542-23.5-23.5-23.5h-18c-4.687 0-8.5-3.813-8.5-8.5s3.813-8.5 8.5-8.5h34v-15h-17.5v-14.5h-15v14.5h-1.5c-12.958 0-23.5 10.542-23.5 23.5s10.542 23.5 23.5 23.5zm-73.5-7.5c0-45.49 37.009-82.5 82.5-82.5 45.49 0 82.5 37.01 82.5 82.5s-37.01 82.5-82.5 82.5c-45.491 0-82.5-37.01-82.5-82.5zm15 0c0 37.22 30.28 67.5 67.5 67.5s67.5-30.28 67.5-67.5-30.28-67.5-67.5-67.5-67.5 30.28-67.5 67.5zm-33.5-11.5h-15v15h15zm-46.5 15h16.5v-15h-31.5v51.5h15zm0 51.5h-15v15h15zm263.5-66.5h-15v15h15zm31.5 51.5h15v-51.5h-31.5v15h16.5zm0 30h15v-15h-15zm-136.539 104.537-12.729 12.729c-14.164 14.162-38.41 4.008-38.41-15.91 0-6.011 2.34-11.66 6.59-15.91l12.728-12.729-10.606-10.605-12.728 12.728c-7.083 7.083-10.983 16.5-10.983 26.517.002 33.097 40.31 50.223 64.016 26.517l12.729-12.728zm-30.406-12.021 10.606 10.607 28.285-28.284-10.607-10.607zm40.304 2.123 10.607 10.605 12.728-12.728c14.621-14.621 14.621-38.412 0-53.033-14.622-14.62-38.412-14.62-53.033 0l-12.728 12.728 10.606 10.607 12.728-12.728c8.771-8.772 23.046-8.772 31.819 0s8.773 23.046 0 31.819z" fill="url(#SVGID_3_)"/></g></svg>