<svg id="Capa_1" enable-background="new 0 0 511.5 511.5" height="512" viewBox="0 0 511.5 511.5" width="512" xmlns="http://www.w3.org/2000/svg" xmlns:xlink="http://www.w3.org/1999/xlink"><linearGradient id="SVGID_1_" gradientUnits="userSpaceOnUse" x1="264" x2="264" y1="22.75" y2="488.75"><stop offset=".00000036422" stop-color="#a8abff"/><stop offset="1" stop-color="#fac8ff"/></linearGradient><linearGradient id="lg1"><stop offset=".00000083866" stop-color="#96d1f3"/><stop offset="1" stop-color="#ccfff4"/></linearGradient><linearGradient id="SVGID_2_" gradientUnits="userSpaceOnUse" x1="419" x2="419" xlink:href="#lg1" y1="7.75" y2="97.75"/><linearGradient id="SVGID_3_" gradientUnits="userSpaceOnUse" x1="419" x2="419" xlink:href="#lg1" y1="413.75" y2="503.75"/><linearGradient id="SVGID_4_" gradientUnits="userSpaceOnUse" x1="419" x2="419" xlink:href="#lg1" y1="278.75" y2="368.75"/><linearGradient id="SVGID_5_" gradientUnits="userSpaceOnUse" x1="419" x2="419" xlink:href="#lg1" y1="142.75" y2="232.75"/><linearGradient id="SVGID_6_" gradientUnits="userSpaceOnUse" x1="110" x2="110" xlink:href="#lg1" y1="155.75" y2="355.75"/><linearGradient id="SVGID_7_" gradientUnits="userSpaceOnUse" x1="255.75" x2="255.75" y1=".25" y2="511.25"><stop offset=".00000011981" stop-color="#174fa3"/><stop offset="1" stop-color="#b044af"/></linearGradient><g><g><path d="m294 52.75c0 16.569-13.431 30-30 30s-30-13.431-30-30 13.431-30 30-30 30 13.431 30 30zm-30 376c-16.569 0-30 13.431-30 30s13.431 30 30 30 30-13.431 30-30-13.431-30-30-30zm0-135c-16.569 0-30 13.431-30 30s13.431 30 30 30 30-13.431 30-30-13.431-30-30-30zm0-136c-16.569 0-30 13.431-30 30s13.431 30 30 30 30-13.431 30-30-13.431-30-30-30z" fill="url(#SVGID_1_)"/><path d="m504 97.75h-140v-26l-30-19 30-19v-26h140z" fill="url(#SVGID_2_)"/><path d="m504 503.75h-140v-26l-30-19 30-19v-26h140z" fill="url(#SVGID_3_)"/><path d="m504 368.75h-140v-26l-30-19 30-19v-26h140z" fill="url(#SVGID_4_)"/><path d="m504 232.75h-140v-26l-30-19 30-19v-26h140z" fill="url(#SVGID_5_)"/><path d="m110 215.75v-60h-90v200h69 21 90v-140z" fill="url(#SVGID_6_)"/></g><path d="m301.5 52.75c0-20.678-16.822-37.5-37.5-37.5s-37.5 16.822-37.5 37.5c0 18.11 12.904 33.261 30 36.745v61.509c-17.096 3.484-30 18.635-30 36.745s12.904 33.261 30 36.745v62.509c-17.096 3.484-30 18.635-30 36.745s12.904 33.261 30 36.745v61.509c-17.096 3.484-30 18.635-30 36.745 0 20.678 16.822 37.5 37.5 37.5s37.5-16.822 37.5-37.5c0-18.11-12.904-33.261-30-36.745v-61.509c17.096-3.484 30-18.635 30-36.745s-12.904-33.261-30-36.745v-62.509c17.096-3.484 30-18.635 30-36.745s-12.904-33.261-30-36.745v-61.509c17.096-3.484 30-18.635 30-36.745zm-15 406c0 12.406-10.093 22.5-22.5 22.5s-22.5-10.094-22.5-22.5 10.093-22.5 22.5-22.5 22.5 10.094 22.5 22.5zm0-135c0 12.406-10.093 22.5-22.5 22.5s-22.5-10.094-22.5-22.5 10.093-22.5 22.5-22.5 22.5 10.094 22.5 22.5zm0-136c0 12.406-10.093 22.5-22.5 22.5s-22.5-10.094-22.5-22.5 10.093-22.5 22.5-22.5 22.5 10.094 22.5 22.5zm-22.5-112.5c-12.407 0-22.5-10.094-22.5-22.5s10.093-22.5 22.5-22.5 22.5 10.094 22.5 22.5-10.093 22.5-22.5 22.5zm92.5-75v29.372l-36.517 23.128 36.517 23.128v29.372h155v-105zm140 90h-125v-22.628l-23.483-14.872 23.483-14.872v-22.628h125zm-27.5-45h-70v-15h70zm-30 30h-40v-15h40zm-82.5 360.372-36.517 23.128 36.517 23.128v29.372h155v-105h-155zm15-14.372h125v75h-125v-22.628l-23.483-14.872 23.483-14.872zm97.5 30h-70v-15h70zm-30 30h-40v-15h40zm-82.5-180.628-36.517 23.128 36.517 23.128v29.372h155v-105h-155zm15-14.372h125v75h-125v-22.628l-23.483-14.872 23.483-14.872zm97.5 30h-70v-15h70zm-30 30h-40v-15h40zm-82.5-181.628-36.517 23.128 36.517 23.128v29.372h155v-105h-155zm15-14.372h125v75h-125v-22.628l-23.483-14.872 23.483-14.872zm97.5 30h-70v-15h70zm-30 30h-40v-15h40zm-351.5 23h-15v-15h15zm-30 0h-15v-15h15zm30 30h-15v-15h15zm-30 0h-15v-15h15zm0 30h-15v-15h15zm30 0h-15v-15h15zm0 30h-15v-15h15zm-30 0h-15v-15h15zm150-115h-90v-60h-105v200h-12.5v15h220v-15h-12.5zm-105 0v140h-75v-185h75zm90 140h-75v-125h75zm-15-55h-15v-15h15zm-30 0h-15v-15h15zm-90-90h-15v-15h15zm30 0h-15v-15h15zm90 60h-15v-15h15zm-30 0h-15v-15h15zm30 60h-15v-15h15zm-30 0h-15v-15h15z" fill="url(#SVGID_7_)"/></g></svg>