<svg width="2401" height="749" viewBox="0 0 2401 749" fill="none" xmlns="http://www.w3.org/2000/svg">
<path fill-rule="evenodd" clip-rule="evenodd" d="M2401 0H0V749H2401V0ZM292 483.753H352.664V266.247H292V483.753ZM546.616 452.982L546.628 452.97L546.639 452.959C556.543 443.155 564.184 431.607 569.557 418.378C575.052 404.99 577.761 390.482 577.761 374.93C577.761 359.474 575.053 345.062 569.56 331.768C564.186 318.444 556.541 306.883 546.616 297.159C536.681 287.424 524.745 279.858 510.906 274.42C497.042 268.936 481.761 266.247 465.147 266.247H379.211V483.753H465.147C481.75 483.753 497.02 481.115 510.875 475.732L510.897 475.724C524.74 470.285 536.679 462.718 546.616 452.982ZM385.673 272.708H385.672V477.292H465.147C465.392 477.292 465.637 477.292 465.882 477.29C465.638 477.292 465.393 477.292 465.147 477.292H385.673V272.708ZM502.494 331.1L502.531 331.143L502.569 331.186C506.863 336.046 510.248 342.113 512.635 349.528C515.016 356.929 516.255 365.373 516.255 374.93C516.255 384.587 515.015 393.077 512.635 400.472C510.246 407.893 506.852 414.024 502.534 418.995L502.529 419.001C498.329 423.846 493.15 427.63 486.898 430.35C480.712 432.949 473.5 434.323 465.147 434.323H439.874V315.677H465.147C473.491 315.677 480.689 317.095 486.865 319.776L486.898 319.79L486.931 319.804C493.143 322.42 498.3 326.18 502.494 331.1ZM507.412 423.232C502.849 428.498 497.298 432.653 490.76 435.697C497.298 432.653 502.848 428.498 507.411 423.232C512.373 417.522 516.164 410.595 518.785 402.451C521.406 394.307 522.717 385.133 522.717 374.93C522.717 364.82 521.406 355.693 518.785 347.549C516.164 339.405 512.373 332.525 507.411 326.908C502.544 321.198 496.553 316.845 489.438 313.849C485.673 312.215 481.633 311.012 477.318 310.243C481.634 311.012 485.674 312.214 489.439 313.849C496.553 316.845 502.544 321.198 507.412 326.908C512.374 332.524 516.165 339.405 518.786 347.549C521.407 355.693 522.717 364.82 522.717 374.93C522.717 385.133 521.407 394.307 518.786 402.451C516.165 410.595 512.374 417.522 507.412 423.232ZM489.439 436.291C489.439 436.291 489.439 436.291 489.438 436.291C489.439 436.291 489.439 436.291 489.439 436.291ZM717.823 398.522V350.495H653.513V315.677H737.481V266.247H592.849V483.753H773.914C779.023 483.753 783.78 482.391 787.735 479.284L787.747 479.274L787.758 479.265C791.161 476.566 793.841 473.305 795.374 469.404L795.43 469.26L806.069 437.838H874.591L885.27 469.377L885.381 469.632C887.114 473.592 889.695 476.943 893.091 479.584L893.151 479.631L893.212 479.676C897.153 482.595 901.951 483.753 907.027 483.753H953.245L869.049 266.247H811.611L737.481 457.75V434.323H653.513V398.522H717.823ZM599.311 272.708L599.311 272.708V477.292L731.02 477.292H599.311V272.708ZM736.845 477.292L736.845 477.292H773.914L773.915 477.292H736.845ZM879.225 431.376L891.301 467.042C892.611 470.037 894.53 472.518 897.058 474.484C897.374 474.718 897.702 474.937 898.043 475.142C897.702 474.937 897.374 474.718 897.059 474.484C894.531 472.518 892.612 470.037 891.302 467.042L879.226 431.376H801.436L879.225 431.376ZM943.816 477.292L907.028 477.292L907.027 477.292H943.816ZM840.19 314.834L840.191 314.832C841.782 320.449 843.373 325.691 844.965 330.559C846.556 335.333 848.054 339.498 849.458 343.056L868.414 399.081L868.413 399.081L849.457 343.056C848.053 339.498 846.555 335.333 844.964 330.559C844.546 329.281 844.128 327.977 843.711 326.648C842.537 322.914 841.364 318.975 840.19 314.834ZM821.388 392.62L837.274 345.555C838.27 343.025 839.301 340.204 840.367 337.098C841.41 340.082 842.416 342.809 843.388 345.277L859.406 392.62H821.388ZM1176.29 452.982L1176.3 452.97L1176.31 452.959C1186.22 443.153 1193.86 431.603 1199.23 418.372C1204.72 404.985 1207.43 390.48 1207.43 374.93C1207.43 359.47 1204.72 345.055 1199.23 331.758C1193.85 318.438 1186.21 306.88 1176.29 297.159C1166.35 287.423 1154.41 279.856 1140.57 274.418C1126.71 268.935 1111.43 266.247 1094.82 266.247H1008.88V483.753H1094.82C1111.42 483.753 1126.69 481.115 1140.55 475.732L1140.57 475.724C1154.41 470.285 1166.35 462.718 1176.29 452.982ZM1015.34 272.708L1015.34 272.708V477.292L1015.34 477.292V272.708ZM1132.17 331.1L1132.2 331.143L1132.24 331.186C1136.53 336.046 1139.92 342.113 1142.31 349.528C1144.69 356.929 1145.93 365.373 1145.93 374.93C1145.93 384.587 1144.69 393.077 1142.31 400.472C1139.92 407.893 1136.52 414.024 1132.21 418.995L1132.2 419.001C1128 423.846 1122.82 427.63 1116.57 430.35C1110.38 432.949 1103.17 434.323 1094.82 434.323H1069.55V315.677H1094.82C1103.16 315.677 1110.36 317.095 1116.54 319.776L1116.57 319.79L1116.6 319.804C1122.82 322.42 1127.97 326.18 1132.17 331.1ZM1094.94 309.216L1094.82 309.216H1063.09L1094.82 309.216L1094.94 309.216ZM1222.52 266.247V483.753H1283.19V266.247H1222.52ZM1491.04 462.847L1493.68 460.911V364.818H1408.02V397.396C1408.02 401.507 1409.53 405.252 1412.57 408.131C1415.78 411.157 1419.89 412.282 1424.03 412.282H1437.79V432.458C1434.96 433.486 1432.07 434.355 1429.12 435.063L1429.11 435.067L1429.09 435.07C1425.1 436.048 1420.48 436.57 1415.19 436.57C1406.64 436.57 1398.99 435.193 1392.16 432.535C1385.44 429.788 1379.68 425.869 1374.81 420.766C1370.07 415.689 1366.3 409.375 1363.56 401.691C1360.86 394.092 1359.44 385.204 1359.44 374.93C1359.44 365.693 1360.72 357.52 1363.17 350.337L1363.18 350.316C1365.65 342.977 1369.09 336.866 1373.43 331.87C1377.84 326.89 1383.14 323.053 1389.4 320.338L1389.43 320.324L1389.46 320.309C1395.64 317.547 1402.72 316.098 1410.83 316.098C1415.4 316.098 1419.44 316.323 1422.97 316.753C1426.47 317.18 1429.77 317.859 1432.86 318.779C1435.93 319.692 1438.93 320.898 1441.86 322.404L1441.96 322.454L1442.05 322.5C1445.19 323.982 1448.55 325.788 1452.12 327.934C1456.97 330.926 1462.33 332.468 1467.82 331.254C1473.11 330.104 1477.29 326.976 1480.26 322.455L1480.26 322.453L1496.98 297.03L1493.08 293.309C1488.64 289.068 1483.63 285.167 1478.08 281.595C1472.43 277.967 1466.23 274.872 1459.49 272.296C1452.81 269.703 1445.54 267.684 1437.72 266.217C1429.8 264.731 1421.39 264 1412.52 264C1395.37 264 1379.63 266.681 1365.41 272.153L1365.39 272.159C1351.34 277.6 1339.21 285.266 1329.08 295.194L1329.07 295.205L1329.06 295.216C1319.03 305.144 1311.34 316.957 1305.97 330.576C1300.59 344.143 1297.94 358.953 1297.94 374.93C1297.94 390.692 1300.75 405.444 1306.44 419.115L1306.44 419.13C1312.12 432.67 1320.21 444.463 1330.69 454.45L1330.71 454.461L1330.72 454.472C1341.21 464.362 1353.73 472.09 1368.2 477.7L1368.22 477.709L1368.25 477.719C1382.93 483.273 1399.07 486 1416.59 486C1430.09 486 1443.06 484.189 1455.47 480.545C1468.12 476.86 1479.98 470.944 1491.04 462.847ZM1573.34 266.247H1512.68V483.753H1573.34V266.247ZM1702.25 316.8H1759.82V266.247H1584.3V316.8H1641.87V483.753H1702.25V316.8ZM1890.38 479.676C1894.32 482.595 1899.11 483.753 1904.19 483.753H1950.41L1866.21 266.247H1808.77L1724.58 483.753H1771.08C1776.19 483.753 1780.94 482.391 1784.9 479.284L1784.91 479.274L1784.92 479.265C1788.32 476.566 1791 473.305 1792.54 469.404L1792.59 469.26L1803.23 437.838H1871.75L1882.43 469.377L1882.54 469.632C1884.28 473.592 1886.86 476.943 1890.25 479.584L1890.31 479.631L1890.38 479.676ZM2086.85 483.753V432.919H2011.03V266.247H1950.65V483.753H2086.85ZM298.461 272.708V477.292L298.462 477.292V272.708H298.461ZM1276.72 477.292L1228.98 477.292L1228.98 272.708V477.292H1276.72ZM1566.88 477.292L1519.14 477.292L1519.14 272.708V477.292H1566.88ZM1695.79 477.292L1648.33 477.292V310.339H1590.76L1590.76 272.708V310.339H1648.33V477.292H1695.79ZM2080.39 477.292L1957.11 477.292L1957.11 272.708V477.292H2080.39ZM1818.55 392.62H1856.57L1840.55 345.278C1839.58 342.81 1838.57 340.082 1837.53 337.098C1836.46 340.204 1835.43 343.026 1834.44 345.556L1818.55 392.62ZM1842.13 330.559C1841.71 329.281 1841.29 327.977 1840.87 326.647L1840.87 326.648C1841.29 327.977 1841.71 329.281 1842.13 330.559Z" fill="white"/>
</svg>
