<?xml version="1.0" encoding="UTF-8"?> <svg xmlns="http://www.w3.org/2000/svg" width="1440" height="500" viewBox="0 0 1440 500" fill="none"><path fill-rule="evenodd" clip-rule="evenodd" d="M1440 0H0V500H1440V0ZM193.991 234.511V155.581H167.224V189.195H142.549V155.581H115.783V244H142.549V210H167.224V244H210.727C213.001 244 215.205 243.389 217.062 241.931L217.069 241.925L217.076 241.92C218.569 240.735 219.805 239.256 220.521 237.433L220.556 237.344L224.414 225.951H249.254L253.136 237.416L253.205 237.574C253.981 239.349 255.146 240.863 256.677 242.053L256.714 242.082L256.752 242.11C258.62 243.494 260.84 244 263.051 244H409.407C411.681 244 413.886 243.389 415.742 241.931L415.749 241.925L415.756 241.92C417.249 240.735 418.486 239.256 419.201 237.433L419.236 237.344L423.094 225.951H447.935L451.816 237.416L451.885 237.574C452.662 239.349 453.826 240.863 455.357 242.053L455.394 242.082L455.432 242.11C457.301 243.494 459.52 244 461.732 244H482.031L447.804 155.581H423.225L392.734 234.349V155.581H365.968V222.146H349.571V155.581H322.805V222.146H306.409V155.581H279.643V234.422L249.123 155.581H224.544L193.991 234.511ZM231.422 205.256L236.853 189.166L242.297 205.256H231.422ZM430.102 205.256L435.533 189.166L440.977 205.256H430.102ZM174.702 350H198.477L177.265 310.895L177.251 310.869C175.595 307.921 173.715 305.427 171.554 303.537C171.28 303.293 171 303.059 170.714 302.833C171.802 301.807 172.752 300.632 173.568 299.328L173.572 299.321L196.953 261.581H173.763C171.322 261.581 168.993 262.217 166.995 263.671C165.314 264.893 163.932 266.444 162.835 268.256L148.274 292.469C147.679 293.42 147.239 293.717 147.081 293.795L147.055 293.809L147.029 293.822C146.729 293.978 146.197 294.146 145.283 294.146H142.438V261.581H115.783V350H142.438V315.779H146.828C148.15 315.779 148.921 315.985 149.331 316.176C149.356 316.188 149.815 316.433 150.483 317.652L150.492 317.668L163.862 342.807L163.897 342.868C165.033 344.835 166.397 346.552 168.058 347.838C170.001 349.342 172.296 350 174.702 350ZM266.613 337.885L266.62 337.878L266.627 337.871C270.652 333.765 273.753 328.954 275.929 323.478C278.156 317.965 279.251 312.046 279.251 305.763C279.251 299.513 278.155 293.613 275.929 288.103C273.751 282.623 270.647 277.825 266.613 273.75C262.567 269.663 257.711 266.486 252.104 264.201C246.447 261.843 240.234 260.698 233.524 260.698C226.816 260.698 220.592 261.824 214.905 264.139C209.294 266.424 204.421 269.599 200.338 273.681L200.331 273.688L200.324 273.695C196.293 277.767 193.172 282.562 190.958 288.036L190.954 288.048L190.949 288.059C188.761 293.57 187.686 299.484 187.686 305.763C187.686 312.042 188.761 317.956 190.949 323.466L190.954 323.478L190.958 323.49C193.171 328.961 196.287 333.767 200.31 337.871L200.324 337.886L200.338 337.9C204.421 341.982 209.294 345.157 214.905 347.442C220.592 349.757 226.816 350.883 233.524 350.883C240.23 350.883 246.439 349.757 252.094 347.439C257.705 345.154 262.564 341.975 266.613 337.885ZM250.801 296.28L250.805 296.293C251.683 298.989 252.154 302.13 252.154 305.763C252.154 309.432 251.683 312.612 250.803 315.347C249.921 318.057 248.683 320.244 247.14 321.991L247.127 322.005L247.115 322.02C245.624 323.74 243.785 325.074 241.541 326.022C239.307 326.93 236.658 327.428 233.524 327.428C230.352 327.428 227.663 326.929 225.388 326.018C223.147 325.07 221.286 323.735 219.755 322.006C218.244 320.258 217.02 318.066 216.135 315.349C215.255 312.613 214.784 309.432 214.784 305.763C214.784 302.13 215.255 298.989 216.133 296.293L216.137 296.28C217.024 293.523 218.249 291.317 219.755 289.576C221.291 287.841 223.158 286.503 225.408 285.554C227.676 284.613 230.358 284.097 233.524 284.097C236.653 284.097 239.294 284.612 241.52 285.55C243.774 286.499 245.619 287.835 247.115 289.561L247.127 289.575L247.14 289.589C248.677 291.329 249.916 293.53 250.801 296.28ZM380.639 340.402V261.581H362.399C361.532 261.581 360.734 261.6 360.012 261.643L360.004 261.643L359.997 261.644C359.062 261.702 358.121 261.884 357.21 262.234C356.151 262.641 355.247 263.268 354.493 264.022C353.734 264.781 353.146 265.697 352.677 266.588L352.664 266.613L332.039 307.202C331.825 307.59 331.615 307.982 331.407 308.379C331.241 308.052 331.074 307.727 330.904 307.404L310.206 266.614L310.192 266.588C309.722 265.696 309.12 264.784 308.325 264.023C307.59 263.252 306.698 262.633 305.659 262.234C304.724 261.874 303.757 261.7 302.81 261.643C302.116 261.6 301.332 261.581 300.47 261.581H282.23V350H306.678V309.595L320.095 335.631C321.054 337.497 322.423 339.065 324.243 340.157L324.268 340.172L324.293 340.186C326.097 341.234 328.089 341.721 330.165 341.721H332.704C334.769 341.721 336.757 341.239 338.545 340.172C340.399 339.09 341.801 337.523 342.773 335.634L342.774 335.631L356.191 309.664V350H397.333C399.608 350 401.812 349.389 403.668 347.931L403.675 347.925L403.682 347.92C405.176 346.735 406.412 345.256 407.128 343.433L407.163 343.344L411.02 331.951H435.861L439.743 343.416L439.812 343.574C440.588 345.349 441.752 346.863 443.283 348.053L443.32 348.082L443.358 348.11C445.227 349.494 447.446 350 449.658 350H493.015V316H517.691V350H544.457V261.581H517.691V295.195H493.015V261.581H466.249V340.422L435.73 261.581H411.151L380.639 340.402ZM418.028 311.256L423.459 295.166L428.903 311.256H418.028ZM674.06 311.256L679.491 295.166L684.935 311.256H674.06ZM667.052 331.951H691.892L695.774 343.416L695.843 343.574C696.62 345.349 697.784 346.863 699.315 348.053L699.352 348.082L699.39 348.11C701.258 349.494 703.478 350 705.689 350H725.988L691.761 261.581H667.182L641.252 328.567V328.146H629.33V261.581H567.288L567.185 265.475C566.965 273.782 566.618 281.093 566.146 287.416L566.145 287.427L566.144 287.437C565.707 293.739 565.164 299.199 564.517 303.83C563.867 308.492 563.154 312.358 562.388 315.456C561.61 318.603 560.807 321.081 560.004 322.946L559.992 322.973L559.981 323C559.184 324.927 558.436 326.231 557.793 327.054C557.412 327.521 557.073 327.877 556.781 328.146H545.05V368.766H560.31C562.761 368.766 565.148 368.101 567.092 366.437C569.166 364.696 570.161 362.308 570.161 359.688V350H616.142V368.766H631.401C633.852 368.766 636.238 368.102 638.182 366.438C640.256 364.697 641.252 362.308 641.252 359.688V350H653.365C655.639 350 657.843 349.389 659.7 347.931L659.707 347.925L659.714 347.92C661.207 346.735 662.443 345.256 663.159 343.433L663.194 343.344L667.052 331.951ZM602.564 328.146H584.294C584.651 327.251 584.997 326.323 585.333 325.362C586.543 321.962 587.616 318.058 588.561 313.67C589.511 309.264 590.338 304.253 591.048 298.648C591.631 294.047 592.124 288.975 592.528 283.435H602.564V328.146Z" fill="white"></path></svg> 