<?xml version="1.0" encoding="UTF-8"?> <svg xmlns="http://www.w3.org/2000/svg" width="1440" height="500" viewBox="0 0 1440 500" fill="none"><path fill-rule="evenodd" clip-rule="evenodd" d="M1440 0H0V500H1440V0ZM184.062 311C181.357 311 178.808 310.262 176.658 308.598C174.791 307.152 173.237 305.204 171.927 302.938L171.892 302.877L156.093 273.171C155.264 271.658 154.625 271.22 154.402 271.116C153.792 270.832 152.767 270.579 151.138 270.579H145.229V311H115.193V208.01H145.229V246.475H149.313C150.48 246.475 151.229 246.261 151.709 246.012L151.735 245.998L151.762 245.985C152.105 245.813 152.715 245.348 153.464 244.149L170.665 215.546C171.916 213.48 173.484 211.723 175.385 210.34C177.604 208.727 180.199 208.01 182.954 208.01H278.064V232.961H239.077V247.127H268.937V271.426H239.077V286.049H278.064V311H184.062ZM208.911 307.282L186.456 265.884L186.441 265.859C184.512 262.423 182.339 259.55 179.864 257.386C179.335 256.915 178.785 256.473 178.214 256.062C179.722 254.766 181.018 253.231 182.108 251.487L182.112 251.48L208.911 208.225V307.282ZM374.585 208.01V311H344.418V256.236L317.363 302.468L317.343 302.501C316.735 303.495 316.015 304.451 315.201 305.372C314.376 306.355 313.451 307.248 312.432 308.053L312.379 308.094L312.326 308.134C311.233 308.939 310.053 309.6 308.794 310.115C307.353 310.705 305.838 311 304.281 311H283.656V208.01H313.458C312.831 207.734 312.223 207.436 311.634 207.117L311.59 207.093L311.546 207.068C309.062 205.641 306.982 203.823 305.425 201.574L305.406 201.545L305.386 201.516C303.771 199.093 303.019 196.324 303.019 193.364C303.019 192.352 303.155 191.354 303.415 190.378C303.675 189.404 304.061 188.447 304.622 187.566L304.645 187.53L304.669 187.495C305.285 186.57 306.074 185.753 307.053 185.123C308.293 184.307 309.679 183.953 311.061 183.953H327.057V187.953C327.057 189.714 327.136 191.044 327.266 191.996C327.375 192.548 327.505 192.841 327.577 192.973C327.586 192.978 327.611 192.994 327.662 193.012C328.223 193.125 329.096 193.211 330.359 193.211C331.597 193.211 332.461 193.122 333.024 193.006C333.044 192.999 333.061 192.993 333.074 192.988L333.122 192.929C333.126 192.923 333.281 192.715 333.378 192.061L333.387 192.002L333.397 191.944C333.557 191.049 333.661 189.743 333.661 187.953V183.953H349.657C350.982 183.953 352.364 184.28 353.597 185.118C354.581 185.726 355.396 186.539 356.005 187.521C356.618 188.407 357.036 189.378 357.303 190.378C357.564 191.354 357.699 192.352 357.699 193.364C357.699 196.344 356.915 199.123 355.248 201.545C353.713 203.835 351.604 205.664 349.075 207.086L349.063 207.093L349.051 207.1C346.568 208.474 343.702 209.44 340.527 210.066C337.401 210.691 334.006 210.99 330.359 210.99C326.71 210.99 323.295 210.69 320.133 210.067L320.121 210.065C317.866 209.614 315.759 208.988 313.823 208.168V262.774L340.878 216.542L340.898 216.509C341.488 215.543 342.17 214.603 342.933 213.687L342.974 213.638L343.016 213.59C343.879 212.62 344.828 211.748 345.862 210.98C346.962 210.12 348.158 209.422 349.446 208.895C350.888 208.305 352.402 208.01 353.96 208.01H374.585ZM451.214 278.421C449.956 278.421 448.753 278.711 447.644 279.246C446.711 279.658 445.85 280.196 445.068 280.848L445.009 280.897L444.953 280.948C443.81 281.976 442.73 282.795 441.716 283.429C440.731 284.003 439.67 284.483 438.527 284.868C437.351 285.221 436.058 285.496 434.641 285.685C433.165 285.839 431.499 285.919 429.635 285.919C426.69 285.919 423.984 285.352 421.475 284.24C418.978 283.135 416.77 281.53 414.836 279.384C412.964 277.216 411.401 274.489 410.2 271.123C409.073 267.845 408.469 263.981 408.469 259.473C408.469 254.971 409.017 251.111 410.042 247.841C411.126 244.477 412.589 241.795 414.364 239.699C416.209 237.529 418.338 235.924 420.767 234.831C423.25 233.733 426.035 233.157 429.178 233.157C431.295 233.157 433.012 233.318 434.373 233.597L434.382 233.599L434.392 233.601C435.947 233.912 437.184 234.281 438.145 234.678L438.221 234.71L438.298 234.738C439.38 235.134 440.19 235.546 440.781 235.94L440.871 236.001L440.965 236.056C441.87 236.59 442.676 237.095 443.389 237.57L443.454 237.614L443.522 237.655C444.384 238.182 445.223 238.652 446.035 239.058C447.29 239.686 448.642 240.002 450.041 240.002C451.696 240.002 453.559 239.673 455.144 238.511L455.212 238.461L455.278 238.409C456.151 237.71 456.937 236.929 457.619 236.061L457.651 236.021L467.155 223.266L464.769 220.821C462.783 218.787 460.531 216.923 458.026 215.221C455.474 213.488 452.701 212.031 449.716 210.845C446.724 209.612 443.526 208.675 440.133 208.023C436.716 207.313 433.104 206.967 429.309 206.967C421.848 206.967 414.914 208.243 408.557 210.853C402.25 213.441 396.784 217.091 392.21 221.809C387.641 226.52 384.122 232.112 381.638 238.532C379.136 244.955 377.912 251.951 377.912 259.473C377.912 266.84 379.041 273.755 381.34 280.183L381.343 280.191C383.638 286.562 386.943 292.153 391.275 296.914L391.289 296.929L391.304 296.945C395.698 301.674 401.007 305.376 407.176 308.06L407.193 308.067L407.21 308.074C413.513 310.749 420.533 312.043 428.2 312.043C436.484 312.043 443.859 310.717 450.216 307.924L450.229 307.918C456.619 305.083 461.957 300.882 466.191 295.349L468.266 292.637L457.143 280.933L457.107 280.897C456.321 280.111 455.355 279.42 454.19 279.003C453.258 278.632 452.259 278.421 451.214 278.421ZM516.105 284.017L516.102 284.019C515.61 284.532 514.756 285.113 513.302 285.62C512.006 286.073 510.103 286.375 507.448 286.375H498.67V270.644H507.448C510.122 270.644 512.055 270.928 513.381 271.36L513.422 271.373L513.462 271.386C514.864 271.809 515.655 272.339 516.102 272.804L516.159 272.863L516.218 272.92C516.767 273.447 517.131 274.06 517.338 274.839C517.629 275.941 517.791 277.201 517.791 278.64C517.791 279.815 517.641 280.905 517.354 281.925C517.156 282.629 516.774 283.32 516.105 284.017ZM536.655 301.624L536.667 301.613L536.679 301.603C540.21 298.52 542.914 294.818 544.76 290.531C546.651 286.196 547.567 281.475 547.567 276.423C547.567 272.398 546.819 268.536 545.313 264.869C543.745 261.007 541.25 257.685 537.925 254.911C534.552 252.053 530.304 249.901 525.332 248.353C520.267 246.762 514.276 246.019 507.448 246.019H498.67V208.01H468.634V311H507.448C513.483 311 519.003 310.217 523.958 308.582C528.853 306.966 533.114 304.666 536.655 301.624ZM550.259 311H580.425V208.01H550.259V311Z" fill="white"></path></svg> 