<?xml version="1.0" encoding="UTF-8"?> <svg xmlns="http://www.w3.org/2000/svg" width="1440" height="501" viewBox="0 0 1440 501" fill="none"><path fill-rule="evenodd" clip-rule="evenodd" d="M1440 0.228516H0V500.229H1440V0.228516ZM182.062 310.228C179.357 310.228 176.808 309.491 174.658 307.826C172.791 306.38 171.237 304.433 169.927 302.166L169.892 302.105L154.093 272.399C153.264 270.886 152.625 270.449 152.402 270.345C151.792 270.06 150.767 269.807 149.138 269.807H143.229V310.228H113.193V207.239H143.229V245.704H147.313C148.48 245.704 149.229 245.489 149.709 245.24L149.735 245.227L149.762 245.214C150.105 245.042 150.715 244.576 151.464 243.378L168.665 214.774C169.916 212.708 171.484 210.951 173.385 209.568C175.604 207.955 178.199 207.239 180.954 207.239H276.064V232.189H237.077V246.356H266.937V270.655H237.077V285.277H276.064V310.228H182.062ZM206.911 306.51L184.456 265.113L184.441 265.087C182.512 261.652 180.339 258.779 177.864 256.615C177.335 256.143 176.785 255.702 176.214 255.29C177.722 253.994 179.018 252.459 180.108 250.716L180.112 250.709L206.911 207.453V306.51ZM372.585 207.239V310.228H342.418V255.465L315.363 301.697L315.343 301.729C314.735 302.724 314.015 303.68 313.201 304.601C312.376 305.584 311.451 306.477 310.432 307.282L310.379 307.323L310.326 307.362C309.233 308.168 308.053 308.829 306.794 309.344C305.353 309.933 303.838 310.228 302.281 310.228H281.656V207.239H311.458C310.831 206.962 310.223 206.665 309.634 206.346L309.59 206.322L309.546 206.297C307.062 204.87 304.982 203.051 303.426 200.802L303.406 200.774L303.386 200.744C301.771 198.321 301.019 195.553 301.019 192.593C301.019 191.581 301.155 190.583 301.415 189.606C301.675 188.632 302.061 187.676 302.622 186.794L302.645 186.759L302.669 186.723C303.285 185.799 304.074 184.982 305.053 184.351C306.293 183.535 307.679 183.182 309.061 183.182H325.057V187.182C325.057 188.943 325.136 190.273 325.266 191.224C325.375 191.776 325.505 192.07 325.577 192.201C325.58 192.203 325.585 192.206 325.591 192.209C325.605 192.217 325.628 192.228 325.662 192.241C326.223 192.353 327.096 192.439 328.359 192.439C329.597 192.439 330.461 192.351 331.024 192.235C331.044 192.228 331.061 192.221 331.074 192.216L331.122 192.157C331.126 192.151 331.281 191.943 331.378 191.29L331.387 191.231L331.397 191.173C331.557 190.277 331.661 188.971 331.661 187.182V183.182H347.657C348.982 183.182 350.364 183.509 351.597 184.347C352.581 184.955 353.396 185.767 354.005 186.75C354.618 187.636 355.036 188.606 355.303 189.606C355.564 190.583 355.699 191.581 355.699 192.593C355.699 195.573 354.915 198.352 353.248 200.773C351.713 203.064 349.604 204.892 347.075 206.315L347.063 206.322L347.051 206.329C344.568 207.702 341.702 208.669 338.527 209.294C335.401 209.919 332.006 210.219 328.359 210.219C324.71 210.219 321.295 209.919 318.133 209.296L318.121 209.293C315.866 208.842 313.759 208.217 311.823 207.396V262.002L338.878 215.77L338.898 215.738C339.488 214.772 340.17 213.832 340.933 212.916L340.974 212.867L341.016 212.819C341.879 211.849 342.828 210.977 343.862 210.209C344.962 209.349 346.158 208.65 347.446 208.123C348.888 207.534 350.402 207.239 351.96 207.239H372.585ZM453.214 277.65C451.956 277.65 450.753 277.94 449.644 278.475C448.711 278.886 447.85 279.424 447.068 280.076L447.009 280.125L446.953 280.176C445.81 281.205 444.73 282.024 443.716 282.658C442.731 283.231 441.67 283.712 440.527 284.096C439.351 284.449 438.058 284.725 436.641 284.914C435.165 285.067 433.499 285.147 431.635 285.147C428.69 285.147 425.984 284.58 423.475 283.469C420.978 282.363 418.77 280.758 416.836 278.612C414.964 276.444 413.401 273.717 412.2 270.352C411.073 267.074 410.469 263.209 410.469 258.701C410.469 254.199 411.017 250.339 412.042 247.07C413.126 243.706 414.589 241.024 416.364 238.928C418.209 236.758 420.338 235.153 422.767 234.06C425.25 232.962 428.034 232.385 431.178 232.385C433.295 232.385 435.012 232.546 436.373 232.825L436.382 232.827L436.392 232.829C437.947 233.14 439.184 233.509 440.145 233.907L440.221 233.938L440.298 233.966C441.38 234.363 442.19 234.775 442.781 235.169L442.871 235.229L442.965 235.284C443.869 235.819 444.676 236.324 445.389 236.799L445.454 236.842L445.522 236.884C446.384 237.411 447.223 237.881 448.035 238.287C449.29 238.914 450.642 239.231 452.041 239.231C453.696 239.231 455.559 238.902 457.144 237.739L457.212 237.69L457.278 237.637C458.151 236.939 458.937 236.158 459.619 235.29L459.651 235.25L469.155 222.494L466.769 220.05C464.783 218.016 462.531 216.151 460.026 214.45C457.474 212.716 454.701 211.26 451.716 210.074C448.724 208.841 445.526 207.904 442.133 207.251C438.716 206.542 435.104 206.196 431.309 206.196C423.848 206.196 416.914 207.472 410.557 210.081C404.25 212.67 398.784 216.319 394.21 221.037C389.641 225.749 386.122 231.34 383.638 237.76C381.136 244.184 379.912 251.179 379.912 258.701C379.912 266.069 381.041 272.983 383.34 279.411L383.343 279.42C385.638 285.79 388.943 291.381 393.275 296.142L393.289 296.158L393.304 296.173C397.698 300.902 403.007 304.604 409.176 307.289L409.193 307.296L409.21 307.303C415.513 309.977 422.533 311.272 430.2 311.272C438.484 311.272 445.859 309.945 452.216 307.152L452.229 307.147C458.619 304.312 463.957 300.11 468.191 294.577L470.266 291.866L459.143 280.161L459.107 280.125C458.321 279.34 457.355 278.648 456.19 278.232C455.258 277.86 454.259 277.65 453.214 277.65ZM561.562 310.228V207.239H540.938C539.38 207.239 537.866 207.534 536.424 208.124C535.136 208.65 533.94 209.349 532.84 210.209C531.806 210.977 530.857 211.849 529.994 212.819L529.952 212.867L529.911 212.916C529.148 213.832 528.466 214.772 527.876 215.738L527.856 215.77L500.8 262.003V207.239H470.634V310.228H491.259C492.816 310.228 494.331 309.934 495.772 309.344C497.031 308.829 498.211 308.168 499.304 307.362L499.357 307.323L499.409 307.282C500.428 306.477 501.354 305.584 502.179 304.601C502.993 303.68 503.713 302.724 504.321 301.73L504.341 301.697L531.396 255.465V310.228H561.562Z" fill="white"></path></svg> 