<?xml version="1.0" encoding="UTF-8"?> <svg xmlns="http://www.w3.org/2000/svg" width="1440" height="500" viewBox="0 0 1440 500" fill="none"><path fill-rule="evenodd" clip-rule="evenodd" d="M1440 0H0V500H1440V0ZM184.062 304H210.927L186.456 258.884L186.441 258.859C184.512 255.424 182.339 252.55 179.864 250.387C179.335 249.915 178.785 249.474 178.214 249.062C179.722 247.766 181.018 246.231 182.108 244.487L182.112 244.481L209.044 201.01H182.954C180.199 201.01 177.604 201.727 175.385 203.34C173.484 204.723 171.916 206.48 170.665 208.546L153.464 237.149C152.715 238.348 152.105 238.814 151.762 238.985L151.735 238.998L151.709 239.012C151.229 239.261 150.48 239.476 149.313 239.476H145.229V201.01H115.193V304H145.229V263.579H151.138C152.767 263.579 153.792 263.832 154.402 264.116C154.625 264.221 155.264 264.658 156.093 266.171L171.892 295.877L171.927 295.938C173.237 298.205 174.791 300.152 176.658 301.598C178.808 303.262 181.357 304 184.062 304ZM292.111 289.905L292.118 289.898L292.125 289.891C296.811 285.111 300.421 279.51 302.957 273.127C305.551 266.708 306.829 259.809 306.829 252.473C306.829 245.176 305.55 238.3 302.957 231.883C300.419 225.497 296.805 219.911 292.111 215.17C287.405 210.416 281.752 206.716 275.211 204.05C268.627 201.306 261.385 199.967 253.542 199.967C245.7 199.967 238.443 201.283 231.823 203.979C225.278 206.643 219.605 210.342 214.856 215.091L214.849 215.098L214.842 215.105C210.15 219.844 206.516 225.425 203.936 231.806L203.931 231.817L203.927 231.829C201.379 238.246 200.124 245.14 200.124 252.473C200.124 259.805 201.379 266.699 203.927 273.116L203.931 273.128L203.936 273.14C206.515 279.517 210.145 285.114 214.828 289.891L214.842 289.906L214.856 289.92C219.605 294.669 225.278 298.367 231.823 301.032C238.443 303.727 245.7 305.043 253.542 305.043C261.381 305.043 268.618 303.728 275.199 301.03C281.745 298.364 287.402 294.663 292.111 289.905ZM274.639 241.05L274.643 241.063C275.707 244.332 276.272 248.12 276.272 252.473C276.272 256.87 275.707 260.705 274.64 264.021C273.571 267.302 272.063 269.975 270.168 272.121L270.155 272.135L270.143 272.15C268.305 274.27 266.04 275.91 263.289 277.072C260.549 278.186 257.323 278.788 253.542 278.788C249.717 278.788 246.444 278.186 243.656 277.069C240.908 275.907 238.617 274.265 236.733 272.135C234.875 269.987 233.384 267.309 232.312 264.019C231.246 260.703 230.681 256.869 230.681 252.473C230.681 248.12 231.246 244.332 232.31 241.063L232.314 241.05C233.389 237.712 234.88 235.017 236.733 232.875C238.622 230.74 240.919 229.095 243.676 227.933C246.457 226.779 249.722 226.157 253.542 226.157C257.317 226.157 260.535 226.779 263.268 227.93C266.028 229.092 268.3 230.735 270.143 232.861L270.155 232.875L270.168 232.889C272.058 235.029 273.567 237.72 274.639 241.05ZM402.726 304V201.01H372.559V240.714H341.964V201.01H311.797V304H341.964V263.84H372.559V304H402.726ZM462.685 226.483H489.415V201.01H405.919V226.483H432.649V304H462.685V226.483ZM504.564 296.614L509.282 282.681H539.662L544.404 296.686L544.473 296.844C545.343 298.832 546.644 300.523 548.355 301.853L548.392 301.882L548.43 301.91C550.478 303.428 552.935 304 555.44 304H605.798V263.579H611.707C613.336 263.579 614.361 263.832 614.971 264.116C615.194 264.221 615.833 264.658 616.661 266.17L616.671 266.188L632.461 295.877L632.497 295.938C633.806 298.205 635.36 300.152 637.227 301.598C639.377 303.262 641.926 304 644.631 304H671.497L647.025 258.884L647.01 258.859C645.081 255.423 642.907 252.549 640.432 250.386C639.903 249.915 639.354 249.473 638.783 249.062C640.291 247.766 641.587 246.231 642.677 244.487L642.681 244.481L642.685 244.474L662.243 212.906V226.483H688.973V304H719.009V226.483H745.739V201.01H643.523C640.768 201.01 638.173 201.727 635.954 203.34C634.053 204.723 632.485 206.48 631.234 208.546L631.228 208.556L614.047 237.126L614.033 237.149C613.284 238.348 612.674 238.814 612.331 238.985L612.304 238.998L612.278 239.012C611.798 239.261 611.049 239.476 609.882 239.476H605.798V201.01H575.762V297.291L538.492 201.01H510.452L470.585 304H493.635C496.189 304 498.627 303.316 500.67 301.711L500.677 301.705L500.684 301.7C502.37 300.362 503.74 298.712 504.529 296.703L504.564 296.614ZM524.284 238.425C524.354 238.24 524.425 238.052 524.496 237.862C524.649 238.27 524.802 238.665 524.952 239.048L531.935 259.686H517.07L523.992 239.177C524.051 239.029 524.109 238.878 524.168 238.726C524.206 238.626 524.245 238.526 524.284 238.425ZM796.407 277.017L796.405 277.019C795.913 277.532 795.059 278.113 793.605 278.62C792.309 279.073 790.406 279.375 787.751 279.375H778.973V263.644H787.751C790.425 263.644 792.358 263.928 793.684 264.36L793.724 264.373L793.765 264.386C795.166 264.809 795.958 265.339 796.405 265.804L796.462 265.863L796.52 265.92C797.069 266.447 797.434 267.06 797.64 267.839C797.932 268.941 798.094 270.201 798.094 271.64C798.094 272.815 797.943 273.905 797.657 274.925C797.459 275.629 797.077 276.32 796.407 277.017ZM816.957 294.624L816.97 294.613L816.982 294.603C820.51 291.521 823.213 287.823 825.059 283.539C826.952 279.202 827.869 274.478 827.869 269.423C827.869 265.395 827.12 261.531 825.613 257.863C824.045 254.004 821.551 250.683 818.228 247.911C814.855 245.053 810.607 242.901 805.635 241.353C800.57 239.762 794.578 239.019 787.751 239.019H778.973V201.01H748.937V304H787.751C793.785 304 799.305 303.217 804.26 301.582C809.156 299.966 813.417 297.666 816.957 294.624ZM830.561 304H860.728V201.01H830.561V304Z" fill="white"></path></svg> 