<?xml version="1.0" encoding="UTF-8"?> <svg xmlns="http://www.w3.org/2000/svg" width="1440" height="501" viewBox="0 0 1440 501" fill="none"><path fill-rule="evenodd" clip-rule="evenodd" d="M1440 0.228516H0V500.229H1440V0.228516ZM186.037 298.239H212.903L188.431 253.123L188.417 253.098C186.487 249.662 184.314 246.789 181.839 244.625C181.31 244.154 180.76 243.712 180.19 243.301C181.698 242.004 182.993 240.47 184.083 238.726L184.087 238.719L211.019 195.249H184.929C182.174 195.249 179.579 195.966 177.361 197.579C175.459 198.962 173.891 200.719 172.64 202.785L155.439 231.388C154.69 232.587 154.08 233.052 153.737 233.224L153.711 233.237L153.685 233.251C153.204 233.5 152.456 233.714 151.288 233.714H147.204V195.249H117.168V298.239H147.204V257.818H153.114C154.742 257.818 155.767 258.07 156.377 258.355C156.6 258.459 157.24 258.897 158.068 260.41L173.868 290.116L173.903 290.177C175.213 292.443 176.766 294.391 178.634 295.837C180.783 297.501 183.332 298.239 186.037 298.239ZM294.087 284.144L294.094 284.137L294.101 284.13C298.786 279.35 302.396 273.749 304.932 267.366C307.527 260.946 308.805 254.048 308.805 246.711C308.805 239.415 307.525 232.538 304.932 226.122C302.395 219.735 298.781 214.15 294.087 209.409C289.38 204.655 283.728 200.954 277.187 198.289C270.603 195.545 263.36 194.206 255.517 194.206C247.675 194.206 240.418 195.522 233.798 198.217C227.254 200.882 221.58 204.58 216.831 209.329L216.824 209.337L216.817 209.344C212.126 214.083 208.492 219.663 205.911 226.044L205.907 226.056L205.902 226.068C203.354 232.485 202.099 239.379 202.099 246.711C202.099 254.043 203.354 260.938 205.902 267.355L205.907 267.367L205.911 267.378C208.491 273.756 212.12 279.353 216.803 284.13L216.817 284.144L216.831 284.159C221.58 288.907 227.254 292.606 233.798 295.27C240.418 297.966 247.675 299.282 255.517 299.282C263.356 299.282 270.594 297.967 277.175 295.269C283.721 292.603 289.377 288.901 294.087 284.144ZM276.614 235.289L276.618 235.302C277.683 238.571 278.247 242.359 278.247 246.711C278.247 251.109 277.682 254.943 276.615 258.26C275.546 261.541 274.039 264.214 272.143 266.36L272.131 266.374L272.118 266.388C270.28 268.509 268.015 270.149 265.265 271.311C262.524 272.425 259.298 273.027 255.517 273.027C251.692 273.027 248.419 272.425 245.631 271.307C242.883 270.146 240.593 268.503 238.708 266.374C236.85 264.226 235.36 261.548 234.288 258.258C233.221 254.942 232.657 251.108 232.657 246.711C232.657 242.359 233.221 238.571 234.286 235.302L234.29 235.289C235.364 231.951 236.856 229.255 238.708 227.114C240.597 224.979 242.895 223.334 245.652 222.172C248.432 221.018 251.698 220.396 255.517 220.396C259.293 220.396 262.511 221.018 265.244 222.168C268.004 223.331 270.276 224.973 272.118 227.099L272.131 227.114L272.143 227.128C274.033 229.268 275.542 231.959 276.614 235.289ZM404.701 298.239V195.249H374.535V234.953H343.939V195.249H313.773V298.239H343.939V258.078H374.535V298.239H404.701ZM464.66 220.722H491.39V195.249H407.894V220.722H434.624V298.239H464.66V220.722ZM506.54 290.853L511.257 276.92H541.638L546.38 290.925L546.449 291.083C547.318 293.071 548.619 294.761 550.331 296.092L550.368 296.121L550.405 296.149C552.454 297.666 554.91 298.239 557.415 298.239H607.773V257.818H613.683C615.311 257.818 616.336 258.07 616.946 258.355C617.17 258.459 617.809 258.897 618.637 260.409L618.647 260.427L634.437 290.116L634.472 290.177C635.782 292.443 637.335 294.391 639.203 295.837C641.352 297.501 643.901 298.239 646.606 298.239H673.472L649 253.123L648.986 253.098C647.056 249.662 644.883 246.788 642.407 244.624C641.879 244.153 641.329 243.712 640.759 243.301C642.267 242.004 643.562 240.47 644.652 238.726L644.657 238.719L644.661 238.713L664.219 207.145V220.722H690.949V298.239H720.985V220.722H747.715V195.249H645.498C642.743 195.249 640.148 195.966 637.93 197.579C636.028 198.962 634.46 200.719 633.21 202.785L633.204 202.795L616.023 231.365L616.008 231.388C615.259 232.587 614.649 233.052 614.306 233.224L614.28 233.237L614.254 233.251C613.774 233.5 613.025 233.714 611.857 233.714H607.773V195.249H577.737V291.53L540.467 195.249H512.428L472.561 298.239H495.61C498.165 298.239 500.602 297.555 502.645 295.95L502.652 295.944L502.659 295.938C504.346 294.601 505.715 292.951 506.505 290.942L506.54 290.853ZM525.968 233.416C526.134 232.994 526.301 232.555 526.471 232.1C526.625 232.509 526.777 232.904 526.927 233.287L533.91 253.925H519.045L525.968 233.416ZM841.841 298.239V195.249H821.216C819.658 195.249 818.144 195.544 816.702 196.134C815.415 196.66 814.219 197.359 813.12 198.218C812.085 198.987 811.135 199.859 810.272 200.829L810.23 200.877L810.189 200.926C809.426 201.842 808.744 202.782 808.154 203.748L808.134 203.781L781.079 250.013V195.249H750.912V298.239H771.537C773.094 298.239 774.609 297.944 776.05 297.354C777.309 296.839 778.489 296.178 779.582 295.373L779.635 295.333L779.688 295.292C780.707 294.487 781.632 293.594 782.457 292.611C783.271 291.69 783.991 290.734 784.599 289.74L784.619 289.707L784.638 289.674L811.674 243.475V298.239H841.841Z" fill="white"></path></svg> 