<?xml version="1.0" encoding="UTF-8"?> <svg xmlns="http://www.w3.org/2000/svg" width="1440" height="500" viewBox="0 0 1440 500" fill="none"><path fill-rule="evenodd" clip-rule="evenodd" d="M1440 0H0V500H1440V0ZM243.901 160.386V64H213.734V103.704H183.139V64H152.972V166.99H183.139V126.829H213.734V166.99H264.394C266.948 166.99 269.386 166.306 271.429 164.701L271.436 164.695L271.443 164.689C273.13 163.352 274.499 161.702 275.288 159.693L275.323 159.604L280.041 145.671H310.422L315.164 159.676L315.232 159.834C316.102 161.822 317.403 163.512 319.114 164.843L319.151 164.872L319.189 164.9C321.238 166.417 323.694 166.99 326.199 166.99H388.465C394.487 166.99 399.978 166.232 404.886 164.644L404.903 164.638L404.92 164.633C409.754 163.021 413.947 160.77 417.403 157.815L417.407 157.812C420.872 154.841 423.543 151.33 425.362 147.289C427.173 143.265 428.061 138.942 428.061 134.369C428.061 128.199 426.324 122.805 422.559 118.549C420.667 116.41 418.321 114.647 415.589 113.214C417.803 111.629 419.703 109.851 421.234 107.861L421.249 107.842L421.263 107.822C422.824 105.74 423.999 103.487 424.751 101.069L424.755 101.057L424.758 101.045C425.484 98.6611 425.845 96.2037 425.845 93.6869C425.845 89.3183 425.092 85.2416 423.514 81.5175C421.921 77.6525 419.354 74.4056 415.922 71.7931C412.487 69.1783 408.211 67.2706 403.242 65.9581C398.203 64.627 392.254 64 385.466 64H346.521V160.281L309.251 64H281.212L243.901 160.386ZM297.352 94.7668L297.36 94.7886L297.362 94.7948C297.369 94.8167 297.376 94.8386 297.384 94.8605C296.887 93.3415 296.39 91.7441 295.894 90.0681C296.375 91.6954 296.857 93.2486 297.339 94.7278L297.352 94.7668ZM295.255 100.851C295.409 101.26 295.561 101.655 295.711 102.038L302.694 122.676H287.829L294.752 102.167C294.917 101.745 295.085 101.306 295.255 100.851ZM393.709 141.537L393.694 141.543L393.679 141.549C392.501 142.025 390.695 142.365 388.073 142.365H376.557V126.699H387.943C390.509 126.699 392.411 126.943 393.755 127.327C395.18 127.734 396.055 128.239 396.579 128.701L396.608 128.726L396.638 128.751C397.198 129.225 397.546 129.757 397.751 130.411L397.768 130.465L397.786 130.519C398.097 131.423 398.286 132.538 398.286 133.912C398.286 135.086 398.136 136.242 397.832 137.387C397.606 138.243 397.197 139.012 396.558 139.73C396.031 140.323 395.154 140.965 393.709 141.537ZM393.451 102.226L393.426 102.241L393.402 102.257C392.594 102.778 391.47 103.229 389.916 103.505C388.236 103.804 386.281 103.965 384.031 103.965H376.557V88.4944H385.466C387.75 88.4944 389.576 88.6763 390.997 88.9881L391.007 88.9903L391.017 88.9924C392.4 89.2887 393.305 89.7338 393.897 90.1944C394.431 90.6092 394.881 91.1905 395.211 92.0807L395.218 92.0986L395.225 92.1165C395.558 92.9877 395.809 94.3307 395.809 96.2948C395.809 98.2005 395.499 99.4679 395.102 100.284L395.082 100.326L395.062 100.369C394.686 101.193 394.163 101.78 393.451 102.226ZM433.872 166.99H464.039V64H433.872V166.99ZM619.275 179.158V142.626H606.497V64H576.33V142.626H555.514V64H525.348V142.626H504.531V64H474.365V166.99H591.064V189.156H608.364C611.128 189.156 613.769 188.408 615.906 186.577C618.18 184.669 619.275 182.057 619.275 179.158ZM210.801 291.99H240.967V189H152.972V291.99H183.139V213.364H210.801V291.99ZM298.275 216.365L298.323 216.412L298.371 216.458C299.247 217.277 299.903 218.264 300.346 219.475C300.816 220.757 301.081 222.261 301.081 224.033C301.081 228.269 300.004 231.009 298.357 232.798C296.921 234.357 294.131 235.615 288.912 235.615H281.438V213.494H288.912C291.379 213.494 293.302 213.805 294.77 214.316L294.782 214.32L294.795 214.324C296.356 214.856 297.472 215.562 298.275 216.365ZM307.172 257.694L307.183 257.691L307.193 257.687C312.436 255.94 316.925 253.475 320.539 250.212C324.138 246.963 326.823 243.047 328.568 238.508C330.285 234.044 331.117 229.204 331.117 224.033C331.117 219.186 330.299 214.602 328.626 210.32C326.912 205.936 324.239 202.138 320.658 198.952C317.079 195.729 312.608 193.313 307.378 191.614C302.081 189.836 295.897 189 288.912 189H251.402V291.99H281.438V260.239H288.912C295.777 260.239 301.889 259.423 307.172 257.694ZM348.923 284.604L353.64 270.671H384.021L388.763 284.676L388.832 284.834C389.702 286.822 391.003 288.512 392.714 289.843L392.751 289.872L392.789 289.9C394.837 291.417 397.293 291.99 399.798 291.99H492.683V314.156H509.982C512.746 314.156 515.386 313.408 517.523 311.578C519.798 309.67 520.893 307.058 520.893 304.158V267.626H508.115V189H477.948V267.626H450.287V189H420.12V285.281L382.85 189H354.811L314.944 291.99H337.993C340.548 291.99 342.985 291.306 345.028 289.701L345.035 289.695L345.042 289.689C346.729 288.352 348.098 286.702 348.888 284.693L348.923 284.604ZM369.441 214.892C369.94 216.583 370.439 218.195 370.939 219.728C370.953 219.772 370.969 219.816 370.983 219.86C370.469 218.288 369.955 216.632 369.441 214.892ZM368.351 227.167C368.517 226.745 368.685 226.306 368.854 225.851C369.008 226.26 369.16 226.655 369.311 227.038L376.293 247.676H361.429L368.351 227.167ZM148.976 324.01L146.509 326.099L153.574 339.304L153.646 339.418C154.459 340.719 155.442 341.932 156.659 342.845L156.705 342.879L156.752 342.913C158.317 344.018 160.114 344.427 161.862 344.427C163.686 344.427 165.431 343.897 167.041 343.092L167.065 343.08L167.09 343.067C168.31 342.436 169.708 341.737 171.286 340.969C172.71 340.296 174.37 339.674 176.282 339.117L176.307 339.109L176.333 339.102C177.997 338.592 180.065 338.299 182.594 338.299C187.092 338.299 189.741 339.143 191.184 340.199L191.203 340.213L191.222 340.227C192.601 341.212 193.198 342.367 193.198 344.078C193.198 346.418 192.409 347.834 190.935 348.88C189.269 350.018 186.185 350.901 181.029 350.901H164.953L165.049 375.982H182.891L182.926 375.981C185.083 375.943 186.957 376.137 188.574 376.524L188.584 376.526L188.593 376.528C190.239 376.914 191.489 377.474 192.433 378.132L192.49 378.171L192.547 378.209C193.51 378.832 194.16 379.547 194.599 380.351L194.621 380.392L194.644 380.432C195.077 381.184 195.349 382.13 195.349 383.391C195.349 385.417 195.051 386.876 194.62 387.902C194.177 388.953 193.568 389.734 192.793 390.333L192.768 390.353L192.743 390.373C191.97 390.992 190.921 391.524 189.488 391.887C187.935 392.236 186.082 392.43 183.898 392.43C180.817 392.43 178.33 392.053 176.362 391.397C174.06 390.629 172.108 389.804 170.482 388.935C168.682 387.95 167.083 387.054 165.683 386.248C163.78 385.152 161.706 384.476 159.515 384.476C157.79 384.476 156.156 384.934 154.681 385.812C153.395 386.561 152.289 387.549 151.423 388.777L151.364 388.86L143 402.075L145.471 404.336C147.751 406.423 150.341 408.287 153.221 409.939L153.233 409.946L153.246 409.953C156.133 411.583 159.194 412.997 162.425 414.197L162.457 414.209L162.489 414.22C165.777 415.378 169.174 416.278 172.677 416.923C176.212 417.575 179.736 417.902 183.246 417.902C189.473 417.902 195.152 417.049 200.222 415.263L200.238 415.257L200.254 415.251C205.232 413.45 209.546 410.965 213.113 407.744C216.659 404.543 219.373 400.768 221.215 396.442C223.092 392.093 224.016 387.445 224.016 382.543C224.016 379.989 223.601 377.532 222.741 375.203C221.959 372.926 220.842 370.821 219.396 368.899C218.003 366.949 216.323 365.202 214.38 363.654C214.038 363.374 213.691 363.1 213.338 362.833C215.491 360.825 217.246 358.528 218.56 355.934C220.727 351.698 221.8 347.118 221.8 342.253C221.8 337.914 220.837 333.857 218.865 330.159C216.952 326.448 214.204 323.316 210.702 320.765C207.211 318.222 203.072 316.323 198.365 315.002C193.641 313.621 188.436 312.957 182.79 312.957C176.101 312.957 169.803 313.926 163.924 315.9C158.133 317.815 153.121 320.499 148.976 324.01ZM350.607 410.386V314H320.441V353.704H289.845V314H259.679V416.99H289.845V376.829H320.441V416.99H371.1C373.655 416.99 376.092 416.306 378.135 414.701L378.142 414.695L378.149 414.689C379.836 413.352 381.205 411.702 381.995 409.693L382.03 409.604L386.747 395.671H417.128L421.87 409.676L421.939 409.834C422.809 411.822 424.11 413.512 425.821 414.843L425.858 414.872L425.896 414.9C427.944 416.417 430.4 416.99 432.905 416.99H480.655V367L497.872 400.411C498.952 402.51 500.481 404.255 502.501 405.467L502.526 405.481L502.55 405.496C504.561 406.663 506.786 407.21 509.123 407.21H512.122C514.446 407.21 516.663 406.669 518.652 405.483C520.712 404.28 522.278 402.536 523.371 400.413L523.372 400.411L540.589 367.089V416.99H568.017V314H547.197C546.183 314 545.255 314.023 544.419 314.072L544.412 314.073L544.405 314.073C543.363 314.138 542.325 314.339 541.328 314.723C540.182 315.164 539.198 315.844 538.37 316.671C537.545 317.497 536.891 318.51 536.355 319.527L536.342 319.553L511.977 367.501C511.499 368.368 511.033 369.257 510.579 370.165C510.18 369.341 509.771 368.53 509.351 367.733L509.337 367.707L484.903 319.554L484.889 319.527C484.354 318.511 483.683 317.502 482.813 316.672C482.012 315.828 481.043 315.156 479.917 314.723C478.895 314.33 477.827 314.135 476.768 314.073C475.967 314.023 475.056 314 474.048 314H453.227V410.281L415.957 314H387.918L350.607 410.386ZM404.046 344.728C404.06 344.772 404.075 344.816 404.09 344.86C403.577 343.293 403.065 341.642 402.552 339.906C403.05 341.593 403.548 343.2 404.046 344.728ZM401.961 350.851C402.115 351.26 402.267 351.655 402.418 352.038L409.4 372.676H394.536L401.458 352.167C401.624 351.745 401.792 351.306 401.961 350.851ZM510.648 380.132C511.379 378.242 512.131 376.394 512.905 374.59L512.849 374.72L512.829 374.765C512.806 374.82 512.782 374.875 512.759 374.93C512.036 376.627 511.333 378.361 510.648 380.132ZM501.431 398.581L476.2 349.62L478.525 354.134L501.431 398.581ZM669.326 416.99V314H648.701C647.143 314 645.629 314.295 644.187 314.885C642.899 315.411 641.702 316.11 640.603 316.97C639.569 317.738 638.62 318.61 637.757 319.58L637.715 319.628L637.674 319.677C636.911 320.593 636.229 321.533 635.639 322.499L635.619 322.531L608.564 368.764V314H578.397V416.99H599.022C600.579 416.99 602.094 416.695 603.535 416.105C604.794 415.59 605.974 414.929 607.067 414.124L607.12 414.084L607.172 414.043C608.192 413.238 609.117 412.345 609.942 411.363C610.756 410.442 611.476 409.485 612.084 408.491L612.104 408.458L639.159 362.226V416.99H669.326ZM643.16 359.79C643.16 357.313 643.225 354.705 643.356 351.967C643.355 351.974 643.355 351.981 643.354 351.988L643.353 351.998L643.353 352.01L643.352 352.03C643.3 353.128 643.258 354.204 643.228 355.26C643.182 356.815 643.16 358.326 643.16 359.79ZM608.461 376.836C609.02 375.822 609.576 374.881 610.125 374.011C609.01 375.777 607.873 377.838 606.716 380.196C606.889 379.844 607.06 379.498 607.232 379.159L607.233 379.157C607.645 378.345 608.054 377.572 608.461 376.836ZM675.971 323.605L673.254 325.882L680.475 336.978C682.115 339.779 684.814 341.298 688.058 341.298C689.691 341.298 691.201 340.818 692.54 340.042C693.301 339.602 694.203 339.109 695.25 338.565L695.275 338.552L695.301 338.538C696.159 338.076 697.236 337.626 698.564 337.207C699.629 336.884 701.137 336.669 703.184 336.669C705.488 336.669 706.756 337.258 707.512 337.955L707.551 337.991L707.591 338.026C708.344 338.685 708.833 339.589 708.833 341.21C708.833 342.835 708.465 344.024 707.886 344.941L707.878 344.953L707.871 344.965C707.081 346.236 706.091 347.425 704.881 348.533C703.541 349.713 702.095 350.843 700.543 351.919C698.689 353.157 696.981 354.503 695.428 355.959C693.741 357.538 692.383 359.359 691.381 361.412C690.16 363.868 689.923 366.575 690.36 369.312L692.261 383.218H712.852L715.309 370.934C715.431 370.424 715.706 369.883 716.288 369.294C717.265 368.357 718.421 367.392 719.766 366.403L719.774 366.397L719.782 366.391C721.331 365.24 722.942 364.004 724.614 362.684C726.583 361.167 728.357 359.387 729.938 357.362C731.603 355.228 732.94 352.783 733.977 350.069L733.981 350.057L733.985 350.046C735.105 347.06 735.609 343.695 735.609 340.036C735.609 336.079 734.892 332.374 733.385 328.984C731.939 325.59 729.831 322.67 727.075 320.273C724.319 317.834 721.03 316.023 717.288 314.791C713.553 313.546 709.444 312.957 705.009 312.957C701.87 312.957 698.888 313.237 696.076 313.817C693.367 314.341 690.794 315.107 688.366 316.124C686.003 317.072 683.768 318.189 681.663 319.48L681.646 319.491L681.628 319.502C679.613 320.768 677.726 322.135 675.971 323.605ZM690.997 392.007L690.967 392.037C689.611 393.393 688.536 394.972 687.738 396.739L687.716 396.789L687.695 396.839C686.91 398.71 686.536 400.696 686.536 402.754C686.536 404.812 686.91 406.804 687.677 408.693L687.706 408.764L687.738 408.833C688.536 410.601 689.61 412.18 690.967 413.536L690.997 413.566L691.028 413.596C692.451 414.959 694.1 416.013 695.941 416.761C697.856 417.539 699.894 417.902 702.01 417.902C704.097 417.902 706.112 417.533 708.014 416.761C709.855 416.013 711.505 414.959 712.927 413.596C714.364 412.219 715.475 410.597 716.249 408.761C717.077 406.857 717.484 404.842 717.484 402.754C717.484 400.673 717.08 398.669 716.239 396.789C715.466 394.962 714.357 393.348 712.927 391.977C711.517 390.626 709.884 389.579 708.063 388.832C706.151 388.004 704.119 387.605 702.01 387.605C699.874 387.605 697.817 387.998 695.892 388.832C694.071 389.579 692.438 390.626 691.028 391.977L690.997 392.007ZM640.685 259.72L640.692 259.712C642.377 257.488 643.718 254.711 644.649 251.296C645.583 247.874 646.073 243.954 646.073 239.505C646.073 235.104 645.583 231.205 644.649 227.779C643.718 224.367 642.382 221.623 640.711 219.454L640.688 219.426L640.667 219.396C639.052 217.22 637.061 215.578 634.656 214.428L634.624 214.413L634.593 214.397C632.274 213.238 629.513 212.603 626.211 212.603C622.858 212.603 620.077 213.241 617.764 214.397L617.743 214.408L617.722 214.418C615.351 215.568 613.342 217.22 611.668 219.426C610.03 221.601 608.708 224.354 607.774 227.779C606.839 231.205 606.35 235.104 606.35 239.505C606.35 243.954 606.84 247.874 607.774 251.296C608.705 254.712 610.025 257.491 611.669 259.716C613.339 261.875 615.354 263.535 617.743 264.733C620.062 265.854 622.852 266.473 626.211 266.473C629.525 266.473 632.298 265.855 634.624 264.728C637.062 263.525 639.068 261.865 640.685 259.72ZM663.128 276.825L663.122 276.832C658.721 281.615 653.382 285.345 647.16 288.032C640.854 290.755 633.848 292.076 626.211 292.076C619.401 292.076 613.07 291.009 607.263 288.82L607.252 288.816C601.554 286.649 596.53 283.612 592.224 279.689C587.943 275.789 584.458 271.182 581.769 265.898L581.766 265.892L581.762 265.885C579.577 261.552 577.995 256.912 577.006 251.981H570.166V291.033H540V188.043H570.166V227.617H576.911C577.862 222.656 579.403 217.985 581.548 213.619C584.191 208.239 587.656 203.555 591.944 199.6C596.293 195.585 601.366 192.497 607.119 190.327C612.936 188.088 619.317 187 626.211 187C633.848 187 640.854 188.321 647.16 191.044C653.382 193.731 658.721 197.46 663.122 202.244C667.501 207.003 670.831 212.595 673.129 218.97C675.476 225.358 676.63 232.214 676.63 239.505C676.63 246.796 675.476 253.653 673.129 260.041C670.832 266.412 667.505 272.02 663.135 276.818L663.128 276.825ZM728.896 265.586L728.912 265.58C730.356 265.009 731.234 264.366 731.761 263.773C732.399 263.055 732.809 262.286 733.035 261.43C733.338 260.285 733.488 259.13 733.488 257.956C733.488 256.581 733.299 255.466 732.989 254.562L732.97 254.508L732.953 254.455C732.749 253.801 732.401 253.269 731.841 252.795L731.811 252.769L731.782 252.744C731.257 252.282 730.382 251.778 728.957 251.37C727.613 250.986 725.711 250.742 723.146 250.742H711.759V266.408H723.276C725.897 266.408 727.704 266.068 728.881 265.592L728.896 265.586ZM728.629 226.284L728.653 226.269C729.366 225.823 729.888 225.236 730.265 224.412L730.284 224.37L730.305 224.327C730.701 223.511 731.011 222.244 731.011 220.338C731.011 218.374 730.76 217.031 730.427 216.16L730.42 216.142L730.414 216.124C730.083 215.234 729.633 214.652 729.1 214.238C728.508 213.777 727.602 213.332 726.219 213.036L726.209 213.033L726.2 213.031C724.779 212.719 722.952 212.538 720.668 212.538H711.759V228.008H719.234C721.483 228.008 723.438 227.847 725.118 227.548C726.672 227.272 727.797 226.821 728.605 226.3L728.629 226.284ZM759.957 225.1L759.954 225.112C759.201 227.53 758.027 229.784 756.466 231.865L756.451 231.885L756.436 231.904C754.905 233.895 753.006 235.672 750.792 237.257C753.524 238.69 755.869 240.453 757.761 242.592C761.526 246.848 763.264 252.242 763.264 258.412C763.264 262.985 762.375 267.308 760.564 271.332C758.746 275.373 756.075 278.885 752.609 281.855L752.605 281.858C749.149 284.814 744.957 287.065 740.122 288.676L740.106 288.682L740.089 288.687C735.181 290.275 729.69 291.033 723.667 291.033H681.723V188.043H720.668C727.456 188.043 733.406 188.67 738.445 190.001C743.413 191.314 747.69 193.221 751.125 195.836C754.557 198.449 757.124 201.696 758.717 205.561C760.294 209.285 761.047 213.361 761.047 217.73C761.047 220.247 760.687 222.704 759.961 225.088L759.957 225.1ZM793.384 269.714L788.667 283.647L788.632 283.736C787.843 285.745 786.473 287.395 784.787 288.732L784.78 288.738L784.772 288.744C782.729 290.349 780.292 291.033 777.737 291.033H754.688L794.555 188.043H822.594L862.461 291.033H839.543C837.038 291.033 834.581 290.46 832.533 288.943L832.495 288.915L832.458 288.886C830.747 287.555 829.446 285.865 828.576 283.877L828.507 283.719L823.765 269.714H793.384ZM808.391 225.444C808.292 225.705 808.193 225.961 808.095 226.21L801.173 246.719H816.038L809.055 226.081C808.967 225.857 808.878 225.629 808.789 225.396C808.726 225.231 808.662 225.064 808.598 224.894C808.529 225.08 808.46 225.264 808.391 225.444ZM927.083 213.515H900.353V291.033H870.317V213.515H843.587V188.043H927.083V213.515ZM1021.21 188.043V291.033H991.042V236.269L963.987 282.501L963.967 282.534C963.36 283.528 962.64 284.484 961.825 285.405C961 286.388 960.075 287.281 959.056 288.086L959.004 288.127L958.95 288.167C957.857 288.972 956.678 289.633 955.419 290.148C953.977 290.738 952.463 291.033 950.905 291.033H930.281V188.043H960.447V242.807L987.502 196.575L987.522 196.542C988.112 195.576 988.794 194.636 989.557 193.72L989.598 193.671L989.641 193.623C990.503 192.653 991.452 191.781 992.487 191.013C993.586 190.153 994.783 189.455 996.071 188.928C997.512 188.338 999.027 188.043 1000.58 188.043H1021.21ZM712.988 150.938L712.995 150.931L713.002 150.924C717.687 146.144 721.297 140.543 723.833 134.16C726.427 127.74 727.706 120.842 727.706 113.505C727.706 106.209 726.426 99.3323 723.833 92.9156C721.296 86.5293 717.682 80.9442 712.988 76.2028C708.281 71.4486 702.628 67.7484 696.088 65.083C689.503 62.3385 682.261 61 674.418 61C666.576 61 659.319 62.3161 652.699 65.0114C646.155 67.676 640.481 71.3744 635.732 76.1234L635.725 76.1305L635.718 76.1376C631.027 80.8765 627.393 86.4573 624.812 92.8382L624.808 92.85L624.803 92.8618C622.255 99.2789 621 106.173 621 113.505C621 120.837 622.255 127.732 624.803 134.149L624.808 134.161L624.812 134.172C627.391 140.55 631.021 146.147 635.704 150.924L635.718 150.938L635.732 150.952C640.481 155.701 646.155 159.4 652.699 162.064C659.319 164.76 666.576 166.076 674.418 166.076C682.257 166.076 689.495 164.761 696.076 162.063C702.622 159.397 708.278 155.695 712.988 150.938ZM695.515 102.083L695.519 102.096C696.583 105.365 697.148 109.153 697.148 113.505C697.148 117.902 696.583 121.736 695.517 125.052C694.447 128.334 692.94 131.008 691.044 133.154L691.031 133.168L691.019 133.182C689.181 135.303 686.916 136.943 684.165 138.105C681.425 139.219 678.199 139.821 674.418 139.821C670.593 139.821 667.32 139.219 664.532 138.101C661.784 136.94 659.493 135.297 657.609 133.168C655.751 131.02 654.261 128.342 653.189 125.052C652.122 121.736 651.558 117.902 651.558 113.505C651.558 109.153 652.122 105.365 653.187 102.096L653.191 102.083C654.265 98.745 655.757 96.0492 657.609 93.9078C659.498 91.7732 661.796 90.1281 664.552 88.966C667.333 87.8118 670.598 87.1895 674.418 87.1895C678.193 87.1895 681.411 87.8115 684.145 88.9623C686.905 90.1245 689.177 91.7674 691.019 93.8934L691.031 93.9077L691.044 93.9218C692.934 96.0617 694.443 98.7525 695.515 102.083Z" fill="white"></path></svg> 