<?xml version="1.0" encoding="UTF-8"?> <svg xmlns="http://www.w3.org/2000/svg" width="720" height="500" viewBox="0 0 720 500" fill="none"><path fill-rule="evenodd" clip-rule="evenodd" d="M720 0H0V500H720V0ZM252.33 229.414L252.326 229.418C250.291 231.684 247.148 233.194 241.91 233.194C236.331 233.194 233.256 231.711 231.479 229.793C229.618 227.785 228.138 224.185 228.138 217.839C228.138 215.413 228.478 213.295 229.091 211.437C229.775 209.499 230.673 207.951 231.736 206.705C232.85 205.474 234.163 204.523 235.727 203.828L235.762 203.812L235.797 203.796C237.308 203.102 239.172 202.682 241.514 202.682C243.911 202.682 245.996 203.045 247.825 203.701C249.609 204.342 250.981 205.224 252.06 206.303L252.1 206.343L252.141 206.382C253.23 207.433 254.167 208.843 254.872 210.772L254.904 210.859L254.939 210.945C255.641 212.701 256.077 214.957 256.077 217.839C256.077 223.198 254.645 226.842 252.33 229.414ZM229.043 324.221C233.373 324.221 237.469 323.418 241.194 321.65C244.681 320.024 247.746 317.819 249.918 314.82L249.942 314.786L281.026 270.636C286.077 263.615 290.124 256.12 293.153 248.16C296.304 239.881 297.816 230.666 297.816 220.61C297.816 212.82 296.554 205.549 293.936 198.875C291.398 192.174 287.673 186.319 282.748 181.389C277.854 176.424 271.913 172.634 265.039 169.973C258.068 167.275 250.326 165.991 241.91 165.991C233.562 165.991 225.817 167.394 218.768 170.315C211.884 173.101 205.855 176.954 200.759 181.901L200.742 181.917L200.726 181.933C195.711 186.873 191.818 192.644 189.063 199.196L189.052 199.224L189.04 199.252C186.347 205.836 185.014 212.809 185.014 220.115C185.014 227.92 186.314 235.008 189.137 241.203C191.817 247.084 195.355 252.121 199.81 256.185L199.83 256.203L199.85 256.221C204.247 260.163 209.182 263.155 214.631 265.151L214.668 265.164L214.704 265.177C220.013 267.046 225.395 268.004 230.825 268.004C232.087 268.004 233.334 267.965 234.567 267.887L187.417 324.221H229.043ZM367.438 215.067C367.438 218.045 367.074 220.823 366.372 223.422C365.656 226.006 364.563 228.691 363.056 231.478C361.551 234.195 359.598 237.048 357.161 240.034C354.678 243.076 351.722 246.319 348.278 249.763L348.27 249.771L306.808 291.529C304.251 293.864 302.272 296.628 301.104 299.84C300.115 302.56 299.542 305.329 299.542 308.103V324.221H413.333V300.185C413.333 295.765 411.848 291.662 408.522 288.544C405.191 285.351 400.908 284.066 396.423 284.066H369.502C368.649 284.066 367.782 284.087 366.903 284.128L381.461 269.213L381.469 269.204C385.356 265.25 389.016 261.355 392.449 257.519C396.086 253.461 399.294 249.271 402.06 244.944L402.073 244.924L402.085 244.905C404.919 240.4 407.15 235.655 408.763 230.679C410.512 225.493 411.354 219.942 411.354 214.078C411.354 207.209 410.135 200.77 407.604 194.846C405.153 188.889 401.568 183.72 396.869 179.407C392.173 175.096 386.56 171.825 380.143 169.533C373.674 167.133 366.535 165.991 358.813 165.991C351.662 165.991 344.876 166.955 338.492 168.933C332.041 170.865 326.222 173.859 321.095 177.93L321.078 177.944L321.06 177.958C315.982 182.051 311.76 187.123 308.37 193.091L308.356 193.117L308.342 193.142C304.946 199.255 302.732 206.267 301.587 214.065L300.71 220.043L322.945 223.974L322.999 223.983C327.688 224.727 332.493 224.659 336.486 222.545C340.612 220.36 343.181 216.36 344.83 212.041L344.878 211.916L344.92 211.789C345.698 209.455 347.079 207.504 349.235 205.853L349.242 205.847L349.25 205.842C351.18 204.353 353.653 203.473 357.032 203.473C361.526 203.473 363.676 204.688 364.814 205.994L364.86 206.047L364.908 206.099C366.28 207.602 367.438 210.262 367.438 215.067ZM490.647 268.697H527.268V234.283H490.647V195.089H453.264V234.283H416.841V268.697H453.264V308.089H490.647V268.697Z" fill="white"></path></svg> 