<?xml version="1.0" encoding="UTF-8"?> <svg xmlns="http://www.w3.org/2000/svg" width="720" height="500" viewBox="0 0 720 500" fill="none"><path fill-rule="evenodd" clip-rule="evenodd" d="M720 0H0V500H720V0ZM356.242 322.221V287.609H332.489V165.475H298.666L247.474 208.436L260.676 225.948C261.73 227.415 263.1 228.546 264.422 229.428L264.545 229.51L264.672 229.586C266.317 230.573 268.1 231.235 269.957 231.626L270.112 231.659L270.268 231.683C272.194 231.987 274.14 231.974 276.077 231.697L276.194 231.68L276.31 231.659C278.952 231.179 281.304 229.968 283.356 228.382L283.444 228.315L289.365 223.393V287.609H261.652V322.221H356.242ZM428.154 227.414L428.151 227.418C426.115 229.684 422.973 231.194 417.735 231.194C412.156 231.194 409.081 229.711 407.303 227.793C405.443 225.785 403.963 222.185 403.963 215.839C403.963 213.413 404.302 211.295 404.916 209.437C405.599 207.5 406.498 205.951 407.561 204.705C408.675 203.474 409.988 202.523 411.552 201.828L411.587 201.812L411.622 201.796C413.132 201.102 414.996 200.682 417.339 200.682C419.736 200.682 421.821 201.045 423.65 201.701C425.434 202.342 426.806 203.224 427.885 204.303L427.925 204.343L427.965 204.382C429.055 205.433 429.992 206.843 430.697 208.772L430.729 208.859L430.763 208.945C431.466 210.701 431.902 212.957 431.902 215.839C431.902 221.198 430.469 224.842 428.154 227.414ZM404.868 322.221C409.198 322.221 413.295 321.418 417.019 319.65C420.506 318.024 423.571 315.819 425.743 312.82L425.767 312.786L456.85 268.636C461.901 261.616 465.949 254.121 468.978 246.16C472.128 237.881 473.641 228.666 473.641 218.61C473.641 210.82 472.379 203.549 469.76 196.874C467.223 190.173 463.497 184.318 458.573 179.389C453.679 174.424 447.738 170.634 440.864 167.973C433.893 165.275 426.151 163.991 417.735 163.991C409.387 163.991 401.642 165.394 394.593 168.315C387.709 171.101 381.68 174.954 376.584 179.901L376.567 179.917L376.551 179.933C371.536 184.873 367.643 190.644 364.888 197.196L364.877 197.224L364.865 197.252C362.171 203.836 360.839 210.809 360.839 218.115C360.839 225.92 362.139 233.008 364.962 239.203C367.642 245.084 371.18 250.121 375.635 254.185L375.655 254.203L375.675 254.221C380.072 258.163 385.007 261.155 390.456 263.151L390.493 263.164L390.529 263.177C395.837 265.046 401.22 266.004 406.65 266.004C407.912 266.004 409.159 265.965 410.391 265.887L363.242 322.221H404.868Z" fill="white"></path></svg> 