<?xml version="1.0" encoding="UTF-8"?> <svg xmlns="http://www.w3.org/2000/svg" width="1440" height="500" viewBox="0 0 1440 500" fill="none"><path fill-rule="evenodd" clip-rule="evenodd" d="M1440 0H0V500H1440V0ZM177.991 241.511V162.581H151.224V196.195H126.549V162.581H99.7825V251H126.549V217H151.224V251H194.727C197.001 251 199.205 250.389 201.062 248.931L201.069 248.925L201.076 248.92C202.569 247.735 203.805 246.256 204.521 244.433L204.556 244.344L208.414 232.951H233.254L237.136 244.417L237.205 244.574C237.981 246.349 239.146 247.863 240.677 249.053L240.714 249.082L240.752 249.11C242.62 250.494 244.84 251 247.051 251H376.734V162.581H349.968V229.146H333.571V162.581H306.805V229.146H290.409V162.581H263.643V241.422L233.123 162.581H208.544L177.991 241.511ZM215.422 212.256L220.853 196.166L226.297 212.256H215.422ZM462.482 251V162.581H444.407C443.01 162.581 441.649 162.846 440.354 163.375C439.212 163.842 438.152 164.461 437.18 165.221C436.272 165.896 435.44 166.661 434.684 167.511L434.641 167.559L434.601 167.608C433.937 168.404 433.342 169.224 432.825 170.07L432.805 170.102L411.04 207.295V162.581H384.274V251H402.349C403.746 251 405.107 250.735 406.402 250.205C407.514 249.75 408.557 249.166 409.523 248.454L409.577 248.415L409.629 248.373C410.522 247.669 411.334 246.885 412.058 246.023C412.766 245.222 413.396 244.385 413.931 243.511L413.951 243.479L435.716 206.286V251H462.482ZM186.325 366.688V335.146H175.507V268.581H148.74V335.146H126.549V268.581H99.7825V357H161.215V375.766H176.474C178.925 375.766 181.311 375.102 183.255 373.438C185.329 371.697 186.325 369.308 186.325 366.688ZM240.981 323.497V301.698H215.702V290.932H248.708V268.581H188.935V357H248.708V334.649H215.702V323.497H240.981ZM330.424 357V268.581H303.657V302.195H278.982V268.581H252.216V357H278.982V323H303.657V357H330.424ZM416.235 357V268.581H389.468V302.195H364.793V268.581H338.027V357H364.793V323H389.468V357H416.235ZM498.128 344.885L498.135 344.878L498.142 344.871C502.168 340.765 505.268 335.954 507.444 330.478C508.579 327.667 509.421 324.752 509.972 321.736C510.46 324.762 511.205 327.686 512.212 330.503L512.216 330.511C514.184 335.975 517.022 340.78 520.748 344.874L520.762 344.889L520.776 344.905C524.557 348.974 529.123 352.156 534.419 354.46L534.435 354.467L534.452 354.474C539.875 356.775 545.901 357.883 552.463 357.883C559.54 357.883 565.872 356.75 571.348 354.344L571.361 354.338C576.864 351.897 581.466 348.275 585.113 343.509L587.188 340.797L577.405 330.503L577.369 330.467C576.656 329.754 575.767 329.113 574.683 328.724C573.83 328.385 572.911 328.191 571.946 328.191C570.788 328.191 569.683 328.458 568.667 328.946C567.827 329.318 567.053 329.802 566.35 330.388L566.292 330.437L566.235 330.488C565.293 331.336 564.409 332.005 563.588 332.519C562.796 332.979 561.942 333.367 561.019 333.678C560.063 333.964 559.006 334.19 557.843 334.345C556.621 334.472 555.235 334.539 553.677 334.539C551.265 334.539 549.06 334.075 547.017 333.17C544.987 332.271 543.189 330.967 541.609 329.214C540.083 327.446 538.797 325.209 537.803 322.424C536.875 319.726 536.372 316.525 536.372 312.763C536.372 309.001 536.829 305.798 537.674 303.102C538.571 300.319 539.774 298.124 541.215 296.421C542.72 294.65 544.45 293.348 546.42 292.461C548.435 291.57 550.707 291.097 553.291 291.097C555.054 291.097 556.465 291.231 557.565 291.457L557.574 291.459L557.584 291.461C558.872 291.719 559.88 292.021 560.648 292.339L560.723 292.37L560.8 292.398C561.682 292.721 562.322 293.05 562.773 293.351L562.863 293.411L562.957 293.466C563.715 293.914 564.388 294.335 564.981 294.73L565.047 294.774L565.114 294.815C565.856 295.269 566.581 295.676 567.287 296.029C568.435 296.603 569.674 296.893 570.953 296.893C572.428 296.893 574.151 296.6 575.637 295.511L575.704 295.461L575.77 295.409C576.543 294.791 577.243 294.096 577.852 293.322L577.883 293.281L579.954 290.502V291.373H602.584V357H629.24V291.373H651.87V268.581H579.954V276.159C579.342 275.69 578.709 275.234 578.058 274.792C575.859 273.298 573.472 272.045 570.908 271.025C568.335 269.966 565.591 269.162 562.685 268.603C559.748 267.994 556.65 267.698 553.401 267.698C547.014 267.698 541.063 268.79 535.6 271.033C530.186 273.255 525.487 276.391 521.552 280.449C517.624 284.5 514.603 289.304 512.472 294.809C511.341 297.71 510.515 300.745 509.987 303.907C509.435 300.873 508.589 297.937 507.444 295.103C505.266 289.623 502.162 284.825 498.128 280.75C494.082 276.663 489.226 273.486 483.618 271.201C477.961 268.843 471.749 267.698 465.039 267.698C458.331 267.698 452.107 268.824 446.42 271.139C440.809 273.424 435.936 276.599 431.853 280.681L431.846 280.688L431.839 280.695C427.808 284.767 424.687 289.562 422.473 295.036L422.469 295.047L422.464 295.059C420.276 300.57 419.201 306.484 419.201 312.763C419.201 319.042 420.276 324.956 422.464 330.466L422.469 330.478L422.473 330.49C424.686 335.961 427.802 340.767 431.825 344.871L431.839 344.886L431.853 344.9C435.936 348.982 440.809 352.157 446.42 354.442C452.107 356.757 458.331 357.883 465.039 357.883C471.745 357.883 477.954 356.757 483.609 354.439C489.22 352.154 494.079 348.975 498.128 344.885ZM482.316 303.28L482.32 303.293C483.198 305.989 483.669 309.13 483.669 312.763C483.669 316.43 483.198 319.609 482.32 322.344C481.437 325.055 480.199 327.244 478.655 328.991L478.642 329.005L478.63 329.02C477.139 330.74 475.3 332.074 473.057 333.022C470.823 333.93 468.173 334.428 465.039 334.428C461.868 334.428 459.178 333.929 456.903 333.019C454.663 332.071 452.802 330.735 451.271 329.006C449.759 327.258 448.535 325.067 447.65 322.351C446.77 319.614 446.299 316.433 446.299 312.763C446.299 309.13 446.77 305.989 447.648 303.293L447.652 303.28C448.539 300.523 449.765 298.317 451.27 296.575C452.806 294.841 454.674 293.502 456.924 292.553C459.191 291.613 461.873 291.097 465.039 291.097C468.168 291.097 470.809 291.612 473.035 292.55C475.289 293.499 477.134 294.835 478.63 296.561L478.642 296.575L478.655 296.589C480.192 298.329 481.431 300.53 482.316 303.28ZM731.558 357V268.581H713.483C712.086 268.581 710.724 268.846 709.429 269.375C708.288 269.842 707.228 270.461 706.255 271.221C705.347 271.896 704.515 272.661 703.759 273.511L703.717 273.559L703.676 273.608C703.013 274.404 702.418 275.224 701.901 276.07L701.881 276.102L680.116 313.295V268.581H653.35V357H671.424C672.822 357 674.183 356.735 675.478 356.205C676.59 355.75 677.633 355.166 678.599 354.454L678.653 354.414L678.705 354.373C679.597 353.669 680.409 352.885 681.134 352.023C681.842 351.221 682.472 350.385 683.006 349.511L683.026 349.479L704.791 312.286V357H731.558Z" fill="white"></path></svg> 