<?xml version="1.0" encoding="UTF-8"?> <svg xmlns="http://www.w3.org/2000/svg" width="1440" height="501" viewBox="0 0 1440 501" fill="none"><path fill-rule="evenodd" clip-rule="evenodd" d="M1440 0.228516H0V500.229H1440V0.228516ZM190.991 265.74V186.81H164.224V220.423H139.549V186.81H112.783V275.229H139.549V241.229H164.224V275.229H207.727C210.001 275.229 212.205 274.618 214.062 273.16L214.069 273.154L214.076 273.148C215.569 271.964 216.805 270.484 217.521 268.662L217.556 268.573L221.414 257.18H246.254L250.136 268.645L250.205 268.803C250.981 270.577 252.146 272.091 253.677 273.282L253.714 273.311L253.752 273.339C255.62 274.723 257.84 275.229 260.051 275.229H389.734V186.81H362.968V253.375H346.571V186.81H319.805V253.375H303.409V186.81H276.643V265.651L246.123 186.81H221.544L190.991 265.74ZM228.422 236.485L233.853 220.395L239.297 236.485H228.422ZM397.274 275.229H424.04V186.81H397.274V275.229ZM199.325 390.917V359.375H188.507V292.81H161.74V359.375H139.549V292.81H112.783V381.229H174.215V399.995H189.474C191.925 399.995 194.311 399.33 196.255 397.667C198.329 395.926 199.325 393.537 199.325 390.917ZM201.935 381.229H228.702V292.81H201.935V381.229ZM314.425 381.229V292.81H287.658V326.423H262.983V292.81H236.217V381.229H262.983V347.229H287.658V381.229H314.425ZM400.236 381.229V292.81H373.469V326.423H348.794V292.81H322.028V381.229H348.794V347.229H373.469V381.229H400.236ZM482.129 369.114L482.136 369.107L482.143 369.1C486.169 364.994 489.269 360.183 491.445 354.707C492.58 351.896 493.422 348.981 493.974 345.965C494.461 348.991 495.206 351.915 496.213 354.732L496.217 354.74C498.185 360.204 501.023 365.008 504.749 369.103L504.763 369.118L504.777 369.133C508.558 373.203 513.124 376.384 518.42 378.689L518.437 378.696L518.453 378.703C523.876 381.004 529.903 382.112 536.464 382.112C543.541 382.112 549.873 380.979 555.349 378.573L555.362 378.567C560.865 376.125 565.467 372.504 569.115 367.737L571.189 365.026L561.406 354.732L561.37 354.696C560.657 353.983 559.768 353.342 558.684 352.952C557.831 352.614 556.912 352.42 555.948 352.42C554.789 352.42 553.684 352.686 552.668 353.175C551.828 353.547 551.054 354.031 550.351 354.617L550.293 354.666L550.236 354.716C549.294 355.565 548.41 356.234 547.589 356.748C546.797 357.208 545.943 357.596 545.02 357.907C544.064 358.193 543.007 358.419 541.844 358.574C540.622 358.701 539.236 358.768 537.678 358.768C535.266 358.768 533.061 358.304 531.018 357.399C528.988 356.5 527.191 355.196 525.61 353.443C524.084 351.675 522.798 349.438 521.804 346.653C520.876 343.954 520.373 340.753 520.373 336.992C520.373 333.23 520.83 330.027 521.675 327.331C522.572 324.547 523.775 322.352 525.216 320.65C526.722 318.879 528.451 317.577 530.421 316.69C532.436 315.799 534.708 315.326 537.292 315.326C539.055 315.326 540.466 315.46 541.566 315.686L541.575 315.688L541.585 315.69C542.873 315.947 543.881 316.25 544.649 316.567L544.724 316.599L544.801 316.627C545.683 316.95 546.323 317.279 546.774 317.579L546.865 317.64L546.958 317.695C547.716 318.143 548.389 318.564 548.982 318.959L549.048 319.003L549.115 319.044C549.857 319.498 550.583 319.904 551.289 320.257C552.436 320.831 553.675 321.121 554.954 321.121C556.429 321.121 558.152 320.829 559.638 319.74L559.705 319.69L559.771 319.638C560.544 319.019 561.244 318.325 561.853 317.55L561.884 317.51L563.955 314.731V315.602H586.585V381.229H613.241V315.602H635.871V292.81H563.955V300.388C563.343 299.919 562.71 299.463 562.059 299.02C559.86 297.527 557.473 296.274 554.909 295.254C552.336 294.195 549.592 293.391 546.686 292.832C543.749 292.222 540.651 291.926 537.402 291.926C531.015 291.926 525.064 293.019 519.601 295.262C514.187 297.484 509.488 300.62 505.553 304.678C501.625 308.728 498.604 313.532 496.473 319.037C495.342 321.939 494.516 324.974 493.988 328.136C493.436 325.102 492.59 322.165 491.445 319.332C489.267 313.852 486.163 309.054 482.129 304.979C478.083 300.892 473.227 297.715 467.62 295.43C461.962 293.072 455.75 291.926 449.04 291.926C442.332 291.926 436.108 293.053 430.421 295.368C424.81 297.652 419.937 300.827 415.854 304.91L415.847 304.917L415.84 304.924C411.809 308.996 408.688 313.79 406.474 319.265L406.47 319.276L406.465 319.288C404.277 324.799 403.202 330.713 403.202 336.992C403.202 343.27 404.277 349.185 406.465 354.695L406.47 354.707L406.474 354.719C408.687 360.189 411.803 364.996 415.826 369.1L415.84 369.114L415.854 369.128C419.937 373.211 424.81 376.386 430.421 378.67C436.108 380.986 442.332 382.112 449.04 382.112C455.747 382.112 461.955 380.986 467.61 378.668C473.221 376.382 478.08 373.204 482.129 369.114ZM466.317 327.509L466.321 327.522C467.199 330.218 467.67 333.359 467.67 336.992C467.67 340.659 467.199 343.838 466.321 346.573C465.438 349.284 464.2 351.472 462.656 353.22L462.643 353.234L462.631 353.248C461.14 354.969 459.301 356.302 457.058 357.251C454.824 358.158 452.174 358.657 449.04 358.657C445.869 358.657 443.179 358.158 440.904 357.247C438.664 356.299 436.803 354.964 435.272 353.235C433.76 351.487 432.537 349.296 431.651 346.579C430.771 343.843 430.3 340.662 430.3 336.992C430.3 333.359 430.771 330.218 431.649 327.522L431.653 327.509C432.54 324.751 433.766 322.545 435.271 320.804C436.807 319.069 438.675 317.731 440.925 316.782C443.192 315.841 445.874 315.326 449.04 315.326C452.169 315.326 454.81 315.841 457.037 316.779C459.29 317.727 461.135 319.064 462.631 320.79L462.643 320.804L462.656 320.818C464.193 322.558 465.432 324.759 466.317 327.509ZM637.351 381.229H664.117V292.81H637.351V381.229Z" fill="white"></path></svg> 