<?xml version="1.0" encoding="UTF-8"?> <svg xmlns="http://www.w3.org/2000/svg" width="1440" height="501" viewBox="0 0 1440 501" fill="none"><path fill-rule="evenodd" clip-rule="evenodd" d="M1440 0.568359H0V500.568H1440V0.568359ZM207.747 150.291V246.677L245.058 150.291H273.097L310.367 246.572V150.291H340.533V228.917H361.35V150.291H391.516V228.917H412.332V150.291H442.499V253.281H290.045C287.54 253.281 285.084 252.708 283.035 251.191L282.997 251.163L282.96 251.134C281.249 249.803 279.948 248.113 279.078 246.125L279.01 245.967L274.268 231.962H243.887L239.169 245.895L239.134 245.984C238.345 247.993 236.976 249.643 235.289 250.98L235.282 250.986L235.275 250.992C233.232 252.597 230.794 253.281 228.24 253.281H177.58V213.12H146.985V253.281H116.818V150.291H146.985V189.995H177.58V150.291H207.747ZM259.101 187.142C258.931 187.597 258.764 188.036 258.598 188.457L251.675 208.967H266.54L259.557 188.329C259.407 187.946 259.255 187.551 259.101 187.142ZM483.021 253.281H452.854V150.291H483.021V253.281ZM204.813 378.281H174.647V299.655H146.985V378.281H116.818V275.291H204.813V378.281ZM301.766 364.179L301.759 364.186C297.05 368.943 291.393 372.645 284.847 375.311C278.266 378.008 271.029 379.324 263.19 379.324C255.348 379.324 248.091 378.008 241.471 375.312C234.926 372.648 229.253 368.949 224.504 364.2L224.49 364.186L224.476 364.172C219.793 359.395 216.163 353.798 213.584 347.42L213.579 347.409L213.574 347.397C211.026 340.98 209.772 334.085 209.772 326.753C209.772 319.421 211.026 312.527 213.574 306.11L213.579 306.098L213.584 306.086C216.164 299.705 219.798 294.124 224.49 289.385L224.497 289.378L224.504 289.371C229.253 284.622 234.926 280.924 241.471 278.259C248.091 275.564 255.348 274.248 263.19 274.248C271.033 274.248 278.276 275.586 284.86 278.331C291.401 280.997 297.053 284.697 301.759 289.451C306.453 294.192 310.068 299.778 312.605 306.164C314.662 311.254 315.892 316.633 316.313 322.282C316.708 316.441 317.892 310.943 319.892 305.809C322.376 299.391 325.894 293.8 330.462 289.089C335.037 284.371 340.503 280.722 346.81 278.133C353.167 275.524 360.101 274.248 367.561 274.248C371.357 274.248 374.969 274.594 378.386 275.303C381.778 275.956 384.976 276.893 387.968 278.125C390.953 279.312 393.726 280.768 396.278 282.502C398.783 284.203 401.036 286.068 403.021 288.102L405.408 290.546L395.904 303.302L395.872 303.342C395.19 304.21 394.403 304.991 393.53 305.689L393.465 305.742L393.397 305.791C391.812 306.954 389.949 307.283 388.293 307.283C386.894 307.283 385.542 306.966 384.288 306.339C383.475 305.933 382.637 305.463 381.774 304.936L381.707 304.895L381.641 304.851C380.929 304.376 380.122 303.871 379.217 303.336L379.124 303.281L379.033 303.221C378.442 302.827 377.632 302.415 376.55 302.018L376.473 301.99L376.398 301.959C375.437 301.561 374.199 301.192 372.644 300.881L372.635 300.879L372.625 300.877C371.265 300.598 369.547 300.437 367.431 300.437C364.287 300.437 361.502 301.014 359.02 302.112C356.59 303.205 354.461 304.811 352.615 306.981C350.841 309.077 349.378 311.758 348.294 315.121C347.27 318.391 346.722 322.251 346.722 326.753C346.722 331.262 347.325 335.126 348.453 338.404C349.654 341.769 351.216 344.496 353.088 346.664C355.023 348.81 357.23 350.415 359.728 351.521C362.237 352.632 364.942 353.199 367.887 353.199C369.752 353.199 371.418 353.119 372.893 352.966C374.311 352.777 375.604 352.501 376.78 352.149C377.922 351.764 378.983 351.283 379.968 350.71C380.983 350.076 382.062 349.257 383.205 348.228L383.262 348.177L383.32 348.129C384.103 347.477 384.963 346.939 385.897 346.527C387.006 345.992 388.208 345.702 389.467 345.702C390.511 345.702 391.51 345.913 392.442 346.284C393.607 346.701 394.574 347.392 395.359 348.177L395.395 348.213L406.519 359.918L404.444 362.629C400.21 368.163 394.871 372.364 388.481 375.199L388.468 375.204C382.112 377.997 374.737 379.324 366.453 379.324C358.785 379.324 351.766 378.029 345.462 375.355L345.446 375.348L345.429 375.341C339.259 372.656 333.951 368.954 329.556 364.225L329.542 364.21L329.528 364.194C325.195 359.434 321.891 353.842 319.596 347.472L319.592 347.463C317.771 342.37 316.683 336.97 316.31 331.281C315.888 336.944 314.658 342.326 312.605 347.408C310.069 353.791 306.458 359.392 301.773 364.172L301.766 364.179ZM284.291 315.344L284.287 315.331C283.215 312 281.706 309.31 279.816 307.17L279.803 307.156L279.791 307.141C277.948 305.015 275.676 303.372 272.916 302.21C270.183 301.059 266.965 300.437 263.19 300.437C259.37 300.437 256.104 301.06 253.323 302.214C250.567 303.376 248.27 305.021 246.381 307.156C244.528 309.297 243.037 311.993 241.962 315.331L241.958 315.344C240.894 318.613 240.329 322.401 240.329 326.753C240.329 331.149 240.894 334.982 241.96 338.298C243.032 341.588 244.522 344.268 246.381 346.416C248.265 348.545 250.556 350.187 253.303 351.349C256.091 352.467 259.365 353.069 263.19 353.069C266.971 353.069 270.197 352.467 272.937 351.353C275.688 350.191 277.953 348.551 279.791 346.43L279.803 346.416L279.816 346.402C281.712 344.255 283.22 341.581 284.289 338.298C285.355 334.982 285.92 331.149 285.92 326.753C285.92 322.401 285.355 318.613 284.291 315.344ZM480.164 377.856H510.33V281.658L546.926 345.09L544.921 349.012L544.92 349.015C544.286 350.247 543.664 351.069 543.11 351.598C542.462 352.215 541.869 352.631 541.342 352.904C540.735 353.172 540.176 353.327 539.658 353.398L539.645 353.4L539.633 353.402C538.886 353.508 538.207 353.557 537.591 353.557H528.114V370.922C528.114 372.471 528.618 373.946 529.627 375.174C530.57 376.32 531.791 377.057 532.982 377.546C535.401 378.578 538.823 378.899 542.676 378.899C545.372 378.899 547.95 378.664 550.398 378.177C553.001 377.704 555.46 376.813 557.756 375.508L557.769 375.501L557.781 375.494C560.154 374.122 562.307 372.312 564.25 370.12C566.25 367.863 568.025 365.053 569.614 361.782L569.624 361.76L607.08 282.183V377.856H637.246V299.23H674.929V274.866H585.965C584.621 274.866 583.298 275.088 582.033 275.572C580.916 275.972 579.882 276.541 578.947 277.273C578.155 277.884 577.434 278.578 576.784 279.347L576.723 279.418L576.667 279.492C576.076 280.259 575.564 281.078 575.162 281.949L575.152 281.971L562.523 310.225C561.953 311.389 561.408 312.555 560.887 313.723C560.297 312.501 559.667 311.281 558.998 310.064L544.929 281.796L544.904 281.749C543.939 279.931 542.669 278.359 541.071 277.114C539.059 275.458 536.566 274.866 534.07 274.866H438.464L438.375 278.774C438.159 288.203 437.792 296.525 437.276 303.747C436.758 310.99 436.135 317.292 435.411 322.664L435.409 322.678L435.407 322.691C434.723 328.033 433.941 332.513 433.072 336.157L433.067 336.178L433.062 336.199C432.22 339.905 431.337 342.896 430.432 345.216L430.422 345.244L430.411 345.272C429.528 347.64 428.67 349.245 427.907 350.252L427.883 350.283L427.86 350.315C426.999 351.498 426.249 352.213 425.651 352.619C424.93 353.11 424.4 353.292 424.048 353.351C423.2 353.492 422.421 353.557 421.707 353.557H412.23V370.922C412.23 372.471 412.734 373.946 413.744 375.174C414.686 376.32 415.907 377.057 417.098 377.546C419.517 378.578 422.939 378.899 426.792 378.899C430.217 378.899 433.514 378.518 436.673 377.742C440.157 376.896 443.357 375.266 446.255 372.926L446.271 372.913L446.288 372.9C449.234 370.47 451.805 367.206 454.061 363.258C456.367 359.223 458.344 354.104 460.048 348.007C461.762 341.872 463.205 334.514 464.395 325.967L464.395 325.964C465.458 318.289 466.305 309.374 466.941 299.23H480.164V377.856ZM769.061 377.856V274.866H748.436C746.879 274.866 745.364 275.161 743.923 275.751C742.635 276.278 741.438 276.976 740.339 277.836C739.304 278.604 738.355 279.476 737.493 280.446L737.45 280.494L737.409 280.543C736.646 281.459 735.964 282.399 735.374 283.365L735.354 283.398L708.299 329.63V274.866H678.133V377.856H698.757C700.315 377.856 701.829 377.561 703.271 376.971C704.53 376.456 705.709 375.795 706.802 374.99L706.856 374.95L706.908 374.909C707.927 374.105 708.852 373.211 709.677 372.229C710.492 371.307 711.212 370.351 711.819 369.357L711.839 369.324L738.895 323.092V377.856H769.061Z" fill="white"></path></svg> 