<?xml version="1.0" encoding="UTF-8"?> <svg xmlns="http://www.w3.org/2000/svg" width="1277" height="719" viewBox="0 0 1277 719" fill="none"><path fill-rule="evenodd" clip-rule="evenodd" d="M1277 0H0V719H1277V0ZM194.263 226.386V130H164.097V169.704H133.501V130H103.335V232.99H133.501V192.829H164.097V232.99H214.756C217.311 232.99 219.748 232.306 221.791 230.701L221.798 230.695L221.806 230.689C223.492 229.352 224.862 227.702 225.651 225.693L225.686 225.604L230.403 211.671H260.784L265.526 225.676L265.595 225.833C266.465 227.822 267.766 229.512 269.477 230.843L269.514 230.872L269.552 230.9C271.6 232.417 274.057 232.99 276.562 232.99H429.015V130H398.849V208.625H378.032V130H347.866V208.625H327.05V130H296.883V226.281L259.613 130H231.574L194.263 226.386ZM245.394 167.444C245.468 167.25 245.542 167.052 245.617 166.851C245.771 167.26 245.923 167.655 246.074 168.038L253.057 188.676H238.192L245.114 168.167C245.207 167.931 245.3 167.69 245.394 167.444ZM530.299 232.99V130H509.674C508.117 130 506.603 130.295 505.161 130.885C503.873 131.412 502.676 132.11 501.577 132.97C500.542 133.738 499.593 134.61 498.731 135.58L498.688 135.628L498.648 135.677C497.884 136.593 497.203 137.533 496.612 138.499L496.593 138.531L469.537 184.764V130H439.371V232.99H459.996C461.553 232.99 463.067 232.695 464.509 232.105C465.768 231.59 466.948 230.929 468.04 230.124L468.094 230.084L468.146 230.043C468.778 229.544 469.374 229.011 469.933 228.443C470.275 228.096 470.602 227.735 470.916 227.362C471.73 226.441 472.45 225.485 473.058 224.491L473.077 224.458L500.133 178.226V232.99H530.299ZM152.202 341.916L152.212 341.894L193.112 255H168.553C167.209 255 165.886 255.222 164.621 255.705C163.505 256.106 162.471 256.674 161.536 257.406C160.743 258.018 160.022 258.712 159.371 259.48L159.311 259.552L159.254 259.625C158.664 260.393 158.152 261.211 157.75 262.083L157.74 262.105L145.11 290.358C144.541 291.523 143.996 292.689 143.475 293.856C142.885 292.634 142.255 291.415 141.586 290.198L127.517 261.93L127.492 261.883C126.526 260.065 125.257 258.493 123.659 257.249C121.647 255.592 119.154 255 116.658 255H89L129.514 325.224L127.509 329.146L127.507 329.149C127.139 329.866 126.775 330.443 126.425 330.904C126.173 331.237 125.929 331.511 125.697 331.732C125.049 332.349 124.457 332.765 123.929 333.038C123.59 333.188 123.265 333.303 122.954 333.387C122.71 333.453 122.474 333.5 122.246 333.532L122.233 333.534L122.22 333.535C121.854 333.587 121.504 333.626 121.169 333.652C120.822 333.678 120.492 333.691 120.178 333.691H110.702V351.056C110.702 352.604 111.206 354.08 112.215 355.308C113.157 356.454 114.379 357.191 115.569 357.679C117.989 358.712 121.411 359.033 125.264 359.033C127.96 359.033 130.538 358.797 132.986 358.311C135.589 357.838 138.048 356.947 140.344 355.642L140.356 355.635L140.369 355.627C142.742 354.256 144.894 352.446 146.838 350.253C148.838 347.997 150.613 345.187 152.202 341.916ZM317.568 279.364H330.791V357.99H360.958V261.792L397.553 325.224L395.548 329.146C394.913 330.38 394.292 331.201 393.739 331.73C393.293 332.155 392.873 332.484 392.483 332.737C392.383 332.802 392.286 332.861 392.19 332.917C392.115 332.959 392.041 333 391.969 333.038C391.799 333.113 391.633 333.179 391.47 333.237C391.315 333.293 391.163 333.341 391.014 333.382C390.762 333.451 390.519 333.5 390.285 333.532L390.272 333.534L390.26 333.535C389.837 333.596 389.436 333.638 389.056 333.663C388.764 333.682 388.485 333.691 388.218 333.691H378.741V351.056C378.741 352.604 379.245 354.08 380.255 355.308C381.197 356.454 382.418 357.191 383.608 357.679C386.028 358.712 389.45 359.033 393.303 359.033C395.999 359.033 398.577 358.797 401.025 358.311C403.628 357.838 406.087 356.947 408.383 355.642L408.396 355.635L408.408 355.627C410.781 354.256 412.934 352.446 414.877 350.253C416.877 347.997 418.652 345.187 420.241 341.916L420.251 341.894L457.707 262.317V357.99H487.873V279.364H525.556V255H436.593C435.249 255 433.925 255.222 432.66 255.705C431.544 256.106 430.51 256.674 429.574 257.406C428.782 258.018 428.061 258.712 427.411 259.48L427.35 259.552L427.294 259.625C426.703 260.393 426.191 261.211 425.789 262.083L425.779 262.105L413.15 290.358C412.58 291.523 412.035 292.689 411.514 293.856C411.141 293.084 410.752 292.312 410.348 291.542C410.112 291.093 409.871 290.646 409.625 290.198L395.556 261.93L395.531 261.883C394.566 260.065 393.297 258.493 391.699 257.249C389.687 255.592 387.193 255 384.697 255H289.092L289.002 258.908C288.786 268.336 288.419 276.658 287.903 283.88C287.385 291.124 286.763 297.426 286.038 302.798L286.036 302.812L286.034 302.825C285.35 308.167 284.569 312.647 283.699 316.291L283.694 316.312L283.689 316.333C282.847 320.039 281.964 323.029 281.059 325.35L281.049 325.378L281.038 325.406C280.155 327.774 279.297 329.378 278.534 330.386L278.51 330.417L278.487 330.448C277.626 331.632 276.876 332.347 276.278 332.753C276.103 332.872 275.94 332.973 275.787 333.058C275.602 333.162 275.433 333.242 275.281 333.305C275.169 333.351 275.066 333.387 274.971 333.415C274.861 333.447 274.763 333.47 274.675 333.484C274.297 333.547 273.933 333.595 273.582 333.629C273.146 333.671 272.73 333.691 272.334 333.691H264.898L259.416 327.922L259.38 327.886C258.594 327.101 257.628 326.41 256.463 325.993C256.119 325.856 255.767 325.741 255.406 325.65C255.22 325.604 255.032 325.563 254.843 325.53C254.614 325.49 254.383 325.459 254.149 325.439C253.931 325.421 253.71 325.411 253.487 325.411C252.229 325.411 251.026 325.701 249.917 326.236C249.506 326.417 249.109 326.623 248.727 326.853C248.241 327.144 247.779 327.473 247.341 327.837L247.282 327.886L247.226 327.937C246.083 328.966 245.003 329.785 243.989 330.419C243.004 330.992 241.943 331.473 240.8 331.857C240.253 332.021 239.68 332.169 239.082 332.299C238.784 332.363 238.48 332.423 238.17 332.479C237.762 332.552 237.344 332.618 236.914 332.675C235.438 332.828 233.772 332.908 231.908 332.908C228.963 332.908 226.258 332.341 223.748 331.23C221.251 330.124 219.043 328.52 217.109 326.374C215.237 324.206 213.675 321.479 212.473 318.113C211.346 314.835 210.742 310.971 210.742 306.462C210.742 301.96 211.29 298.1 212.315 294.83C213.399 291.466 214.862 288.784 216.638 286.688C218.483 284.518 220.613 282.913 223.042 281.82C225.524 280.723 228.308 280.146 231.451 280.146C233.568 280.146 235.285 280.307 236.646 280.586L236.655 280.588L236.665 280.59C238.22 280.901 239.457 281.27 240.418 281.668L240.494 281.699L240.571 281.728C241.653 282.124 242.463 282.536 243.054 282.93L243.144 282.99L243.238 283.045C243.705 283.322 244.147 283.59 244.563 283.85C244.951 284.094 245.318 284.33 245.662 284.56L245.728 284.604L245.795 284.645C246.657 285.172 247.496 285.642 248.308 286.048C249.563 286.675 250.915 286.992 252.314 286.992C253.969 286.992 255.832 286.663 257.418 285.5L257.485 285.451L257.551 285.398C258.424 284.7 259.21 283.919 259.892 283.051L259.924 283.011L269.428 270.255L267.042 267.811C265.056 265.777 262.804 263.912 260.299 262.21C257.747 260.478 254.974 259.021 251.989 257.834C248.997 256.602 245.799 255.665 242.406 255.012C238.989 254.303 235.377 253.957 231.582 253.957C224.121 253.957 217.187 255.233 210.83 257.842C204.523 260.431 199.057 264.08 194.483 268.798C189.914 273.51 186.396 279.101 183.911 285.521C181.409 291.945 180.185 298.94 180.185 306.462C180.185 313.83 181.314 320.745 183.613 327.172L183.616 327.181C185.911 333.551 189.216 339.143 193.548 343.903L193.562 343.919L193.577 343.934C197.971 348.664 203.28 352.365 209.449 355.05L209.466 355.057L209.483 355.064C215.786 357.738 222.806 359.033 230.474 359.033C238.757 359.033 246.132 357.707 252.489 354.914L252.502 354.908C256.336 353.207 259.792 351.014 262.858 348.336V351.056C262.858 352.604 263.361 354.08 264.371 355.308C265.313 356.454 266.534 357.191 267.725 357.679C270.144 358.712 273.566 359.033 277.419 359.033C280.844 359.033 284.141 358.652 287.3 357.875C290.784 357.03 293.984 355.399 296.882 353.06L296.898 353.047L296.915 353.034C299.861 350.604 302.432 347.339 304.688 343.392C306.994 339.356 308.971 334.237 310.675 328.14C312.389 322.005 313.832 314.647 315.022 306.101C316.085 298.423 316.932 289.507 317.568 279.364ZM619.688 357.99V255H599.063C597.506 255 595.991 255.295 594.55 255.885C593.262 256.412 592.065 257.11 590.966 257.97C589.931 258.738 588.982 259.61 588.12 260.58L588.077 260.628L588.037 260.677C587.273 261.593 586.592 262.533 586.001 263.499L585.981 263.531L558.926 309.764V255H528.76V357.99H549.385C550.942 357.99 552.456 357.695 553.898 357.105C554.218 356.974 554.532 356.834 554.842 356.684C555.055 356.581 555.267 356.473 555.476 356.36C556.154 355.995 556.806 355.583 557.429 355.124L557.483 355.084L557.535 355.043C558.554 354.238 559.479 353.345 560.304 352.362C561.119 351.441 561.839 350.485 562.447 349.491L562.466 349.458L589.522 303.226V357.99H619.688ZM504.263 169.474C504.265 169.419 504.267 169.365 504.269 169.311L504.266 169.388L504.263 169.474Z" fill="white"></path></svg> 