<?xml version="1.0" encoding="UTF-8"?> <svg xmlns="http://www.w3.org/2000/svg" width="1440" height="500" viewBox="0 0 1440 500" fill="none"><path fill-rule="evenodd" clip-rule="evenodd" d="M1440 0H0V500H1440V0ZM144.794 164.945C144.947 164.385 145.215 163.907 145.641 163.463C146.041 163.048 146.697 162.591 147.786 162.201C148.791 161.853 150.339 161.601 152.582 161.601H159.952V173.747H152.582C150.329 173.747 148.732 173.53 147.665 173.216C146.618 172.861 145.975 172.456 145.585 172.1C145.21 171.692 144.955 171.228 144.802 170.652C144.571 169.777 144.439 168.764 144.439 167.591C144.439 166.65 144.559 165.783 144.786 164.976L144.79 164.961L144.794 164.945ZM159.952 228H186.608V139.581H152.582C147.431 139.581 142.703 140.229 138.446 141.593C134.256 142.936 130.584 144.849 127.518 147.393C124.47 149.887 122.092 152.888 120.433 156.381L120.424 156.4L120.415 156.418C118.794 159.923 118.004 163.702 118.004 167.701C118.004 170.415 118.365 173.04 119.103 175.56L119.112 175.59L119.122 175.621C119.916 178.18 121.111 180.548 122.699 182.709L122.726 182.746L122.754 182.783C124.403 184.922 126.438 186.788 128.81 188.398L128.83 188.411L128.851 188.425C129.211 188.663 129.579 188.893 129.954 189.116C128.345 190.651 126.933 192.459 125.699 194.501L105.613 228H126.806C130.042 228 133.064 227.332 135.704 225.809L135.729 225.795L135.753 225.78C138.237 224.299 140.241 222.295 141.722 219.811L141.758 219.752L153.037 199.238L153.043 199.227C154.076 197.384 154.904 196.688 155.328 196.465L155.344 196.456L155.361 196.447C156.191 196.001 157.099 195.766 158.156 195.766H159.952V228ZM253.134 228H276.909L255.698 188.895L255.683 188.869C254.027 185.921 252.148 183.428 249.986 181.537C249.713 181.294 249.433 181.059 249.146 180.834C250.235 179.807 251.184 178.633 252 177.328L252.004 177.321L275.386 139.581H252.196C249.754 139.581 247.426 140.217 245.427 141.671C243.746 142.894 242.364 144.444 241.267 146.257L226.706 170.469C226.111 171.42 225.671 171.717 225.514 171.796L225.488 171.809L225.461 171.822C225.161 171.978 224.629 172.146 223.715 172.146H220.871V139.581H194.215V228H220.871V193.779H225.26C226.582 193.779 227.354 193.985 227.764 194.177C227.788 194.188 228.247 194.433 228.915 195.652L228.924 195.669L242.294 220.807L242.33 220.868C243.466 222.835 244.829 224.552 246.49 225.838C248.433 227.343 250.729 228 253.134 228ZM397.516 228V139.581H379.276C378.409 139.581 377.611 139.601 376.889 139.643L376.881 139.644L376.874 139.644C375.939 139.702 374.998 139.884 374.087 140.234C373.028 140.641 372.124 141.268 371.37 142.022C370.611 142.781 370.023 143.698 369.555 144.588L369.541 144.614L348.916 185.202C348.702 185.59 348.492 185.982 348.284 186.379C348.118 186.052 347.951 185.727 347.781 185.404L327.083 144.615L327.069 144.588C326.599 143.696 325.998 142.785 325.202 142.023C324.467 141.252 323.575 140.634 322.536 140.234C321.602 139.874 320.634 139.7 319.687 139.644C318.993 139.6 318.209 139.581 317.347 139.581H299.107V228H323.555V187.595L336.972 213.631C337.931 215.497 339.3 217.065 341.121 218.157L341.145 218.172L341.17 218.187C342.974 219.234 344.966 219.721 347.042 219.721H349.581C351.646 219.721 353.634 219.239 355.423 218.172C357.275 217.09 358.677 215.524 359.649 213.636L359.651 213.631L373.068 187.664V228H397.516ZM483.285 228V139.581H465.21C463.813 139.581 462.452 139.846 461.157 140.376C460.016 140.842 458.956 141.461 457.983 142.221C457.075 142.896 456.243 143.661 455.487 144.511L455.445 144.559L455.404 144.608C454.74 145.404 454.145 146.224 453.628 147.07L453.608 147.103L431.843 184.295V139.581H405.077V228H423.152C424.549 228 425.91 227.735 427.205 227.206C428.317 226.751 429.36 226.166 430.327 225.454L430.38 225.415L430.432 225.373C431.325 224.669 432.137 223.886 432.861 223.023C433.569 222.222 434.2 221.385 434.734 220.511L434.754 220.479L456.519 183.286V228H483.285ZM556.798 204.117L556.795 204.12C556.463 204.465 555.833 204.914 554.665 205.321C553.656 205.673 552.12 205.925 549.911 205.925H543.093V193.834H549.911C552.139 193.834 553.705 194.072 554.745 194.411L554.785 194.424L554.825 194.436C555.94 194.773 556.508 195.176 556.795 195.475L556.852 195.534L556.911 195.59C557.293 195.957 557.544 196.377 557.691 196.929C557.922 197.805 558.054 198.818 558.054 199.99C558.054 200.931 557.934 201.799 557.707 202.605C557.569 203.096 557.301 203.594 556.798 204.117ZM575.038 219.914L575.05 219.904L575.062 219.893C578.12 217.223 580.464 214.014 582.063 210.299C583.701 206.545 584.489 202.465 584.489 198.114C584.489 194.629 583.842 191.282 582.537 188.103C581.17 184.733 578.994 181.839 576.108 179.431C573.175 176.947 569.501 175.092 565.235 173.763C560.87 172.393 555.732 171.76 549.911 171.76H543.093V161.545H581.399V151.789L609.019 199.664L607.474 202.687L607.473 202.689C606.96 203.687 606.472 204.321 606.065 204.711C605.558 205.194 605.108 205.508 604.724 205.709C604.266 205.91 603.854 206.022 603.481 206.073L603.468 206.074L603.456 206.076C602.849 206.163 602.303 206.201 601.814 206.201H593.177V221.516C593.177 222.965 593.65 224.353 594.598 225.506C595.478 226.576 596.607 227.252 597.675 227.69C599.847 228.616 602.852 228.883 606.119 228.883C608.436 228.883 610.657 228.681 612.772 228.261C615.041 227.848 617.186 227.07 619.189 225.933L619.202 225.925L619.214 225.918C621.288 224.72 623.16 223.143 624.843 221.244C626.583 219.281 628.115 216.851 629.477 214.046L629.487 214.024L629.498 214.002L664.527 139.581H642.768C641.564 139.581 640.371 139.78 639.226 140.216C638.224 140.577 637.294 141.088 636.452 141.746C635.746 142.291 635.104 142.909 634.527 143.591L634.466 143.663L634.41 143.736C633.886 144.418 633.427 145.149 633.065 145.934L633.055 145.956L633.045 145.978L622.366 169.869C622.074 170.466 621.79 171.063 621.513 171.661C621.182 171.009 620.838 170.359 620.482 169.709L608.572 145.781L608.547 145.734C607.695 144.129 606.569 142.73 605.144 141.619C603.299 140.104 601.037 139.581 598.833 139.581H516.437V228H549.911C555.072 228 559.812 227.331 564.081 225.922C568.29 224.533 571.971 222.549 575.038 219.914ZM740.922 237.689V206.146H729V139.581H666.958L666.855 143.475C666.635 151.782 666.288 159.093 665.816 165.416L665.815 165.427L665.814 165.437C665.377 171.739 664.833 177.199 664.187 181.83C663.537 186.492 662.823 190.358 662.058 193.456C661.28 196.604 660.477 199.081 659.673 200.946L659.662 200.973L659.651 201C658.853 202.927 658.105 204.232 657.462 205.055C657.081 205.522 656.742 205.878 656.451 206.146H644.72V246.766H659.98C662.431 246.766 664.817 246.102 666.761 244.438C668.835 242.697 669.83 240.308 669.83 237.689V228H715.811V246.766H731.071C733.521 246.766 735.908 246.102 737.851 244.439C739.926 242.697 740.922 240.308 740.922 237.689ZM683.964 206.146C684.321 205.252 684.667 204.324 685.002 203.363C686.213 199.963 687.285 196.059 688.231 191.671C689.181 187.264 690.008 182.253 690.718 176.649C691.301 172.047 691.793 166.975 692.197 161.435H702.233V206.146H683.964ZM460.519 178.961C460.519 176.864 460.574 174.656 460.685 172.338L460.683 172.374L460.682 172.392C460.616 173.785 460.57 175.138 460.544 176.452C460.527 177.305 460.519 178.142 460.519 178.961ZM166.741 338H193.507V249.581H117.783V338H144.549V271.435H166.741V338ZM240.978 273.796L241.025 273.843L241.073 273.889C241.743 274.515 242.246 275.268 242.588 276.205C242.958 277.215 243.173 278.416 243.173 279.854C243.173 283.337 242.289 285.49 241.029 286.859C239.98 287.998 237.823 289.045 233.485 289.045H227.77V271.545H233.485C235.525 271.545 237.081 271.803 238.242 272.206L238.254 272.211L238.267 272.215C239.515 272.64 240.375 273.193 240.978 273.796ZM249.135 308.935L249.145 308.931L249.155 308.928C253.658 307.427 257.537 305.302 260.672 302.472C263.79 299.657 266.118 296.261 267.63 292.329C269.114 288.471 269.829 284.298 269.829 279.854C269.829 275.68 269.124 271.723 267.678 268.021C266.191 264.217 263.87 260.921 260.769 258.162C257.664 255.366 253.801 253.284 249.311 251.825C244.748 250.293 239.443 249.581 233.485 249.581H201.114V338H227.77V311.12H233.485C239.342 311.12 244.584 310.424 249.135 308.935ZM295.732 299.257L301.163 283.167L306.607 299.257H295.732ZM284.866 331.344L288.724 319.951H313.564L317.446 331.417L317.515 331.574C318.292 333.349 319.456 334.863 320.987 336.054L321.024 336.083L321.062 336.11C322.93 337.495 325.15 338 327.362 338H405.385V356.766H420.645C423.095 356.766 425.482 356.102 427.425 354.438C429.5 352.697 430.495 350.308 430.495 347.689V316.146H419.677V249.581H392.911V316.146H370.719V249.581H343.953V328.422L313.434 249.581H288.855L254.628 338H275.037C277.311 338 279.516 337.39 281.372 335.931L281.379 335.926L281.386 335.92C282.879 334.736 284.115 333.256 284.831 331.434L284.866 331.344ZM523.148 311.508L523.154 311.5C524.526 309.69 525.63 307.413 526.402 304.584C527.175 301.748 527.585 298.485 527.585 294.763C527.585 291.082 527.176 287.837 526.402 284.998C525.631 282.172 524.531 279.925 523.173 278.162L523.151 278.134L523.13 278.104C521.821 276.341 520.214 275.016 518.269 274.086L518.237 274.071L518.206 274.055C516.34 273.123 514.099 272.601 511.384 272.601C508.625 272.601 506.367 273.126 504.507 274.055L504.486 274.066L504.465 274.076C502.548 275.007 500.921 276.341 499.561 278.134C498.229 279.902 497.141 282.159 496.366 284.998C495.592 287.837 495.183 291.082 495.183 294.763C495.183 298.485 495.593 301.748 496.366 304.584C497.138 307.412 498.224 309.692 499.562 311.503C500.918 313.256 502.551 314.6 504.486 315.571C506.351 316.472 508.618 316.981 511.384 316.981C514.111 316.981 516.364 316.473 518.237 315.566C520.214 314.59 521.837 313.246 523.148 311.508ZM543.091 326.773L543.084 326.78C539.297 330.897 534.705 334.103 529.363 336.41C523.936 338.753 517.921 339.884 511.384 339.884C505.554 339.884 500.119 338.97 495.125 337.087L495.115 337.084C490.223 335.224 485.903 332.613 482.197 329.236C478.516 325.884 475.521 321.924 473.212 317.386L473.209 317.38L473.205 317.373C471.402 313.798 470.079 309.982 469.226 305.939H464.549V339H437.783V250.581H464.549V284.085H469.142C469.962 280.019 471.252 276.179 473.021 272.578C475.291 267.956 478.27 263.929 481.958 260.527C485.701 257.073 490.063 254.419 495.002 252.555C500.005 250.629 505.483 249.698 511.384 249.698C517.921 249.698 523.936 250.829 529.363 253.172C534.705 255.479 539.297 258.685 543.084 262.802C546.85 266.895 549.71 271.7 551.682 277.168C553.695 282.649 554.683 288.526 554.683 294.763C554.683 301.001 553.695 306.878 551.682 312.359C549.711 317.824 546.854 322.641 543.098 326.765L543.091 326.773ZM598.09 316.274L598.106 316.268C599.264 315.81 599.918 315.314 600.285 314.901C600.763 314.363 601.062 313.797 601.229 313.168C601.472 312.25 601.592 311.324 601.592 310.384C601.592 309.276 601.44 308.401 601.203 307.71L601.184 307.656L601.167 307.603C601.03 307.162 600.801 306.81 600.415 306.482L600.385 306.457L600.356 306.432C599.998 306.117 599.346 305.726 598.201 305.398C597.137 305.094 595.589 304.89 593.45 304.89H584.424V316.926H593.56C595.735 316.926 597.178 316.643 598.075 316.28L598.09 316.274ZM597.763 283.052L597.787 283.037C598.287 282.725 598.649 282.32 598.919 281.73L598.938 281.688L598.959 281.646C599.242 281.062 599.495 280.088 599.495 278.536C599.495 276.919 599.288 275.862 599.041 275.218L599.034 275.2L599.028 275.182C598.784 274.525 598.467 274.13 598.114 273.856C597.702 273.535 597.026 273.19 595.923 272.954L595.913 272.952L595.904 272.949C594.756 272.698 593.256 272.546 591.352 272.546H584.424V284.416H590.138C592.014 284.416 593.632 284.281 595.012 284.036C596.266 283.813 597.137 283.456 597.739 283.068L597.763 283.052ZM625.201 282.748L625.198 282.76C624.539 284.878 623.511 286.848 622.15 288.663L622.135 288.683L622.12 288.702C620.966 290.202 619.578 291.558 617.989 292.782C620.001 293.937 621.758 295.323 623.215 296.97C626.52 300.706 628.028 305.427 628.028 310.77C628.028 314.723 627.259 318.47 625.688 321.96C624.11 325.467 621.792 328.512 618.793 331.083L618.789 331.086C615.793 333.648 612.171 335.589 608.016 336.974L608 336.979L607.983 336.985C603.755 338.353 599.04 339 593.891 339H557.768V250.581H591.352C597.134 250.581 602.226 251.115 606.559 252.259C610.821 253.385 614.52 255.03 617.509 257.304C620.495 259.577 622.738 262.411 624.131 265.79C625.502 269.027 626.151 272.56 626.151 276.328C626.151 278.518 625.837 280.659 625.205 282.736L625.201 282.748ZM665.794 284.167L660.363 300.257H671.238L665.794 284.167ZM653.355 320.952L649.497 332.345L649.462 332.434C648.746 334.256 647.51 335.736 646.017 336.92L646.01 336.926L646.003 336.931C644.146 338.39 641.942 339 639.668 339H619.259L653.485 250.581H678.064L712.291 339H691.992C689.781 339 687.561 338.495 685.693 337.111L685.655 337.083L685.618 337.054C684.087 335.863 682.922 334.349 682.146 332.575L682.077 332.417L678.195 320.952H653.355ZM766.719 273.374H744.089V339H717.433V273.374H694.803V250.581H766.719V273.374ZM846.407 250.581V339H819.64V294.287L797.875 331.479L797.855 331.512C797.321 332.386 796.691 333.222 795.983 334.023C795.258 334.886 794.446 335.669 793.554 336.374L793.502 336.415L793.448 336.454C792.482 337.166 791.439 337.751 790.327 338.206C789.032 338.736 787.671 339 786.273 339H768.199V250.581H794.965V295.295L816.73 258.103L816.75 258.07C817.267 257.224 817.862 256.404 818.525 255.608L818.566 255.559L818.608 255.512C819.364 254.661 820.197 253.896 821.104 253.222C822.077 252.461 823.137 251.843 824.278 251.376C825.573 250.846 826.935 250.581 828.332 250.581H846.407ZM823.806 283.338C823.739 284.75 823.692 286.122 823.666 287.452C823.677 286.896 823.667 286.297 823.656 285.685C823.642 284.851 823.628 283.993 823.666 283.189L823.812 283.24L823.806 283.338ZM800.046 193.799V172H774.766V161.234H807.773V138.883H748V227.302H807.773V204.952H774.766V193.799H800.046ZM909.69 227.302V138.883H891.449C890.583 138.883 889.784 138.903 889.062 138.945L889.055 138.946L889.047 138.946C888.112 139.005 887.171 139.186 886.26 139.536C885.201 139.943 884.297 140.57 883.543 141.324C882.784 142.083 882.197 143 881.728 143.89L881.714 143.916L861.089 184.504C860.876 184.892 860.665 185.284 860.457 185.681C860.291 185.354 860.124 185.029 859.954 184.706L839.256 143.917L839.242 143.89C838.773 142.998 838.171 142.087 837.375 141.325C836.64 140.554 835.748 139.936 834.71 139.536C833.777 139.177 832.812 139.003 831.867 138.946C831.172 138.903 830.385 138.883 829.521 138.883H811.28V227.302H835.728V186.897L849.147 212.936C850.106 214.801 851.474 216.368 853.294 217.459L853.318 217.474L853.343 217.489C855.147 218.536 857.139 219.023 859.215 219.023H861.754C863.82 219.023 865.808 218.541 867.597 217.474C869.449 216.392 870.85 214.826 871.822 212.938L871.825 212.934L885.242 186.966V227.302H909.69ZM991.541 215.188L991.548 215.181L991.555 215.174C995.58 211.067 998.681 206.256 1000.86 200.78C1003.08 195.267 1004.18 189.348 1004.18 183.065C1004.18 176.815 1003.08 170.915 1000.86 165.405C998.679 159.926 995.575 155.127 991.541 151.053C987.495 146.965 982.639 143.788 977.031 141.503C971.374 139.145 965.162 138 958.452 138C951.743 138 945.52 139.126 939.833 141.441C934.222 143.726 929.348 146.901 925.266 150.983L925.259 150.99L925.252 150.998C921.22 155.07 918.1 159.864 915.886 165.338L915.881 165.35L915.877 165.362C913.689 170.872 912.614 176.786 912.614 183.065C912.614 189.344 913.689 195.258 915.877 200.769L915.881 200.78L915.886 200.792C918.099 206.263 921.215 211.07 925.238 215.174L925.252 215.188L925.266 215.202C929.348 219.284 934.222 222.459 939.833 224.744C945.52 227.059 951.743 228.185 958.452 228.185C965.157 228.185 971.365 227.06 977.019 224.742C982.632 222.457 987.492 219.278 991.541 215.188ZM972.068 166.892C973.604 168.632 974.843 170.832 975.729 173.583L975.733 173.596C976.61 176.291 977.082 179.432 977.082 183.065C977.082 186.734 976.61 189.914 975.731 192.65C974.848 195.36 973.611 197.547 972.068 199.294L972.055 199.308L972.043 199.322C970.551 201.043 968.713 202.376 966.469 203.324C964.235 204.232 961.586 204.731 958.452 204.731C955.28 204.731 952.59 204.232 950.316 203.321C948.075 202.373 946.214 201.037 944.682 199.307C943.172 197.56 941.948 195.369 941.063 192.654C940.183 189.917 939.711 186.736 939.711 183.065C939.711 179.432 940.183 176.291 941.06 173.596L941.065 173.583C941.952 170.825 943.177 168.619 944.683 166.878C946.219 165.143 948.086 163.805 950.336 162.856C952.604 161.915 955.286 161.399 958.452 161.399C961.58 161.399 964.222 161.915 966.448 162.852C968.702 163.801 970.547 165.137 972.043 166.863L972.055 166.878L972.068 166.892Z" fill="white"></path></svg> 